<svg width="64" height="64" viewBox="0 0 64 64" fill="none" xmlns="http://www.w3.org/2000/svg">
<rect width="64" height="64" />
<path d="M31.9999 5.3335C34.5379 5.3335 36.5976 7.39327 36.5976 9.9312V27.4025H54.0689C55.2883 27.4025 56.4577 27.8869 57.32 28.7491C58.1822 29.6113 58.6666 30.7808 58.6666 32.0002C58.6666 33.2196 58.1822 34.389 57.32 35.2512C56.4577 36.1135 55.2883 36.5979 54.0689 36.5979H36.5976V54.0691C36.5976 55.2885 36.1132 56.458 35.251 57.3202C34.3888 58.1824 33.2193 58.6668 31.9999 58.6668C30.7805 58.6668 29.6111 58.1824 28.7489 57.3202C27.8866 56.458 27.4022 55.2885 27.4022 54.0691V36.5979H9.93095C8.71157 36.5979 7.54212 36.1135 6.67989 35.2512C5.81765 34.389 5.33325 33.2196 5.33325 32.0002C5.33325 30.7808 5.81765 29.6113 6.67989 28.7491C7.54212 27.8869 8.71157 27.4025 9.93095 27.4025H27.4022V9.9312C27.4022 7.39327 29.462 5.3335 31.9999 5.3335Z" fill="#A3A3A3"/>
</svg>
