<svg width="445" height="357" viewBox="0 0 445 357" fill="none" xmlns="http://www.w3.org/2000/svg">
<mask id="mask0_760_8574" style="mask-type:alpha" maskUnits="userSpaceOnUse" x="0" y="0" width="445" height="357">
<rect width="445" height="357" rx="16" fill="url(#paint0_linear_760_8574)"/>
</mask>
<g mask="url(#mask0_760_8574)">
<rect width="445" height="357" rx="16" fill="#36303A"/>
<path opacity="0.25" d="M384.813 125.704C410.113 118.925 418.202 120.081 419.031 121.318C420.14 122.975 407.277 129.428 381.432 136.353C360.189 142.045 346.406 144.001 340.451 144.591C339.274 144.706 339.155 143.918 340.282 143.477C351.049 139.26 369.782 129.734 384.815 125.706L384.813 125.704ZM315.604 17.2321C315.657 17.0808 315.772 16.9587 315.922 16.8903C327.539 11.6233 334.084 8.90647 347.513 5.4497C348.15 5.28554 348.533 6.10461 347.994 6.47717L343.194 9.80666C334.917 15.5483 338.285 28.1189 348.324 28.9526L370.122 30.7638C370.293 30.7786 370.449 30.8652 370.548 31.0016L383.075 48.3264C388.845 56.306 401.799 52.835 402.805 43.0398L404.376 27.7676C404.438 27.1706 405.275 27.0354 405.512 27.5849C415.031 49.7437 424.2 78.0505 424.617 101.629C424.714 107.148 420.123 111.776 414.453 111.825C388.619 112.053 361.653 123.891 338.103 135.392C337.849 135.516 337.51 135.312 337.338 135.097C317.883 110.644 304.036 49.6625 315.601 17.2327L315.604 17.2321ZM337.984 72.66L345.802 73.3108L350.296 79.5236C353.769 84.3273 361.567 82.2379 362.175 76.3405L362.961 68.713L369.406 64.2407C374.389 60.7838 372.361 53.2167 366.317 52.7125L358.499 52.0617L354.005 45.8489C350.532 41.0452 342.734 43.1346 342.126 49.032L341.34 56.6595L334.895 61.1318C329.912 64.5887 331.94 72.1558 337.984 72.66ZM280.046 66.5531C283.039 61.545 289.158 56.5532 297.221 51.8928C297.681 51.6283 297.959 51.141 297.941 50.624C297.659 41.361 298.269 33.0632 299.934 26.6609C300.253 25.4343 298.893 24.4813 297.793 25.1586C290.883 29.4145 285.645 33.9178 282.947 38.4316C279.31 44.519 278.004 54.4597 278.477 66.1889C278.511 67.0101 279.62 67.2695 280.046 66.5531ZM368.567 147.171C362.047 148.501 356.608 149.163 352.321 149.466C352.128 149.479 351.941 149.511 351.762 149.559C350.278 149.957 349.326 151.464 349.73 152.969L356.509 178.268C356.738 179.126 357.756 179.462 358.659 179.22C359.091 179.104 359.495 178.857 359.775 178.471L363.441 173.424C364.089 172.533 365.088 171.905 366.179 171.612C367.27 171.32 368.448 171.363 369.456 171.812L375.472 174.494C375.907 174.688 376.383 174.7 376.813 174.584C377.708 174.344 378.417 173.557 378.205 172.705L372.442 149.542C372.023 147.861 370.315 146.814 368.567 147.169L368.567 147.171ZM322.607 138.599C309.081 123.415 303.32 98.2951 300.353 68.4722C300.142 66.3376 297.67 65.2284 295.831 66.4407C290.013 70.2757 285.597 74.2849 283.195 78.3044C282.429 79.5855 281.768 81.0387 281.203 82.6422C281.062 83.043 281.019 83.4696 281.07 83.8863C284.669 113.383 292.27 139.028 306.314 154.848C307.653 156.357 310.174 156.051 311.113 154.247C311.297 153.891 311.49 153.548 311.687 153.215C314.278 148.88 316.246 146.435 321.931 142.849C323.43 141.904 323.76 139.892 322.604 138.597L322.607 138.599ZM421.728 10.5645C421.532 10.3344 421.186 10.2967 420.932 10.4712L412.077 16.6154C411.832 16.7856 411.751 17.1049 411.894 17.3602C429.523 49.1518 443.709 107.999 433.756 122.55C426.922 132.542 404.662 142.852 381.574 149.114C381.259 149.199 381.077 149.515 381.153 149.823L381.154 149.829L384.2 162.073C384.277 162.385 384.602 162.572 384.922 162.488C413.01 155.11 440.019 142.69 447.5 130.171C460.632 108.195 443.389 36.0455 421.726 10.5671L421.728 10.5645ZM342.657 155.075C336.838 155.051 331.756 154.402 327.841 152.999C327.377 152.832 326.855 152.931 326.467 153.237C323.467 155.611 321.259 157.922 319.971 160.078C319.363 161.095 318.814 162.338 318.338 163.772L318.11 164.461C317.89 165.12 318.205 165.833 318.848 166.111C325.238 168.868 334.82 169.707 345.943 169.067C346.32 169.045 346.586 168.691 346.491 168.336L343.503 157.187C343.362 156.658 343.275 156.125 343.238 155.595C343.217 155.299 342.964 155.075 342.659 155.074L342.657 155.075ZM372.453 -21.9232L369.994 1.98209L349.794 15.9964C347.935 17.2857 348.691 20.1069 350.946 20.2941L375.447 22.3307L389.529 41.804C390.824 43.5959 393.731 42.8169 393.957 40.6174L396.416 16.7121L416.616 2.69777C418.475 1.40846 417.719 -1.41273 415.465 -1.59993L390.964 -3.63658L376.882 -23.1099C375.586 -24.9017 372.679 -24.1227 372.453 -21.9232ZM347.965 51.8129L347.134 59.8914L340.308 64.627C339.312 65.3176 339.717 66.8286 340.925 66.931L349.205 67.6188L353.963 74.1999C354.657 75.1595 356.214 74.7423 356.337 73.5637L357.168 65.4851L363.994 60.7495C364.99 60.0589 364.585 58.5479 363.377 58.4455L355.097 57.7578L350.339 51.1767C349.645 50.2171 348.088 50.6343 347.965 51.8129Z" fill="white"/>
<path opacity="0.25" d="M204.356 85.3315C206.028 81.7512 211.327 82.5062 211.933 86.4111L214.315 101.768C214.52 103.086 215.367 104.215 216.575 104.779L230.656 111.356C234.236 113.029 233.481 118.327 229.576 118.933L214.219 121.316C212.901 121.52 211.772 122.368 211.208 123.576L204.631 137.656C202.958 141.236 197.66 140.481 197.054 136.576L194.671 121.219C194.467 119.902 193.619 118.773 192.412 118.208L178.331 111.631C174.751 109.959 175.506 104.66 179.411 104.054L194.768 101.672C196.085 101.467 197.214 100.62 197.779 99.4119L204.356 85.3315Z" fill="white"/>
<path opacity="0.25" d="M148.691 64.5136C149.565 61.6817 153.579 61.6974 154.43 64.536L156.759 72.2963C157.047 73.2541 157.792 74.0057 158.748 74.3006L166.49 76.6901C169.322 77.5642 169.306 81.5782 166.467 82.4301L158.707 84.7589C157.749 85.0464 156.998 85.7921 156.703 86.7476L154.313 94.4894C153.439 97.3213 149.425 97.3056 148.573 94.4669L146.244 86.7066C145.957 85.7489 145.211 84.9973 144.256 84.7024L136.514 82.3129C133.682 81.4388 133.698 77.4248 136.536 76.5729L144.297 74.2441C145.255 73.9566 146.006 73.2109 146.301 72.2554L148.691 64.5136Z" fill="white"/>
<path opacity="0.25" d="M239.146 57.4899C239.268 55.5179 241.872 54.8995 242.869 56.6056L245.894 61.7847C246.23 62.3604 246.831 62.7307 247.496 62.7721L253.482 63.1455C255.454 63.2684 256.073 65.8721 254.367 66.8686L249.188 69.8936C248.612 70.2299 248.242 70.8308 248.2 71.4961L247.827 77.4824C247.704 79.4543 245.1 80.0727 244.104 78.3666L241.079 73.1875C240.742 72.6118 240.141 72.2416 239.476 72.2001L233.49 71.8268C231.518 71.7038 230.9 69.1002 232.606 68.1037L237.785 65.0786C238.36 64.7424 238.731 64.1414 238.772 63.4761L239.146 57.4899Z" fill="white"/>
</g>
<defs>
<linearGradient id="paint0_linear_760_8574" x1="0" y1="178.5" x2="445" y2="178.5" gradientUnits="userSpaceOnUse">
<stop stop-color="#8453C9"/>
<stop offset="1" stop-color="#4790AF"/>
</linearGradient>
</defs>
</svg>
