<svg width="34" height="40" viewBox="0 0 34 40" fill="none" xmlns="http://www.w3.org/2000/svg">
<path d="M18.7267 30.6189C24.0694 30.6189 25.6022 31.2861 25.7002 31.5789C25.8313 31.9711 22.9563 32.5746 17.4983 32.5746C13.0123 32.5746 10.1933 32.2259 8.9888 32.0239C8.7509 31.9838 8.769 31.8193 9.0144 31.7913C11.3585 31.5239 15.5523 30.6194 18.7271 30.6194L18.7267 30.6189ZM10.8169 5.12381C10.8355 5.09632 10.8646 5.07799 10.8977 5.07232C13.4647 4.63992 14.8978 4.44663 17.7261 4.47499C17.8603 4.4763 17.8925 4.6613 17.7667 4.70711L16.6452 5.11726C14.7111 5.82455 14.7111 8.52892 16.6452 9.23621L20.8443 10.7721C20.8774 10.7843 20.9035 10.81 20.9158 10.8428L22.4694 14.994C23.1849 16.906 25.9205 16.906 26.6359 14.994L27.7517 12.013C27.7954 11.8965 27.9675 11.9144 27.9852 12.0374C28.6909 16.9972 29.003 23.1721 27.8404 27.9272C27.5681 29.0403 26.4192 29.7223 25.2995 29.4273C20.1973 28.0834 14.2591 29.0093 9.01175 30.0513C8.95526 30.0626 8.8992 30.0033 8.87669 29.9509C6.33443 23.9963 6.82567 11.0112 10.8165 5.12381H10.8169ZM12.3004 17.4531L13.8063 18.0042L14.3638 19.493C14.7945 20.644 16.4413 20.644 16.8725 19.493L17.4299 18.0042L18.9359 17.4531C20.1002 17.0273 20.1002 15.3993 18.9359 14.9731L17.4299 14.422L16.8725 12.9332C16.4417 11.7822 14.795 11.7822 14.3638 12.9332L13.8063 14.422L12.3004 14.9731C11.136 15.3989 11.136 17.0269 12.3004 17.4531ZM1.20708 13.1112C2.06112 12.2669 3.53043 11.5941 5.36519 11.0923C5.46979 11.064 5.55012 10.9811 5.57395 10.8764C6.00737 9.0019 6.5657 7.36916 7.23172 6.17362C7.35928 5.94454 7.14168 5.68013 6.88922 5.75692C5.30295 6.2395 4.03314 6.86171 3.2634 7.62266C2.22531 8.64891 1.44321 10.574 0.917103 12.9537C0.880469 13.1204 1.08526 13.2321 1.20708 13.1112ZM14.3924 34.0541C13.0374 33.9704 11.9309 33.8107 11.0703 33.6409C11.0314 33.6331 10.993 33.6296 10.9551 33.6296C10.6417 33.6296 10.3747 33.8809 10.3747 34.2047V39.6474C10.3747 39.832 10.5574 39.9542 10.7481 39.9542C10.8394 39.9542 10.9321 39.9263 11.0076 39.8639L11.9963 39.0479C12.171 38.9039 12.401 38.8315 12.6314 38.8315C12.8618 38.8315 13.0917 38.9035 13.2665 39.0479L14.3103 39.9097C14.3858 39.9721 14.4789 40 14.5699 40C14.7588 40 14.9402 39.88 14.9433 39.6976L15.0307 34.7383C15.0368 34.3783 14.7557 34.0764 14.3924 34.0537V34.0541ZM5.78934 29.8615C3.92589 26.0863 4.117 20.7343 5.10699 14.5886C5.17805 14.1488 4.74948 13.7932 4.32312 13.9376C2.97431 14.3945 1.89252 14.9617 1.20708 15.6393C0.988604 15.8553 0.781603 16.1114 0.585637 16.4029C0.536645 16.4758 0.505749 16.5591 0.493832 16.6455C-0.354473 22.7598 -0.210587 28.316 1.72127 32.2469C1.90532 32.6217 2.41819 32.6959 2.69846 32.3843C2.75363 32.3228 2.80968 32.2643 2.86617 32.208C3.60546 31.4772 4.1223 31.0923 5.43183 30.6783C5.77698 30.5692 5.94823 30.183 5.7889 29.861L5.78934 29.8615ZM32.0789 9.4932C32.0524 9.43648 31.9862 9.4103 31.927 9.43168L29.8579 10.1887C29.8005 10.2097 29.7679 10.2694 29.7824 10.3283C31.5775 17.6578 31.2659 30.2328 28.5364 32.6182C26.6624 34.2562 21.7324 35.1284 16.8526 35.1437C16.786 35.1437 16.7334 35.1973 16.7321 35.2632C16.7321 35.2632 16.7321 35.2641 16.7321 35.2645L16.6858 37.886C16.6845 37.9527 16.7387 38.0077 16.8063 38.0082C22.7298 38.0378 28.7073 36.9976 30.8421 34.8871C34.5898 31.1822 35.0016 15.7728 32.0784 9.49364L32.0789 9.4932ZM8.87007 34.247C7.72473 33.9294 6.7577 33.5258 6.06034 33.0336C5.9778 32.9751 5.86967 32.9668 5.77698 33.0074C5.06064 33.3224 4.50364 33.6676 4.13598 34.031C3.96253 34.2025 3.78863 34.4224 3.61914 34.6846L3.53793 34.8107C3.45981 34.9312 3.48409 35.0913 3.59619 35.1816C4.70976 36.0787 6.55334 36.7624 8.77871 37.2324C8.85418 37.2481 8.92524 37.1914 8.92524 37.115V34.7165C8.92524 34.6026 8.93628 34.4909 8.95702 34.3827C8.9685 34.3221 8.93054 34.2636 8.87051 34.247H8.87007ZM24.0853 0.322011L22.3388 4.98811L17.6188 6.71466C17.1845 6.87349 17.1845 7.48042 17.6188 7.63924L22.3388 9.3658L24.0853 14.0319C24.2459 14.4612 24.8599 14.4612 25.0205 14.0319L26.767 9.3658L31.487 7.63924C31.9213 7.48042 31.9213 6.87349 31.487 6.71466L26.767 4.98811L25.0205 0.322011C24.8599 -0.107337 24.2459 -0.107337 24.0853 0.322011ZM15.3674 13.8054L14.7773 15.3823L13.1822 15.9657C12.9496 16.0508 12.9496 16.3759 13.1822 16.4614L14.7773 17.0447L15.3674 18.6216C15.4535 18.8516 15.7823 18.8516 15.8688 18.6216L16.4589 17.0447L18.054 16.4614C18.2866 16.3763 18.2866 16.0512 18.054 15.9657L16.4589 15.3823L15.8688 13.8054C15.7827 13.5755 15.4539 13.5755 15.3674 13.8054Z" fill="#F2F2F2"/>
</svg>
