<svg width="26" height="20" viewBox="0 0 26 20" fill="none" xmlns="http://www.w3.org/2000/svg">
<path fill-rule="evenodd" clip-rule="evenodd" d="M0.1875 2.5C0.1875 1.63706 0.887055 0.9375 1.75 0.9375H24.25C25.1129 0.9375 25.8125 1.63706 25.8125 2.5C25.8125 3.36294 25.1129 4.0625 24.25 4.0625H1.75C0.887055 4.0625 0.1875 3.36294 0.1875 2.5ZM0.1875 10C0.1875 9.13706 0.887055 8.4375 1.75 8.4375H24.25C25.1129 8.4375 25.8125 9.13706 25.8125 10C25.8125 10.8629 25.1129 11.5625 24.25 11.5625H1.75C0.887055 11.5625 0.1875 10.8629 0.1875 10ZM0.1875 17.5C0.1875 16.6371 0.887055 15.9375 1.75 15.9375H24.25C25.1129 15.9375 25.8125 16.6371 25.8125 17.5C25.8125 18.3629 25.1129 19.0625 24.25 19.0625H1.75C0.887055 19.0625 0.1875 18.3629 0.1875 17.5Z" fill="white"/>
</svg>
