<svg width="24" height="24" viewBox="0 0 24 24" fill="none" xmlns="http://www.w3.org/2000/svg">
<path d="M18.6591 2.15943C18.8658 1.94095 19.1142 1.76611 19.3896 1.64525C19.6649 1.52439 19.9618 1.45997 20.2625 1.45578C20.5632 1.4516 20.8617 1.50775 21.1403 1.6209C21.419 1.73405 21.6721 1.90192 21.8848 2.11458C22.0974 2.32723 22.2653 2.58036 22.3784 2.859C22.4916 3.13764 22.5477 3.43614 22.5435 3.73685C22.5394 4.03756 22.4749 4.33439 22.3541 4.60977C22.2332 4.88516 22.0584 5.13352 21.8399 5.34018L15.2474 11.9327C15.2387 11.9414 15.2317 11.9517 15.227 11.9631C15.2223 11.9745 15.2199 11.9867 15.2199 11.9991C15.2199 12.0114 15.2223 12.0236 15.227 12.035C15.2317 12.0464 15.2387 12.0567 15.2474 12.0654L21.8399 18.6579C22.0516 18.8662 22.2201 19.1144 22.3354 19.3881C22.4508 19.6617 22.5108 19.9556 22.5121 20.2526C22.5133 20.5496 22.4558 20.8439 22.3427 21.1186C22.2296 21.3932 22.0633 21.6428 21.8533 21.8528C21.6433 22.0629 21.3938 22.2293 21.1192 22.3424C20.8445 22.4555 20.5502 22.5132 20.2532 22.512C19.9562 22.5108 19.6624 22.4509 19.3886 22.3356C19.1149 22.2202 18.8667 22.0519 18.6584 21.8402L12.0659 15.2477C12.0572 15.239 12.0468 15.232 12.0355 15.2273C12.0241 15.2226 12.0119 15.2201 11.9995 15.2201C11.9872 15.2201 11.975 15.2226 11.9636 15.2273C11.9522 15.232 11.9419 15.239 11.9332 15.2477L5.34065 21.8402C5.13237 22.0519 4.88423 22.2204 4.61053 22.3357C4.33684 22.4511 4.04301 22.5111 3.746 22.5124C3.44898 22.5136 3.15466 22.456 2.88001 22.343C2.60536 22.2299 2.35582 22.0636 2.14577 21.8536C1.93572 21.6436 1.76933 21.3941 1.6562 21.1194C1.54306 20.8448 1.48542 20.5505 1.48659 20.2535C1.48776 19.9565 1.54773 19.6626 1.66304 19.3889C1.77834 19.1152 1.9467 18.867 2.1584 18.6587L8.7509 12.0662C8.75963 12.0575 8.76656 12.0471 8.77128 12.0357C8.77601 12.0244 8.77844 12.0121 8.77844 11.9998C8.77844 11.9875 8.77601 11.9753 8.77128 11.9639C8.76656 11.9525 8.75963 11.9421 8.7509 11.9334L2.1584 5.34093C1.74207 4.91787 1.50978 4.34743 1.51213 3.75387C1.51447 3.16031 1.75127 2.59172 2.17093 2.17196C2.59059 1.7522 3.15912 1.51527 3.75268 1.51278C4.34624 1.5103 4.91673 1.74245 5.3399 2.15868L11.9324 8.75118C11.9411 8.75991 11.9515 8.76684 11.9628 8.77157C11.9742 8.77629 11.9864 8.77873 11.9988 8.77873C12.0111 8.77873 12.0233 8.77629 12.0347 8.77157C12.0461 8.76684 12.0564 8.75991 12.0652 8.75118L18.6591 2.15943Z" fill="white"/>
</svg>
