<svg width="445" height="357" viewBox="0 0 445 357" fill="none" xmlns="http://www.w3.org/2000/svg">
<mask id="mask0_760_8619" style="mask-type:alpha" maskUnits="userSpaceOnUse" x="0" y="0" width="445" height="357">
<rect width="445" height="357" rx="16" fill="#36303A"/>
</mask>
<g mask="url(#mask0_760_8619)">
<rect width="445" height="357" rx="16" fill="url(#paint0_linear_760_8619)"/>
<path opacity="0.25" d="M380.776 169.143L373.057 147.824L371.239 148.315C354.033 152.971 337.809 150.924 322.567 142.174C307.325 133.424 297.376 120.445 292.721 103.239C288.065 86.0327 290.113 69.8086 298.863 54.5668C307.613 39.3251 320.591 29.3764 337.797 24.7208C346.4 22.393 354.863 21.8249 363.186 23.0165C371.509 24.2081 379.249 26.8604 386.406 30.9734C393.563 35.0864 399.754 40.4336 404.978 47.015C410.202 53.5965 413.982 61.1905 416.316 69.7972C418.774 78.8851 419.652 88.0107 418.948 97.1741C418.244 106.338 416.281 115.191 413.058 123.736C409.835 132.28 405.47 140.419 399.963 148.151C394.455 155.883 388.059 162.88 380.776 169.143ZM365.107 126.372C367.167 125.815 368.727 124.612 369.787 122.765C370.848 120.917 371.1 118.964 370.542 116.904C369.985 114.844 368.783 113.283 366.935 112.223C365.088 111.162 363.134 110.911 361.074 111.468C359.014 112.025 357.454 113.228 356.393 115.075C355.333 116.923 355.081 118.876 355.638 120.936C356.196 122.996 357.398 124.557 359.246 125.617C361.093 126.678 363.047 126.929 365.107 126.372ZM353.59 104.715L364.495 101.764C363.512 98.1292 363.187 95.4863 363.52 93.8355C363.854 92.1847 365.435 88.896 368.263 83.9694C369.854 81.1982 371.032 78.3435 371.798 75.4055C372.564 72.4675 372.553 69.5444 371.766 66.6363C370.094 60.4566 366.751 56.3858 361.736 54.424C356.721 52.4621 351.365 52.2548 345.666 53.8019C340.334 55.2445 336.253 57.9431 333.422 61.8978C330.591 65.8525 329.021 70.1446 328.713 74.7742L339.974 76.0188C340.022 73.795 340.624 71.4551 341.78 68.9992C342.936 66.5433 345.15 64.8703 348.42 63.9802C351.69 63.0902 354.391 63.3347 356.522 64.7139C358.654 66.093 360.011 67.8714 360.595 70.0489C361.153 72.1088 361.047 74.1218 360.279 76.0879C359.51 78.054 358.507 80.1123 357.268 82.2629C354.011 87.0455 352.216 90.6209 351.884 92.9891C351.552 95.3573 352.121 99.2659 353.59 104.715Z" fill="white"/>
</g>
<defs>
<linearGradient id="paint0_linear_760_8619" x1="-3.31551e-06" y1="357" x2="445" y2="-1.85224e-05" gradientUnits="userSpaceOnUse">
<stop stop-color="#577725"/>
<stop offset="1" stop-color="#91CD31"/>
</linearGradient>
</defs>
</svg>
