<svg width="32" height="32" viewBox="0 0 32 32" fill="none" xmlns="http://www.w3.org/2000/svg">
<path d="M26.7894 19.1012L27.0467 16.5758C27.1841 15.2278 27.2734 14.3385 27.2027 13.7772H27.2294C28.3907 13.7772 29.3334 12.7825 29.3334 11.5558C29.3334 10.3292 28.3907 9.33317 27.2281 9.33317C26.0654 9.33317 25.1227 10.3278 25.1227 11.5558C25.1227 12.1105 25.3161 12.6185 25.6347 13.0078C25.1774 13.3052 24.5787 13.9345 23.6774 14.8812C22.9841 15.6105 22.6374 15.9745 22.2507 16.0318C22.0359 16.0625 21.8168 16.0301 21.6201 15.9385C21.2627 15.7732 21.0241 15.3225 20.5481 14.4198L18.0361 9.6665C17.7427 9.1105 17.4961 8.64517 17.2734 8.2705C18.1841 7.77984 18.8067 6.78117 18.8067 5.6305C18.8067 3.99184 17.5507 2.6665 16.0001 2.6665C14.4494 2.6665 13.1934 3.99317 13.1934 5.62917C13.1934 6.78117 13.8161 7.77984 14.7267 8.26917C14.5041 8.64517 14.2587 9.1105 13.9641 9.6665L11.4534 14.4212C10.9761 15.3225 10.7374 15.7732 10.3801 15.9398C10.1833 16.0314 9.96424 16.0638 9.74941 16.0332C9.36275 15.9758 9.01608 15.6105 8.32275 14.8812C7.42141 13.9345 6.82275 13.3052 6.36541 13.0078C6.68541 12.6185 6.87741 12.1105 6.87741 11.5545C6.87741 10.3292 5.93341 9.33317 4.77075 9.33317C3.61075 9.33317 2.66675 10.3278 2.66675 11.5558C2.66675 12.7825 3.60941 13.7772 4.77208 13.7772H4.79741C4.72541 14.3372 4.81608 15.2278 4.95341 16.5758L5.21075 19.1012C5.35341 20.5025 5.47208 21.8358 5.61875 23.0372H26.3814C26.5281 21.8372 26.6467 20.5025 26.7894 19.1012ZM14.4734 29.3332H17.5267C21.5067 29.3332 23.4974 29.3332 24.8254 28.0798C25.4041 27.5305 25.7721 26.5438 26.0361 25.2585H5.96408C6.22808 26.5438 6.59475 27.5305 7.17475 28.0785C8.50275 29.3332 10.4934 29.3332 14.4734 29.3332Z" fill="url(#paint0_linear_15_98)"/>
<defs>
<linearGradient id="paint0_linear_15_98" x1="16.0001" y1="-20.6668" x2="16.0001" y2="86.6665" gradientUnits="userSpaceOnUse">
<stop stop-color="#CFFF82"/>
<stop offset="0.335" stop-color="#FFF15B"/>
<stop offset="0.69" stop-color="#FFAB35"/>
<stop offset="1" stop-color="#FF6B35"/>
</linearGradient>
</defs>
</svg>
