<svg width="20" height="20" viewBox="0 0 20 20" fill="none" xmlns="http://www.w3.org/2000/svg">
<path d="M8.33317 5.00008H11.6665C11.6665 4.55805 11.4909 4.13413 11.1783 3.82157C10.8658 3.50901 10.4419 3.33341 9.99984 3.33341C9.55781 3.33341 9.13389 3.50901 8.82133 3.82157C8.50877 4.13413 8.33317 4.55805 8.33317 5.00008ZM6.6665 5.00008C6.6665 4.11603 7.01769 3.26818 7.64281 2.64306C8.26794 2.01794 9.11578 1.66675 9.99984 1.66675C10.8839 1.66675 11.7317 2.01794 12.3569 2.64306C12.982 3.26818 13.3332 4.11603 13.3332 5.00008H17.4998C17.7209 5.00008 17.9328 5.08788 18.0891 5.24416C18.2454 5.40044 18.3332 5.6124 18.3332 5.83341C18.3332 6.05443 18.2454 6.26639 18.0891 6.42267C17.9328 6.57895 17.7209 6.66675 17.4998 6.66675H16.7648L16.0265 15.2834C15.9555 16.1155 15.5748 16.8906 14.9597 17.4554C14.3446 18.0202 13.5399 18.3335 12.7048 18.3334H7.29484C6.45976 18.3335 5.65507 18.0202 5.03996 17.4554C4.42486 16.8906 4.04415 16.1155 3.97317 15.2834L3.23484 6.66675H2.49984C2.27882 6.66675 2.06686 6.57895 1.91058 6.42267C1.7543 6.26639 1.6665 6.05443 1.6665 5.83341C1.6665 5.6124 1.7543 5.40044 1.91058 5.24416C2.06686 5.08788 2.27882 5.00008 2.49984 5.00008H6.6665ZM12.4998 10.0001C12.4998 9.77907 12.412 9.56711 12.2558 9.41083C12.0995 9.25455 11.8875 9.16675 11.6665 9.16675C11.4455 9.16675 11.2335 9.25455 11.0772 9.41083C10.921 9.56711 10.8332 9.77907 10.8332 10.0001V13.3334C10.8332 13.5544 10.921 13.7664 11.0772 13.9227C11.2335 14.079 11.4455 14.1667 11.6665 14.1667C11.8875 14.1667 12.0995 14.079 12.2558 13.9227C12.412 13.7664 12.4998 13.5544 12.4998 13.3334V10.0001ZM8.33317 9.16675C8.55418 9.16675 8.76615 9.25455 8.92243 9.41083C9.07871 9.56711 9.1665 9.77907 9.1665 10.0001V13.3334C9.1665 13.5544 9.07871 13.7664 8.92243 13.9227C8.76615 14.079 8.55418 14.1667 8.33317 14.1667C8.11216 14.1667 7.9002 14.079 7.74392 13.9227C7.58764 13.7664 7.49984 13.5544 7.49984 13.3334V10.0001C7.49984 9.77907 7.58764 9.56711 7.74392 9.41083C7.9002 9.25455 8.11216 9.16675 8.33317 9.16675ZM5.63317 15.1417C5.66867 15.5579 5.85914 15.9456 6.16687 16.228C6.4746 16.5104 6.87716 16.667 7.29484 16.6667H12.7048C13.1222 16.6666 13.5244 16.5098 13.8317 16.2274C14.1391 15.9451 14.3294 15.5576 14.3648 15.1417L15.0915 6.66675H4.90817L5.63317 15.1417Z" fill="white"/>
</svg>
