<svg width="24" height="24" viewBox="0 0 24 24" fill="none" xmlns="http://www.w3.org/2000/svg">
<g clip-path="url(#clip0_77_1193)">
<path fill-rule="evenodd" clip-rule="evenodd" d="M20.4322 0C19.4859 0 18.5784 0.375901 17.9093 1.04501L7.60741 11.3482C7.2004 11.7546 6.90215 12.2569 6.74012 12.8088L5.77938 16.0948C5.69332 16.3899 5.68816 16.7027 5.76444 17.0004C5.84072 17.2982 5.99564 17.5699 6.21299 17.7873C6.43033 18.0046 6.70211 18.1596 6.99985 18.2358C7.2976 18.3121 7.6111 18.3068 7.90618 18.2207L11.1898 17.2606C11.7422 17.0993 12.2456 16.8011 12.6527 16.3944L22.955 6.09072C23.6241 5.42162 24 4.51413 24 3.56789C24 2.62162 23.6241 1.71412 22.955 1.04501C22.2859 0.375901 21.3784 0 20.4322 0ZM9.22356 12.9651L19.5258 2.66155C19.7662 2.42121 20.0923 2.28614 20.4322 2.28614C20.7721 2.28614 21.0981 2.42118 21.3385 2.66155C21.5789 2.90193 21.7139 3.22795 21.7139 3.56789C21.7139 3.90783 21.5788 4.23389 21.3384 4.47426L11.0361 14.7779C10.9005 14.9133 10.7326 15.0125 10.5486 15.0662L8.26686 15.7334L8.93379 13.4523C8.98785 13.2685 9.08798 13.1005 9.22356 12.9651Z" fill="white"/>
<path d="M3.42916 1.1386C2.51969 1.1386 1.64747 1.4999 1.00438 2.143C0.361285 2.7861 0 3.65833 0 4.56781V20.5708C0 21.4803 0.361285 22.3525 1.00438 22.9956C1.64747 23.6387 2.51969 24 3.42916 24H19.4319C20.3414 24 21.2136 23.6387 21.8567 22.9956C22.4998 22.3525 22.861 21.4803 22.861 20.5708V12.5693C22.861 11.938 22.3493 11.4262 21.718 11.4262C21.0867 11.4262 20.5749 11.938 20.5749 12.5693V20.5708C20.5749 20.8739 20.4545 21.1647 20.2401 21.3791C20.0258 21.5934 19.735 21.7139 19.4319 21.7139H3.42916C3.126 21.7139 2.83526 21.5934 2.6209 21.3791C2.40653 21.1647 2.2861 20.874 2.2861 20.5708V4.56781C2.2861 4.26465 2.40653 3.97391 2.6209 3.75954C2.83526 3.54517 3.126 3.42474 3.42916 3.42474H11.4305C12.0618 3.42474 12.5736 2.91297 12.5736 2.28167C12.5736 1.65037 12.0618 1.1386 11.4305 1.1386H3.42916Z" fill="white"/>
</g>
<defs>
<clipPath id="clip0_77_1193">
<rect width="24" height="24" fill="white"/>
</clipPath>
</defs>
</svg>
