<svg width="20" height="20" viewBox="0 0 20 20" fill="none" xmlns="http://www.w3.org/2000/svg">
<path d="M16.4185 18.8934L16.4183 18.8932L10.5558 14.9773C10.2195 14.7527 9.78112 14.7527 9.44488 14.9773L3.58238 18.8932L3.58199 18.8935C3.38538 19.025 3.14724 19.0303 2.9481 18.9345C2.75132 18.8398 2.66699 18.6892 2.66699 18.5364V2.92234C2.66699 2.43496 2.87341 1.95281 3.26531 1.58633C3.65947 1.21773 4.20758 1 4.79199 1H15.2087C15.7931 1 16.3412 1.21773 16.7353 1.58633L17.4184 0.855933L16.7353 1.58633C17.1272 1.95281 17.3337 2.43496 17.3337 2.92234V18.5354C17.3337 18.6879 17.2494 18.8387 17.0521 18.9337C16.8523 19.0298 16.6142 19.0242 16.4185 18.8934Z" stroke="white" stroke-width="2" stroke-linejoin="round"/>
</svg>
