<svg width="24" height="24" viewBox="0 0 24 24" fill="none" xmlns="http://www.w3.org/2000/svg">
<rect x="1" y="1" width="22" height="22" rx="5" fill="#383838" stroke="white" stroke-width="2"/>
<rect x="11" y="11" width="2" height="2" rx="1" fill="#383838"/>
<g clip-path="url(#clip0_77_1007)">
<path fill-rule="evenodd" clip-rule="evenodd" d="M12.7845 11.3822C12.8158 11.4135 12.8334 11.4559 12.8334 11.5001C12.8334 11.5442 12.8158 11.5866 12.7845 11.6179L11.782 12.6181C11.7506 12.6493 11.7082 12.6668 11.6639 12.6668C11.6196 12.6668 11.5771 12.6493 11.5458 12.6181L11.2116 12.2847C11.1821 12.2531 11.166 12.2113 11.1668 12.1681C11.1675 12.1249 11.1851 12.0837 11.2157 12.0531C11.2463 12.0226 11.2876 12.0051 11.3309 12.0043C11.3742 12.0036 11.4161 12.0196 11.4478 12.0491L11.6639 12.2647L12.5484 11.3822C12.5797 11.351 12.6222 11.3335 12.6665 11.3335C12.7107 11.3335 12.7532 11.351 12.7845 11.3822Z" fill="#383838"/>
</g>
<defs>
<clipPath id="clip0_77_1007">
<rect width="2" height="2" fill="white" transform="translate(11 11)"/>
</clipPath>
</defs>
</svg>
