<svg width="34" height="34" viewBox="0 0 34 34" fill="none" xmlns="http://www.w3.org/2000/svg">
<path d="M16.9997 0.333374C7.79967 0.333374 0.333008 7.80004 0.333008 17C0.333008 26.2 7.79967 33.6667 16.9997 33.6667C26.1997 33.6667 33.6663 26.2 33.6663 17C33.6663 7.80004 26.1997 0.333374 16.9997 0.333374ZM24.733 11.6667C24.483 14.3 23.3997 20.7 22.8497 23.65C22.6163 24.9 22.1497 25.3167 21.7163 25.3667C20.7497 25.45 20.0163 24.7334 19.083 24.1167C17.6163 23.15 16.783 22.55 15.3663 21.6167C13.7163 20.5334 14.783 19.9334 15.733 18.9667C15.983 18.7167 20.2497 14.8334 20.333 14.4834C20.3446 14.4304 20.343 14.3753 20.3285 14.323C20.314 14.2708 20.2869 14.2228 20.2497 14.1834C20.1497 14.1 20.0163 14.1334 19.8997 14.15C19.7497 14.1834 17.4163 15.7334 12.8663 18.8C12.1997 19.25 11.5997 19.4834 11.0663 19.4667C10.4663 19.45 9.33301 19.1334 8.48301 18.85C7.43301 18.5167 6.61634 18.3334 6.68301 17.75C6.71634 17.45 7.13301 17.15 7.91634 16.8334C12.783 14.7167 16.0163 13.3167 17.633 12.65C22.2663 10.7167 23.2163 10.3834 23.8497 10.3834C23.983 10.3834 24.2997 10.4167 24.4997 10.5834C24.6663 10.7167 24.7163 10.9 24.733 11.0334C24.7163 11.1334 24.7497 11.4334 24.733 11.6667Z" fill="white"/>
</svg>
