<svg width="24" height="24" viewBox="0 0 24 24" fill="none" xmlns="http://www.w3.org/2000/svg">
<rect x="1" y="1" width="22" height="22" rx="5" fill="#383838" stroke="white" stroke-width="2"/>
<rect width="24" height="24" rx="6" fill="white"/>
<path fill-rule="evenodd" clip-rule="evenodd" d="M18.2756 7.05653C18.526 7.30658 18.6666 7.64554 18.6666 7.99896C18.6666 8.35237 18.526 8.69133 18.2756 8.94139L10.2549 16.9431C10.0043 17.1929 9.66451 17.3332 9.31026 17.3332C8.95601 17.3332 8.61625 17.1929 8.3656 16.9431L5.69203 14.2759C5.4559 14.0231 5.32735 13.6887 5.33346 13.3432C5.33957 12.9977 5.47987 12.6681 5.72479 12.4237C5.96971 12.1794 6.30014 12.0394 6.64646 12.0333C6.99277 12.0272 7.32794 12.1555 7.58135 12.391L9.31026 14.1159L16.3863 7.05653C16.637 6.80678 16.9767 6.6665 17.331 6.6665C17.6852 6.6665 18.025 6.80678 18.2756 7.05653Z" fill="#383838"/>
</svg>
