<svg width="1530" height="758" viewBox="0 0 1530 758" fill="none" xmlns="http://www.w3.org/2000/svg">
<path d="M0 16C0 7.16344 7.16344 0 16 0H1514C1522.84 0 1530 7.16345 1530 16V60H0V16Z" fill="#383838"/>
<path d="M197.579 22.96V37H194.159V28.58L191.019 37H188.259L185.099 28.56V37H181.679V22.96H185.719L189.659 32.68L193.559 22.96H197.579ZM206.679 37.14C205.359 37.14 204.145 36.8333 203.039 36.22C201.945 35.6067 201.072 34.7533 200.419 33.66C199.779 32.5533 199.459 31.3133 199.459 29.94C199.459 28.5667 199.779 27.3333 200.419 26.24C201.072 25.1467 201.945 24.2933 203.039 23.68C204.145 23.0667 205.359 22.76 206.679 22.76C207.999 22.76 209.205 23.0667 210.299 23.68C211.405 24.2933 212.272 25.1467 212.899 26.24C213.539 27.3333 213.859 28.5667 213.859 29.94C213.859 31.3133 213.539 32.5533 212.899 33.66C212.259 34.7533 211.392 35.6067 210.299 36.22C209.205 36.8333 207.999 37.14 206.679 37.14ZM206.679 34.02C207.799 34.02 208.692 33.6467 209.359 32.9C210.039 32.1533 210.379 31.1667 210.379 29.94C210.379 28.7 210.039 27.7133 209.359 26.98C208.692 26.2333 207.799 25.86 206.679 25.86C205.545 25.86 204.639 26.2267 203.959 26.96C203.292 27.6933 202.959 28.6867 202.959 29.94C202.959 31.18 203.292 32.1733 203.959 32.92C204.639 33.6533 205.545 34.02 206.679 34.02ZM228.321 37H224.901L219.181 28.34V37H215.761V22.96H219.181L224.901 31.66V22.96H228.321V37Z" fill="white"/>
<path d="M398.471 22.96V25.7H394.751V37H391.331V25.7H387.611V22.96H398.471ZM403.547 22.96V31.36C403.547 32.2 403.754 32.8467 404.167 33.3C404.581 33.7533 405.187 33.98 405.987 33.98C406.787 33.98 407.401 33.7533 407.827 33.3C408.254 32.8467 408.467 32.2 408.467 31.36V22.96H411.887V31.34C411.887 32.5933 411.621 33.6533 411.087 34.52C410.554 35.3867 409.834 36.04 408.927 36.48C408.034 36.92 407.034 37.14 405.927 37.14C404.821 37.14 403.827 36.9267 402.947 36.5C402.081 36.06 401.394 35.4067 400.887 34.54C400.381 33.66 400.127 32.5933 400.127 31.34V22.96H403.547ZM417.709 25.7V28.54H422.289V31.18H417.709V34.26H422.889V37H414.289V22.96H422.889V25.7H417.709Z" fill="white"/>
<path d="M602.867 22.96L599.207 37H595.067L592.827 27.76L590.507 37H586.367L582.807 22.96H586.467L588.487 33.18L590.987 22.96H594.747L597.147 33.18L599.187 22.96H602.867ZM608.002 25.7V28.54H612.582V31.18H608.002V34.26H613.182V37H604.582V22.96H613.182V25.7H608.002ZM620.662 22.96C622.142 22.96 623.435 23.2533 624.542 23.84C625.649 24.4267 626.502 25.2533 627.102 26.32C627.715 27.3733 628.022 28.5933 628.022 29.98C628.022 31.3533 627.715 32.5733 627.102 33.64C626.502 34.7067 625.642 35.5333 624.522 36.12C623.415 36.7067 622.129 37 620.662 37H615.402V22.96H620.662ZM620.442 34.04C621.735 34.04 622.742 33.6867 623.462 32.98C624.182 32.2733 624.542 31.2733 624.542 29.98C624.542 28.6867 624.182 27.68 623.462 26.96C622.742 26.24 621.735 25.88 620.442 25.88H618.822V34.04H620.442Z" fill="white"/>
<path d="M796.567 22.96V25.7H792.847V37H789.427V25.7H785.707V22.96H796.567ZM810.443 22.96V37H807.023V31.22H801.703V37H798.283V22.96H801.703V28.46H807.023V22.96H810.443ZM816.272 22.96V31.36C816.272 32.2 816.479 32.8467 816.892 33.3C817.305 33.7533 817.912 33.98 818.712 33.98C819.512 33.98 820.125 33.7533 820.552 33.3C820.979 32.8467 821.192 32.2 821.192 31.36V22.96H824.612V31.34C824.612 32.5933 824.345 33.6533 823.812 34.52C823.279 35.3867 822.559 36.04 821.652 36.48C820.759 36.92 819.759 37.14 818.652 37.14C817.545 37.14 816.552 36.9267 815.672 36.5C814.805 36.06 814.119 35.4067 813.612 34.54C813.105 33.66 812.852 32.5933 812.852 31.34V22.96H816.272Z" fill="white"/>
<path d="M1000.44 22.96V25.7H994.719V28.66H998.999V31.32H994.719V37H991.299V22.96H1000.44ZM1009.4 37L1006.48 31.7H1005.66V37H1002.24V22.96H1007.98C1009.08 22.96 1010.02 23.1533 1010.8 23.54C1011.58 23.9267 1012.17 24.46 1012.56 25.14C1012.94 25.8067 1013.14 26.5533 1013.14 27.38C1013.14 28.3133 1012.87 29.1467 1012.34 29.88C1011.82 30.6133 1011.04 31.1333 1010.02 31.44L1013.26 37H1009.4ZM1005.66 29.28H1007.78C1008.4 29.28 1008.87 29.1267 1009.18 28.82C1009.5 28.5133 1009.66 28.08 1009.66 27.52C1009.66 26.9867 1009.5 26.5667 1009.18 26.26C1008.87 25.9533 1008.4 25.8 1007.78 25.8H1005.66V29.28ZM1018.7 22.96V37H1015.28V22.96H1018.7Z" fill="white"/>
<path d="M1192.39 37.14C1191.36 37.14 1190.44 36.9733 1189.63 36.64C1188.81 36.3067 1188.16 35.8133 1187.67 35.16C1187.19 34.5067 1186.93 33.72 1186.91 32.8H1190.55C1190.6 33.32 1190.78 33.72 1191.09 34C1191.39 34.2667 1191.79 34.4 1192.29 34.4C1192.79 34.4 1193.19 34.2867 1193.49 34.06C1193.78 33.82 1193.93 33.4933 1193.93 33.08C1193.93 32.7333 1193.81 32.4467 1193.57 32.22C1193.34 31.9933 1193.05 31.8067 1192.71 31.66C1192.37 31.5133 1191.89 31.3467 1191.27 31.16C1190.36 30.88 1189.62 30.6 1189.05 30.32C1188.47 30.04 1187.98 29.6267 1187.57 29.08C1187.15 28.5333 1186.95 27.82 1186.95 26.94C1186.95 25.6333 1187.42 24.6133 1188.37 23.88C1189.31 23.1333 1190.55 22.76 1192.07 22.76C1193.61 22.76 1194.86 23.1333 1195.81 23.88C1196.75 24.6133 1197.26 25.64 1197.33 26.96H1193.63C1193.6 26.5067 1193.43 26.1533 1193.13 25.9C1192.82 25.6333 1192.43 25.5 1191.95 25.5C1191.53 25.5 1191.2 25.6133 1190.95 25.84C1190.69 26.0533 1190.57 26.3667 1190.57 26.78C1190.57 27.2333 1190.78 27.5867 1191.21 27.84C1191.63 28.0933 1192.3 28.3667 1193.21 28.66C1194.11 28.9667 1194.85 29.26 1195.41 29.54C1195.98 29.82 1196.47 30.2267 1196.89 30.76C1197.3 31.2933 1197.51 31.98 1197.51 32.82C1197.51 33.62 1197.3 34.3467 1196.89 35C1196.49 35.6533 1195.9 36.1733 1195.13 36.56C1194.35 36.9467 1193.44 37.14 1192.39 37.14ZM1208.35 34.52H1203.11L1202.27 37H1198.69L1203.77 22.96H1207.73L1212.81 37H1209.19L1208.35 34.52ZM1207.47 31.88L1205.73 26.74L1204.01 31.88H1207.47ZM1224.46 22.96V25.7H1220.74V37H1217.32V25.7H1213.6V22.96H1224.46Z" fill="white"/>
<path d="M1390.6 37.14C1389.57 37.14 1388.65 36.9733 1387.84 36.64C1387.02 36.3067 1386.37 35.8133 1385.88 35.16C1385.4 34.5067 1385.14 33.72 1385.12 32.8H1388.76C1388.81 33.32 1388.99 33.72 1389.3 34C1389.6 34.2667 1390 34.4 1390.5 34.4C1391 34.4 1391.4 34.2867 1391.7 34.06C1391.99 33.82 1392.14 33.4933 1392.14 33.08C1392.14 32.7333 1392.02 32.4467 1391.78 32.22C1391.55 31.9933 1391.26 31.8067 1390.92 31.66C1390.58 31.5133 1390.1 31.3467 1389.48 31.16C1388.57 30.88 1387.83 30.6 1387.26 30.32C1386.68 30.04 1386.19 29.6267 1385.78 29.08C1385.36 28.5333 1385.16 27.82 1385.16 26.94C1385.16 25.6333 1385.63 24.6133 1386.58 23.88C1387.52 23.1333 1388.76 22.76 1390.28 22.76C1391.82 22.76 1393.07 23.1333 1394.02 23.88C1394.96 24.6133 1395.47 25.64 1395.54 26.96H1391.84C1391.81 26.5067 1391.64 26.1533 1391.34 25.9C1391.03 25.6333 1390.64 25.5 1390.16 25.5C1389.74 25.5 1389.41 25.6133 1389.16 25.84C1388.9 26.0533 1388.78 26.3667 1388.78 26.78C1388.78 27.2333 1388.99 27.5867 1389.42 27.84C1389.84 28.0933 1390.51 28.3667 1391.42 28.66C1392.32 28.9667 1393.06 29.26 1393.62 29.54C1394.19 29.82 1394.68 30.2267 1395.1 30.76C1395.51 31.2933 1395.72 31.98 1395.72 32.82C1395.72 33.62 1395.51 34.3467 1395.1 35C1394.7 35.6533 1394.11 36.1733 1393.34 36.56C1392.56 36.9467 1391.65 37.14 1390.6 37.14ZM1401.18 22.96V31.36C1401.18 32.2 1401.39 32.8467 1401.8 33.3C1402.22 33.7533 1402.82 33.98 1403.62 33.98C1404.42 33.98 1405.04 33.7533 1405.46 33.3C1405.89 32.8467 1406.1 32.2 1406.1 31.36V22.96H1409.52V31.34C1409.52 32.5933 1409.26 33.6533 1408.72 34.52C1408.19 35.3867 1407.47 36.04 1406.56 36.48C1405.67 36.92 1404.67 37.14 1403.56 37.14C1402.46 37.14 1401.46 36.9267 1400.58 36.5C1399.72 36.06 1399.03 35.4067 1398.52 34.54C1398.02 33.66 1397.76 32.5933 1397.76 31.34V22.96H1401.18ZM1424.48 37H1421.06L1415.34 28.34V37H1411.92V22.96H1415.34L1421.06 31.66V22.96H1424.48V37Z" fill="white"/>
<path fill-rule="evenodd" clip-rule="evenodd" d="M105 49C105.552 49 106 49.4477 106 50L106 757C106 757.552 105.552 758 105 758C104.448 758 104 757.552 104 757L104 50C104 49.4477 104.448 49 105 49Z" fill="#444444"/>
<path fill-rule="evenodd" clip-rule="evenodd" d="M0 101C0 100.448 0.966156 100 2.15797 100L1527.84 100C1529.03 100 1530 100.448 1530 101C1530 101.552 1529.03 102 1527.84 102L2.15797 102C0.966156 102 0 101.552 0 101Z" fill="#444444"/>
<path fill-rule="evenodd" clip-rule="evenodd" d="M0 59C0 58.4477 0.966156 58 2.15797 58L1527.84 58C1529.03 58 1530 58.4477 1530 59C1530 59.5523 1529.03 60 1527.84 60L2.15797 60C0.966156 60 0 59.5523 0 59Z" fill="#444444"/>
<path fill-rule="evenodd" clip-rule="evenodd" d="M0 143C0 142.448 0.966156 142 2.15797 142L1527.84 142C1529.03 142 1530 142.448 1530 143C1530 143.552 1529.03 144 1527.84 144L2.15797 144C0.966156 144 0 143.552 0 143Z" fill="#444444"/>
<path fill-rule="evenodd" clip-rule="evenodd" d="M0 185C0 184.448 0.966156 184 2.15797 184L1527.84 184C1529.03 184 1530 184.448 1530 185C1530 185.552 1529.03 186 1527.84 186L2.15797 186C0.966156 186 0 185.552 0 185Z" fill="#444444"/>
<path fill-rule="evenodd" clip-rule="evenodd" d="M0 227C0 226.448 0.966156 226 2.15797 226L1527.84 226C1529.03 226 1530 226.448 1530 227C1530 227.552 1529.03 228 1527.84 228L2.15797 228C0.966156 228 0 227.552 0 227Z" fill="#444444"/>
<path fill-rule="evenodd" clip-rule="evenodd" d="M0 269C0 268.448 0.966156 268 2.15797 268L1527.84 268C1529.03 268 1530 268.448 1530 269C1530 269.552 1529.03 270 1527.84 270L2.15797 270C0.966156 270 0 269.552 0 269Z" fill="#444444"/>
<path fill-rule="evenodd" clip-rule="evenodd" d="M0 311C0 310.448 0.966156 310 2.15797 310L1527.84 310C1529.03 310 1530 310.448 1530 311C1530 311.552 1529.03 312 1527.84 312L2.15797 312C0.966156 312 0 311.552 0 311Z" fill="#444444"/>
<path fill-rule="evenodd" clip-rule="evenodd" d="M0 353C0 352.448 0.966156 352 2.15797 352L1527.84 352C1529.03 352 1530 352.448 1530 353C1530 353.552 1529.03 354 1527.84 354L2.15797 354C0.966156 354 0 353.552 0 353Z" fill="#444444"/>
<path fill-rule="evenodd" clip-rule="evenodd" d="M0 395C0 394.448 0.966156 394 2.15797 394L1527.84 394C1529.03 394 1530 394.448 1530 395C1530 395.552 1529.03 396 1527.84 396L2.15797 396C0.966156 396 0 395.552 0 395Z" fill="#444444"/>
<path fill-rule="evenodd" clip-rule="evenodd" d="M0 437C0 436.448 0.966156 436 2.15797 436L1527.84 436C1529.03 436 1530 436.448 1530 437C1530 437.552 1529.03 438 1527.84 438L2.15797 438C0.966156 438 0 437.552 0 437Z" fill="#444444"/>
<path fill-rule="evenodd" clip-rule="evenodd" d="M0 479C0 478.448 0.966156 478 2.15797 478L1527.84 478C1529.03 478 1530 478.448 1530 479C1530 479.552 1529.03 480 1527.84 480L2.15797 480C0.966156 480 0 479.552 0 479Z" fill="#444444"/>
<path fill-rule="evenodd" clip-rule="evenodd" d="M0 521C0 520.448 0.966156 520 2.15797 520L1527.84 520C1529.03 520 1530 520.448 1530 521C1530 521.552 1529.03 522 1527.84 522L2.15797 522C0.966156 522 0 521.552 0 521Z" fill="#444444"/>
<path fill-rule="evenodd" clip-rule="evenodd" d="M0 563C0 562.448 0.966156 562 2.15797 562L1527.84 562C1529.03 562 1530 562.448 1530 563C1530 563.552 1529.03 564 1527.84 564L2.15797 564C0.966156 564 0 563.552 0 563Z" fill="#444444"/>
<path fill-rule="evenodd" clip-rule="evenodd" d="M0 605C0 604.448 0.966156 604 2.15797 604L1527.84 604C1529.03 604 1530 604.448 1530 605C1530 605.552 1529.03 606 1527.84 606L2.15797 606C0.966156 606 0 605.552 0 605Z" fill="#444444"/>
<path fill-rule="evenodd" clip-rule="evenodd" d="M0 647C0 646.448 0.966156 646 2.15797 646L1527.84 646C1529.03 646 1530 646.448 1530 647C1530 647.552 1529.03 648 1527.84 648L2.15797 648C0.966156 648 0 647.552 0 647Z" fill="#444444"/>
<path fill-rule="evenodd" clip-rule="evenodd" d="M0 689C0 688.448 0.966156 688 2.15797 688L1527.84 688C1529.03 688 1530 688.448 1530 689C1530 689.552 1529.03 690 1527.84 690L2.15797 690C0.966156 690 0 689.552 0 689Z" fill="#444444"/>
<path fill-rule="evenodd" clip-rule="evenodd" d="M0 731C0 730.448 0.966156 730 2.15797 730L1527.84 730C1529.03 730 1530 730.448 1530 731C1530 731.552 1529.03 732 1527.84 732L2.15797 732C0.966156 732 0 731.552 0 731Z" fill="#444444"/>
<path fill-rule="evenodd" clip-rule="evenodd" d="M305 49C305.552 49 306 49.4477 306 50L306 757C306 757.552 305.552 758 305 758C304.448 758 304 757.552 304 757L304 50C304 49.4477 304.448 49 305 49Z" fill="#444444"/>
<path fill-rule="evenodd" clip-rule="evenodd" d="M505 49C505.552 49 506 49.4477 506 50L506 757C506 757.552 505.552 758 505 758C504.448 758 504 757.552 504 757L504 50C504 49.4477 504.448 49 505 49Z" fill="#444444"/>
<path fill-rule="evenodd" clip-rule="evenodd" d="M705 49C705.552 49 706 49.4477 706 50L706 757C706 757.552 705.552 758 705 758C704.448 758 704 757.552 704 757L704 50C704 49.4477 704.448 49 705 49Z" fill="#444444"/>
<path fill-rule="evenodd" clip-rule="evenodd" d="M905 49C905.552 49 906 49.4477 906 50L906 757C906 757.552 905.552 758 905 758C904.448 758 904 757.552 904 757L904 50C904 49.4477 904.448 49 905 49Z" fill="#444444"/>
<path fill-rule="evenodd" clip-rule="evenodd" d="M1105 49C1105.55 49 1106 49.4477 1106 50L1106 757C1106 757.552 1105.55 758 1105 758C1104.45 758 1104 757.552 1104 757L1104 50C1104 49.4477 1104.45 49 1105 49Z" fill="#444444"/>
<path fill-rule="evenodd" clip-rule="evenodd" d="M1305 49C1305.55 49 1306 49.4477 1306 50L1306 757C1306 757.552 1305.55 758 1305 758C1304.45 758 1304 757.552 1304 757L1304 50C1304 49.4477 1304.45 49 1305 49Z" fill="#444444"/>
<path fill-rule="evenodd" clip-rule="evenodd" d="M1505 49C1505.55 49 1506 49.4477 1506 50L1506 757C1506 757.552 1505.55 758 1505 758C1504.45 758 1504 757.552 1504 757L1504 50C1504 49.4477 1504.45 49 1505 49Z" fill="#444444"/>
<path d="M44.7064 76.026L40.8144 85H39.2044L43.1384 76.194H37.9584V74.836H44.7064V76.026ZM46.9264 85.098C46.6371 85.098 46.3944 85 46.1984 84.804C46.0024 84.608 45.9044 84.3653 45.9044 84.076C45.9044 83.7867 46.0024 83.544 46.1984 83.348C46.3944 83.152 46.6371 83.054 46.9264 83.054C47.2064 83.054 47.4444 83.152 47.6404 83.348C47.8364 83.544 47.9344 83.7867 47.9344 84.076C47.9344 84.3653 47.8364 84.608 47.6404 84.804C47.4444 85 47.2064 85.098 46.9264 85.098ZM46.9264 79.218C46.6371 79.218 46.3944 79.12 46.1984 78.924C46.0024 78.728 45.9044 78.4853 45.9044 78.196C45.9044 77.9067 46.0024 77.664 46.1984 77.468C46.3944 77.272 46.6371 77.174 46.9264 77.174C47.2064 77.174 47.4444 77.272 47.6404 77.468C47.8364 77.664 47.9344 77.9067 47.9344 78.196C47.9344 78.4853 47.8364 78.728 47.6404 78.924C47.4444 79.12 47.2064 79.218 46.9264 79.218ZM49.5041 79.764C49.5041 78.1493 49.7747 76.8893 50.3161 75.984C50.8667 75.0693 51.8094 74.612 53.1441 74.612C54.4787 74.612 55.4167 75.0693 55.9581 75.984C56.5087 76.8893 56.7841 78.1493 56.7841 79.764C56.7841 81.3973 56.5087 82.676 55.9581 83.6C55.4167 84.5147 54.4787 84.972 53.1441 84.972C51.8094 84.972 50.8667 84.5147 50.3161 83.6C49.7747 82.676 49.5041 81.3973 49.5041 79.764ZM55.2161 79.764C55.2161 79.008 55.1647 78.3687 55.0621 77.846C54.9687 77.3233 54.7727 76.8987 54.4741 76.572C54.1754 76.236 53.7321 76.068 53.1441 76.068C52.5561 76.068 52.1127 76.236 51.8141 76.572C51.5154 76.8987 51.3147 77.3233 51.2121 77.846C51.1187 78.3687 51.0721 79.008 51.0721 79.764C51.0721 80.548 51.1187 81.206 51.2121 81.738C51.3054 82.27 51.5014 82.6993 51.8001 83.026C52.1081 83.3527 52.5561 83.516 53.1441 83.516C53.7321 83.516 54.1754 83.3527 54.4741 83.026C54.7821 82.6993 54.9827 82.27 55.0761 81.738C55.1694 81.206 55.2161 80.548 55.2161 79.764ZM58.4728 79.764C58.4728 78.1493 58.7435 76.8893 59.2848 75.984C59.8355 75.0693 60.7781 74.612 62.1128 74.612C63.4475 74.612 64.3855 75.0693 64.9268 75.984C65.4775 76.8893 65.7528 78.1493 65.7528 79.764C65.7528 81.3973 65.4775 82.676 64.9268 83.6C64.3855 84.5147 63.4475 84.972 62.1128 84.972C60.7781 84.972 59.8355 84.5147 59.2848 83.6C58.7435 82.676 58.4728 81.3973 58.4728 79.764ZM64.1848 79.764C64.1848 79.008 64.1335 78.3687 64.0308 77.846C63.9375 77.3233 63.7415 76.8987 63.4428 76.572C63.1441 76.236 62.7008 76.068 62.1128 76.068C61.5248 76.068 61.0815 76.236 60.7828 76.572C60.4841 76.8987 60.2835 77.3233 60.1808 77.846C60.0875 78.3687 60.0408 79.008 60.0408 79.764C60.0408 80.548 60.0875 81.206 60.1808 81.738C60.2741 82.27 60.4701 82.6993 60.7688 83.026C61.0768 83.3527 61.5248 83.516 62.1128 83.516C62.7008 83.516 63.1441 83.3527 63.4428 83.026C63.7508 82.6993 63.9515 82.27 64.0448 81.738C64.1381 81.206 64.1848 80.548 64.1848 79.764Z" fill="white"/>
<path d="M39.9136 121.666C38.9429 121.181 38.4576 120.415 38.4576 119.37C38.4576 118.866 38.5836 118.404 38.8356 117.984C39.0876 117.564 39.4656 117.233 39.9696 116.99C40.4736 116.738 41.0896 116.612 41.8176 116.612C42.5362 116.612 43.1476 116.738 43.6516 116.99C44.1649 117.233 44.5476 117.564 44.7996 117.984C45.0516 118.404 45.1776 118.866 45.1776 119.37C45.1776 119.893 45.0422 120.355 44.7716 120.756C44.5102 121.148 44.1602 121.451 43.7216 121.666C44.2536 121.862 44.6736 122.184 44.9816 122.632C45.2896 123.071 45.4436 123.589 45.4436 124.186C45.4436 124.793 45.2896 125.329 44.9816 125.796C44.6736 126.263 44.2442 126.622 43.6936 126.874C43.1429 127.126 42.5176 127.252 41.8176 127.252C41.1176 127.252 40.4922 127.126 39.9416 126.874C39.4002 126.622 38.9756 126.263 38.6676 125.796C38.3596 125.329 38.2056 124.793 38.2056 124.186C38.2056 123.579 38.3596 123.057 38.6676 122.618C38.9756 122.179 39.3909 121.862 39.9136 121.666ZM43.6516 119.566C43.6516 119.043 43.4882 118.642 43.1616 118.362C42.8349 118.082 42.3869 117.942 41.8176 117.942C41.2576 117.942 40.8142 118.082 40.4876 118.362C40.1609 118.642 39.9976 119.048 39.9976 119.58C39.9976 120.047 40.1656 120.429 40.5016 120.728C40.8469 121.017 41.2856 121.162 41.8176 121.162C42.3496 121.162 42.7882 121.013 43.1336 120.714C43.4789 120.415 43.6516 120.033 43.6516 119.566ZM41.8176 122.366C41.2016 122.366 40.6976 122.52 40.3056 122.828C39.9229 123.127 39.7316 123.561 39.7316 124.13C39.7316 124.662 39.9182 125.096 40.2916 125.432C40.6649 125.759 41.1736 125.922 41.8176 125.922C42.4522 125.922 42.9516 125.754 43.3156 125.418C43.6889 125.082 43.8756 124.653 43.8756 124.13C43.8756 123.57 43.6842 123.136 43.3016 122.828C42.9282 122.52 42.4336 122.366 41.8176 122.366ZM47.9733 127.098C47.684 127.098 47.4413 127 47.2453 126.804C47.0493 126.608 46.9513 126.365 46.9513 126.076C46.9513 125.787 47.0493 125.544 47.2453 125.348C47.4413 125.152 47.684 125.054 47.9733 125.054C48.2533 125.054 48.4913 125.152 48.6873 125.348C48.8833 125.544 48.9813 125.787 48.9813 126.076C48.9813 126.365 48.8833 126.608 48.6873 126.804C48.4913 127 48.2533 127.098 47.9733 127.098ZM47.9733 121.218C47.684 121.218 47.4413 121.12 47.2453 120.924C47.0493 120.728 46.9513 120.485 46.9513 120.196C46.9513 119.907 47.0493 119.664 47.2453 119.468C47.4413 119.272 47.684 119.174 47.9733 119.174C48.2533 119.174 48.4913 119.272 48.6873 119.468C48.8833 119.664 48.9813 119.907 48.9813 120.196C48.9813 120.485 48.8833 120.728 48.6873 120.924C48.4913 121.12 48.2533 121.218 47.9733 121.218ZM50.5509 121.764C50.5509 120.149 50.8216 118.889 51.3629 117.984C51.9136 117.069 52.8563 116.612 54.1909 116.612C55.5256 116.612 56.4636 117.069 57.0049 117.984C57.5556 118.889 57.8309 120.149 57.8309 121.764C57.8309 123.397 57.5556 124.676 57.0049 125.6C56.4636 126.515 55.5256 126.972 54.1909 126.972C52.8563 126.972 51.9136 126.515 51.3629 125.6C50.8216 124.676 50.5509 123.397 50.5509 121.764ZM56.2629 121.764C56.2629 121.008 56.2116 120.369 56.1089 119.846C56.0156 119.323 55.8196 118.899 55.5209 118.572C55.2223 118.236 54.7789 118.068 54.1909 118.068C53.6029 118.068 53.1596 118.236 52.8609 118.572C52.5623 118.899 52.3616 119.323 52.2589 119.846C52.1656 120.369 52.1189 121.008 52.1189 121.764C52.1189 122.548 52.1656 123.206 52.2589 123.738C52.3523 124.27 52.5483 124.699 52.8469 125.026C53.1549 125.353 53.6029 125.516 54.1909 125.516C54.7789 125.516 55.2223 125.353 55.5209 125.026C55.8289 124.699 56.0296 124.27 56.1229 123.738C56.2163 123.206 56.2629 122.548 56.2629 121.764ZM59.5197 121.764C59.5197 120.149 59.7904 118.889 60.3317 117.984C60.8824 117.069 61.825 116.612 63.1597 116.612C64.4944 116.612 65.4324 117.069 65.9737 117.984C66.5244 118.889 66.7997 120.149 66.7997 121.764C66.7997 123.397 66.5244 124.676 65.9737 125.6C65.4324 126.515 64.4944 126.972 63.1597 126.972C61.825 126.972 60.8824 126.515 60.3317 125.6C59.7904 124.676 59.5197 123.397 59.5197 121.764ZM65.2317 121.764C65.2317 121.008 65.1804 120.369 65.0777 119.846C64.9844 119.323 64.7884 118.899 64.4897 118.572C64.191 118.236 63.7477 118.068 63.1597 118.068C62.5717 118.068 62.1284 118.236 61.8297 118.572C61.531 118.899 61.3304 119.323 61.2277 119.846C61.1344 120.369 61.0877 121.008 61.0877 121.764C61.0877 122.548 61.1344 123.206 61.2277 123.738C61.321 124.27 61.517 124.699 61.8157 125.026C62.1237 125.353 62.5717 125.516 63.1597 125.516C63.7477 125.516 64.191 125.353 64.4897 125.026C64.7977 124.699 64.9984 124.27 65.0917 123.738C65.185 123.206 65.2317 122.548 65.2317 121.764Z" fill="white"/>
<path d="M40.2001 166.228C40.2934 166.695 40.4941 167.049 40.8021 167.292C41.1101 167.535 41.5254 167.656 42.0481 167.656C42.7107 167.656 43.1961 167.395 43.5041 166.872C43.8121 166.349 43.9661 165.458 43.9661 164.198C43.7421 164.515 43.4247 164.763 43.0141 164.94C42.6127 165.108 42.1741 165.192 41.6981 165.192C41.0914 165.192 40.5407 165.071 40.0461 164.828C39.5514 164.576 39.1594 164.207 38.8701 163.722C38.5901 163.227 38.4501 162.63 38.4501 161.93C38.4501 160.903 38.7487 160.087 39.3461 159.48C39.9527 158.864 40.7834 158.556 41.8381 158.556C43.1074 158.556 44.0081 158.981 44.5401 159.83C45.0814 160.67 45.3521 161.963 45.3521 163.708C45.3521 164.912 45.2494 165.897 45.0441 166.662C44.8481 167.427 44.5027 168.006 44.0081 168.398C43.5134 168.79 42.8274 168.986 41.9501 168.986C40.9514 168.986 40.1814 168.725 39.6401 168.202C39.0987 167.679 38.7954 167.021 38.7301 166.228H40.2001ZM41.9781 163.848C42.5381 163.848 42.9767 163.675 43.2941 163.33C43.6207 162.975 43.7841 162.509 43.7841 161.93C43.7841 161.286 43.6114 160.787 43.2661 160.432C42.9301 160.068 42.4681 159.886 41.8801 159.886C41.2921 159.886 40.8254 160.073 40.4801 160.446C40.1441 160.81 39.9761 161.291 39.9761 161.888C39.9761 162.457 40.1394 162.929 40.4661 163.302C40.8021 163.666 41.3061 163.848 41.9781 163.848ZM47.9528 169.098C47.6635 169.098 47.4208 169 47.2248 168.804C47.0288 168.608 46.9308 168.365 46.9308 168.076C46.9308 167.787 47.0288 167.544 47.2248 167.348C47.4208 167.152 47.6635 167.054 47.9528 167.054C48.2328 167.054 48.4708 167.152 48.6668 167.348C48.8628 167.544 48.9608 167.787 48.9608 168.076C48.9608 168.365 48.8628 168.608 48.6668 168.804C48.4708 169 48.2328 169.098 47.9528 169.098ZM47.9528 163.218C47.6635 163.218 47.4208 163.12 47.2248 162.924C47.0288 162.728 46.9308 162.485 46.9308 162.196C46.9308 161.907 47.0288 161.664 47.2248 161.468C47.4208 161.272 47.6635 161.174 47.9528 161.174C48.2328 161.174 48.4708 161.272 48.6668 161.468C48.8628 161.664 48.9608 161.907 48.9608 162.196C48.9608 162.485 48.8628 162.728 48.6668 162.924C48.4708 163.12 48.2328 163.218 47.9528 163.218ZM50.5304 163.764C50.5304 162.149 50.8011 160.889 51.3424 159.984C51.8931 159.069 52.8358 158.612 54.1704 158.612C55.5051 158.612 56.4431 159.069 56.9844 159.984C57.5351 160.889 57.8104 162.149 57.8104 163.764C57.8104 165.397 57.5351 166.676 56.9844 167.6C56.4431 168.515 55.5051 168.972 54.1704 168.972C52.8358 168.972 51.8931 168.515 51.3424 167.6C50.8011 166.676 50.5304 165.397 50.5304 163.764ZM56.2424 163.764C56.2424 163.008 56.1911 162.369 56.0884 161.846C55.9951 161.323 55.7991 160.899 55.5004 160.572C55.2018 160.236 54.7584 160.068 54.1704 160.068C53.5824 160.068 53.1391 160.236 52.8404 160.572C52.5418 160.899 52.3411 161.323 52.2384 161.846C52.1451 162.369 52.0984 163.008 52.0984 163.764C52.0984 164.548 52.1451 165.206 52.2384 165.738C52.3318 166.27 52.5278 166.699 52.8264 167.026C53.1344 167.353 53.5824 167.516 54.1704 167.516C54.7584 167.516 55.2018 167.353 55.5004 167.026C55.8084 166.699 56.0091 166.27 56.1024 165.738C56.1958 165.206 56.2424 164.548 56.2424 163.764ZM59.4992 163.764C59.4992 162.149 59.7698 160.889 60.3112 159.984C60.8618 159.069 61.8045 158.612 63.1392 158.612C64.4738 158.612 65.4118 159.069 65.9532 159.984C66.5038 160.889 66.7792 162.149 66.7792 163.764C66.7792 165.397 66.5038 166.676 65.9532 167.6C65.4118 168.515 64.4738 168.972 63.1392 168.972C61.8045 168.972 60.8618 168.515 60.3112 167.6C59.7698 166.676 59.4992 165.397 59.4992 163.764ZM65.2112 163.764C65.2112 163.008 65.1598 162.369 65.0572 161.846C64.9638 161.323 64.7678 160.899 64.4692 160.572C64.1705 160.236 63.7272 160.068 63.1392 160.068C62.5512 160.068 62.1078 160.236 61.8092 160.572C61.5105 160.899 61.3098 161.323 61.2072 161.846C61.1138 162.369 61.0672 163.008 61.0672 163.764C61.0672 164.548 61.1138 165.206 61.2072 165.738C61.3005 166.27 61.4965 166.699 61.7952 167.026C62.1032 167.353 62.5512 167.516 63.1392 167.516C63.7272 167.516 64.1705 167.353 64.4692 167.026C64.7772 166.699 64.9778 166.27 65.0712 165.738C65.1645 165.206 65.2112 164.548 65.2112 163.764Z" fill="white"/>
<path d="M35.0138 202.25V200.794H37.9258V211H36.3158V202.25H35.0138ZM40.1183 205.764C40.1183 204.149 40.389 202.889 40.9303 201.984C41.481 201.069 42.4237 200.612 43.7583 200.612C45.093 200.612 46.031 201.069 46.5723 201.984C47.123 202.889 47.3983 204.149 47.3983 205.764C47.3983 207.397 47.123 208.676 46.5723 209.6C46.031 210.515 45.093 210.972 43.7583 210.972C42.4237 210.972 41.481 210.515 40.9303 209.6C40.389 208.676 40.1183 207.397 40.1183 205.764ZM45.8303 205.764C45.8303 205.008 45.779 204.369 45.6763 203.846C45.583 203.323 45.387 202.899 45.0883 202.572C44.7897 202.236 44.3463 202.068 43.7583 202.068C43.1703 202.068 42.727 202.236 42.4283 202.572C42.1297 202.899 41.929 203.323 41.8263 203.846C41.733 204.369 41.6863 205.008 41.6863 205.764C41.6863 206.548 41.733 207.206 41.8263 207.738C41.9197 208.27 42.1157 208.699 42.4143 209.026C42.7223 209.353 43.1703 209.516 43.7583 209.516C44.3463 209.516 44.7897 209.353 45.0883 209.026C45.3963 208.699 45.597 208.27 45.6903 207.738C45.7837 207.206 45.8303 206.548 45.8303 205.764ZM49.9411 211.098C49.6517 211.098 49.4091 211 49.2131 210.804C49.0171 210.608 48.9191 210.365 48.9191 210.076C48.9191 209.787 49.0171 209.544 49.2131 209.348C49.4091 209.152 49.6517 209.054 49.9411 209.054C50.2211 209.054 50.4591 209.152 50.6551 209.348C50.8511 209.544 50.9491 209.787 50.9491 210.076C50.9491 210.365 50.8511 210.608 50.6551 210.804C50.4591 211 50.2211 211.098 49.9411 211.098ZM49.9411 205.218C49.6517 205.218 49.4091 205.12 49.2131 204.924C49.0171 204.728 48.9191 204.485 48.9191 204.196C48.9191 203.907 49.0171 203.664 49.2131 203.468C49.4091 203.272 49.6517 203.174 49.9411 203.174C50.2211 203.174 50.4591 203.272 50.6551 203.468C50.8511 203.664 50.9491 203.907 50.9491 204.196C50.9491 204.485 50.8511 204.728 50.6551 204.924C50.4591 205.12 50.2211 205.218 49.9411 205.218ZM52.5187 205.764C52.5187 204.149 52.7894 202.889 53.3307 201.984C53.8814 201.069 54.824 200.612 56.1587 200.612C57.4934 200.612 58.4314 201.069 58.9727 201.984C59.5234 202.889 59.7987 204.149 59.7987 205.764C59.7987 207.397 59.5234 208.676 58.9727 209.6C58.4314 210.515 57.4934 210.972 56.1587 210.972C54.824 210.972 53.8814 210.515 53.3307 209.6C52.7894 208.676 52.5187 207.397 52.5187 205.764ZM58.2307 205.764C58.2307 205.008 58.1794 204.369 58.0767 203.846C57.9834 203.323 57.7874 202.899 57.4887 202.572C57.19 202.236 56.7467 202.068 56.1587 202.068C55.5707 202.068 55.1274 202.236 54.8287 202.572C54.53 202.899 54.3294 203.323 54.2267 203.846C54.1334 204.369 54.0867 205.008 54.0867 205.764C54.0867 206.548 54.1334 207.206 54.2267 207.738C54.32 208.27 54.516 208.699 54.8147 209.026C55.1227 209.353 55.5707 209.516 56.1587 209.516C56.7467 209.516 57.19 209.353 57.4887 209.026C57.7967 208.699 57.9974 208.27 58.0907 207.738C58.184 207.206 58.2307 206.548 58.2307 205.764ZM61.4875 205.764C61.4875 204.149 61.7581 202.889 62.2995 201.984C62.8501 201.069 63.7928 200.612 65.1275 200.612C66.4621 200.612 67.4001 201.069 67.9415 201.984C68.4921 202.889 68.7675 204.149 68.7675 205.764C68.7675 207.397 68.4921 208.676 67.9415 209.6C67.4001 210.515 66.4621 210.972 65.1275 210.972C63.7928 210.972 62.8501 210.515 62.2995 209.6C61.7581 208.676 61.4875 207.397 61.4875 205.764ZM67.1995 205.764C67.1995 205.008 67.1481 204.369 67.0455 203.846C66.9521 203.323 66.7561 202.899 66.4575 202.572C66.1588 202.236 65.7155 202.068 65.1275 202.068C64.5395 202.068 64.0961 202.236 63.7975 202.572C63.4988 202.899 63.2981 203.323 63.1955 203.846C63.1021 204.369 63.0555 205.008 63.0555 205.764C63.0555 206.548 63.1021 207.206 63.1955 207.738C63.2888 208.27 63.4848 208.699 63.7835 209.026C64.0915 209.353 64.5395 209.516 65.1275 209.516C65.7155 209.516 66.1588 209.353 66.4575 209.026C66.7655 208.699 66.9661 208.27 67.0595 207.738C67.1528 207.206 67.1995 206.548 67.1995 205.764Z" fill="white"/>
<path d="M37.0509 244.25V242.794H39.9629V253H38.3529V244.25H37.0509ZM41.9454 244.25V242.794H44.8574V253H43.2474V244.25H41.9454ZM47.904 253.098C47.6146 253.098 47.372 253 47.176 252.804C46.98 252.608 46.882 252.365 46.882 252.076C46.882 251.787 46.98 251.544 47.176 251.348C47.372 251.152 47.6146 251.054 47.904 251.054C48.184 251.054 48.422 251.152 48.618 251.348C48.814 251.544 48.912 251.787 48.912 252.076C48.912 252.365 48.814 252.608 48.618 252.804C48.422 253 48.184 253.098 47.904 253.098ZM47.904 247.218C47.6146 247.218 47.372 247.12 47.176 246.924C46.98 246.728 46.882 246.485 46.882 246.196C46.882 245.907 46.98 245.664 47.176 245.468C47.372 245.272 47.6146 245.174 47.904 245.174C48.184 245.174 48.422 245.272 48.618 245.468C48.814 245.664 48.912 245.907 48.912 246.196C48.912 246.485 48.814 246.728 48.618 246.924C48.422 247.12 48.184 247.218 47.904 247.218ZM50.4816 247.764C50.4816 246.149 50.7523 244.889 51.2936 243.984C51.8443 243.069 52.7869 242.612 54.1216 242.612C55.4563 242.612 56.3943 243.069 56.9356 243.984C57.4863 244.889 57.7616 246.149 57.7616 247.764C57.7616 249.397 57.4863 250.676 56.9356 251.6C56.3943 252.515 55.4563 252.972 54.1216 252.972C52.7869 252.972 51.8443 252.515 51.2936 251.6C50.7523 250.676 50.4816 249.397 50.4816 247.764ZM56.1936 247.764C56.1936 247.008 56.1423 246.369 56.0396 245.846C55.9463 245.323 55.7503 244.899 55.4516 244.572C55.1529 244.236 54.7096 244.068 54.1216 244.068C53.5336 244.068 53.0903 244.236 52.7916 244.572C52.4929 244.899 52.2923 245.323 52.1896 245.846C52.0963 246.369 52.0496 247.008 52.0496 247.764C52.0496 248.548 52.0963 249.206 52.1896 249.738C52.2829 250.27 52.4789 250.699 52.7776 251.026C53.0856 251.353 53.5336 251.516 54.1216 251.516C54.7096 251.516 55.1529 251.353 55.4516 251.026C55.7596 250.699 55.9603 250.27 56.0536 249.738C56.1469 249.206 56.1936 248.548 56.1936 247.764ZM59.4504 247.764C59.4504 246.149 59.721 244.889 60.2624 243.984C60.813 243.069 61.7557 242.612 63.0904 242.612C64.425 242.612 65.363 243.069 65.9044 243.984C66.455 244.889 66.7304 246.149 66.7304 247.764C66.7304 249.397 66.455 250.676 65.9044 251.6C65.363 252.515 64.425 252.972 63.0904 252.972C61.7557 252.972 60.813 252.515 60.2624 251.6C59.721 250.676 59.4504 249.397 59.4504 247.764ZM65.1624 247.764C65.1624 247.008 65.111 246.369 65.0084 245.846C64.915 245.323 64.719 244.899 64.4204 244.572C64.1217 244.236 63.6784 244.068 63.0904 244.068C62.5024 244.068 62.059 244.236 61.7604 244.572C61.4617 244.899 61.261 245.323 61.1584 245.846C61.065 246.369 61.0184 247.008 61.0184 247.764C61.0184 248.548 61.065 249.206 61.1584 249.738C61.2517 250.27 61.4477 250.699 61.7464 251.026C62.0544 251.353 62.5024 251.516 63.0904 251.516C63.6784 251.516 64.1217 251.353 64.4204 251.026C64.7284 250.699 64.929 250.27 65.0224 249.738C65.1157 249.206 65.1624 248.548 65.1624 247.764Z" fill="white"/>
<path d="M35.9581 286.25V284.794H38.8701V295H37.2601V286.25H35.9581ZM41.9447 292.83C42.8407 292.055 43.5453 291.421 44.0587 290.926C44.5813 290.422 45.0153 289.899 45.3607 289.358C45.706 288.817 45.8787 288.275 45.8787 287.734C45.8787 287.174 45.7433 286.735 45.4727 286.418C45.2113 286.101 44.796 285.942 44.2267 285.942C43.676 285.942 43.2467 286.119 42.9387 286.474C42.64 286.819 42.4813 287.286 42.4627 287.874H40.9227C40.9507 286.81 41.268 285.998 41.8747 285.438C42.4907 284.869 43.27 284.584 44.2127 284.584C45.23 284.584 46.0233 284.864 46.5927 285.424C47.1713 285.984 47.4607 286.731 47.4607 287.664C47.4607 288.336 47.288 288.985 46.9427 289.61C46.6067 290.226 46.2007 290.781 45.7247 291.276C45.258 291.761 44.6607 292.326 43.9327 292.97L43.3027 293.53H47.7407V294.86H40.9367V293.698L41.9447 292.83ZM49.9967 295.098C49.7074 295.098 49.4647 295 49.2687 294.804C49.0727 294.608 48.9747 294.365 48.9747 294.076C48.9747 293.787 49.0727 293.544 49.2687 293.348C49.4647 293.152 49.7074 293.054 49.9967 293.054C50.2767 293.054 50.5147 293.152 50.7107 293.348C50.9067 293.544 51.0047 293.787 51.0047 294.076C51.0047 294.365 50.9067 294.608 50.7107 294.804C50.5147 295 50.2767 295.098 49.9967 295.098ZM49.9967 289.218C49.7074 289.218 49.4647 289.12 49.2687 288.924C49.0727 288.728 48.9747 288.485 48.9747 288.196C48.9747 287.907 49.0727 287.664 49.2687 287.468C49.4647 287.272 49.7074 287.174 49.9967 287.174C50.2767 287.174 50.5147 287.272 50.7107 287.468C50.9067 287.664 51.0047 287.907 51.0047 288.196C51.0047 288.485 50.9067 288.728 50.7107 288.924C50.5147 289.12 50.2767 289.218 49.9967 289.218ZM52.5744 289.764C52.5744 288.149 52.845 286.889 53.3864 285.984C53.937 285.069 54.8797 284.612 56.2144 284.612C57.549 284.612 58.487 285.069 59.0284 285.984C59.579 286.889 59.8544 288.149 59.8544 289.764C59.8544 291.397 59.579 292.676 59.0284 293.6C58.487 294.515 57.549 294.972 56.2144 294.972C54.8797 294.972 53.937 294.515 53.3864 293.6C52.845 292.676 52.5744 291.397 52.5744 289.764ZM58.2864 289.764C58.2864 289.008 58.235 288.369 58.1324 287.846C58.039 287.323 57.843 286.899 57.5444 286.572C57.2457 286.236 56.8024 286.068 56.2144 286.068C55.6264 286.068 55.183 286.236 54.8844 286.572C54.5857 286.899 54.385 287.323 54.2824 287.846C54.189 288.369 54.1424 289.008 54.1424 289.764C54.1424 290.548 54.189 291.206 54.2824 291.738C54.3757 292.27 54.5717 292.699 54.8704 293.026C55.1784 293.353 55.6264 293.516 56.2144 293.516C56.8024 293.516 57.2457 293.353 57.5444 293.026C57.8524 292.699 58.053 292.27 58.1464 291.738C58.2397 291.206 58.2864 290.548 58.2864 289.764ZM61.5431 289.764C61.5431 288.149 61.8138 286.889 62.3551 285.984C62.9058 285.069 63.8485 284.612 65.1831 284.612C66.5178 284.612 67.4558 285.069 67.9971 285.984C68.5478 286.889 68.8231 288.149 68.8231 289.764C68.8231 291.397 68.5478 292.676 67.9971 293.6C67.4558 294.515 66.5178 294.972 65.1831 294.972C63.8485 294.972 62.9058 294.515 62.3551 293.6C61.8138 292.676 61.5431 291.397 61.5431 289.764ZM67.2551 289.764C67.2551 289.008 67.2038 288.369 67.1011 287.846C67.0078 287.323 66.8118 286.899 66.5131 286.572C66.2145 286.236 65.7711 286.068 65.1831 286.068C64.5951 286.068 64.1518 286.236 63.8531 286.572C63.5545 286.899 63.3538 287.323 63.2511 287.846C63.1578 288.369 63.1111 289.008 63.1111 289.764C63.1111 290.548 63.1578 291.206 63.2511 291.738C63.3445 292.27 63.5405 292.699 63.8391 293.026C64.1471 293.353 64.5951 293.516 65.1831 293.516C65.7711 293.516 66.2145 293.353 66.5131 293.026C66.8211 292.699 67.0218 292.27 67.1151 291.738C67.2085 291.206 67.2551 290.548 67.2551 289.764Z" fill="white"/>
<path d="M35.8419 328.25V326.794H38.7539V337H37.1439V328.25H35.8419ZM40.9184 329.314C40.9744 328.446 41.3058 327.769 41.9124 327.284C42.5284 326.799 43.3124 326.556 44.2644 326.556C44.9178 326.556 45.4824 326.673 45.9584 326.906C46.4344 327.139 46.7938 327.457 47.0364 327.858C47.2791 328.259 47.4004 328.712 47.4004 329.216C47.4004 329.795 47.2464 330.289 46.9384 330.7C46.6304 331.111 46.2618 331.386 45.8324 331.526V331.582C46.3831 331.75 46.8124 332.058 47.1204 332.506C47.4284 332.945 47.5824 333.509 47.5824 334.2C47.5824 334.751 47.4564 335.241 47.2044 335.67C46.9524 336.099 46.5791 336.44 46.0844 336.692C45.5898 336.935 44.9971 337.056 44.3064 337.056C43.2984 337.056 42.4678 336.799 41.8144 336.286C41.1704 335.763 40.8251 335.017 40.7784 334.046H42.3184C42.3558 334.541 42.5471 334.947 42.8924 335.264C43.2378 335.572 43.7044 335.726 44.2924 335.726C44.8618 335.726 45.3004 335.572 45.6084 335.264C45.9164 334.947 46.0704 334.541 46.0704 334.046C46.0704 333.393 45.8604 332.931 45.4404 332.66C45.0298 332.38 44.3951 332.24 43.5364 332.24H43.1724V330.924H43.5504C44.3064 330.915 44.8804 330.789 45.2724 330.546C45.6738 330.303 45.8744 329.921 45.8744 329.398C45.8744 328.95 45.7298 328.595 45.4404 328.334C45.1511 328.063 44.7404 327.928 44.2084 327.928C43.6858 327.928 43.2798 328.063 42.9904 328.334C42.7011 328.595 42.5284 328.922 42.4724 329.314H40.9184ZM50.1129 337.098C49.8236 337.098 49.5809 337 49.3849 336.804C49.1889 336.608 49.0909 336.365 49.0909 336.076C49.0909 335.787 49.1889 335.544 49.3849 335.348C49.5809 335.152 49.8236 335.054 50.1129 335.054C50.3929 335.054 50.6309 335.152 50.8269 335.348C51.0229 335.544 51.1209 335.787 51.1209 336.076C51.1209 336.365 51.0229 336.608 50.8269 336.804C50.6309 337 50.3929 337.098 50.1129 337.098ZM50.1129 331.218C49.8236 331.218 49.5809 331.12 49.3849 330.924C49.1889 330.728 49.0909 330.485 49.0909 330.196C49.0909 329.907 49.1889 329.664 49.3849 329.468C49.5809 329.272 49.8236 329.174 50.1129 329.174C50.3929 329.174 50.6309 329.272 50.8269 329.468C51.0229 329.664 51.1209 329.907 51.1209 330.196C51.1209 330.485 51.0229 330.728 50.8269 330.924C50.6309 331.12 50.3929 331.218 50.1129 331.218ZM52.6906 331.764C52.6906 330.149 52.9613 328.889 53.5026 327.984C54.0533 327.069 54.9959 326.612 56.3306 326.612C57.6653 326.612 58.6033 327.069 59.1446 327.984C59.6953 328.889 59.9706 330.149 59.9706 331.764C59.9706 333.397 59.6953 334.676 59.1446 335.6C58.6033 336.515 57.6653 336.972 56.3306 336.972C54.9959 336.972 54.0533 336.515 53.5026 335.6C52.9613 334.676 52.6906 333.397 52.6906 331.764ZM58.4026 331.764C58.4026 331.008 58.3513 330.369 58.2486 329.846C58.1553 329.323 57.9593 328.899 57.6606 328.572C57.3619 328.236 56.9186 328.068 56.3306 328.068C55.7426 328.068 55.2993 328.236 55.0006 328.572C54.7019 328.899 54.5013 329.323 54.3986 329.846C54.3053 330.369 54.2586 331.008 54.2586 331.764C54.2586 332.548 54.3053 333.206 54.3986 333.738C54.4919 334.27 54.6879 334.699 54.9866 335.026C55.2946 335.353 55.7426 335.516 56.3306 335.516C56.9186 335.516 57.3619 335.353 57.6606 335.026C57.9686 334.699 58.1693 334.27 58.2626 333.738C58.3559 333.206 58.4026 332.548 58.4026 331.764ZM61.6593 331.764C61.6593 330.149 61.93 328.889 62.4713 327.984C63.022 327.069 63.9647 326.612 65.2993 326.612C66.634 326.612 67.572 327.069 68.1133 327.984C68.664 328.889 68.9393 330.149 68.9393 331.764C68.9393 333.397 68.664 334.676 68.1133 335.6C67.572 336.515 66.634 336.972 65.2993 336.972C63.9647 336.972 63.022 336.515 62.4713 335.6C61.93 334.676 61.6593 333.397 61.6593 331.764ZM67.3713 331.764C67.3713 331.008 67.32 330.369 67.2173 329.846C67.124 329.323 66.928 328.899 66.6293 328.572C66.3307 328.236 65.8873 328.068 65.2993 328.068C64.7113 328.068 64.268 328.236 63.9693 328.572C63.6707 328.899 63.47 329.323 63.3673 329.846C63.274 330.369 63.2273 331.008 63.2273 331.764C63.2273 332.548 63.274 333.206 63.3673 333.738C63.4607 334.27 63.6567 334.699 63.9553 335.026C64.2633 335.353 64.7113 335.516 65.2993 335.516C65.8873 335.516 66.3307 335.353 66.6293 335.026C66.9373 334.699 67.138 334.27 67.2313 333.738C67.3247 333.206 67.3713 332.548 67.3713 331.764Z" fill="white"/>
<path d="M34.9659 370.25V368.794H37.8779V379H36.2679V370.25H34.9659ZM39.8745 376.872V375.668L44.5785 368.92H46.5105V375.486H47.8125V376.872H46.5105V379H44.9425V376.872H39.8745ZM45.0125 370.544L41.7085 375.486H45.0125V370.544ZM49.9889 379.098C49.6996 379.098 49.4569 379 49.2609 378.804C49.0649 378.608 48.9669 378.365 48.9669 378.076C48.9669 377.787 49.0649 377.544 49.2609 377.348C49.4569 377.152 49.6996 377.054 49.9889 377.054C50.2689 377.054 50.5069 377.152 50.7029 377.348C50.8989 377.544 50.9969 377.787 50.9969 378.076C50.9969 378.365 50.8989 378.608 50.7029 378.804C50.5069 379 50.2689 379.098 49.9889 379.098ZM49.9889 373.218C49.6996 373.218 49.4569 373.12 49.2609 372.924C49.0649 372.728 48.9669 372.485 48.9669 372.196C48.9669 371.907 49.0649 371.664 49.2609 371.468C49.4569 371.272 49.6996 371.174 49.9889 371.174C50.2689 371.174 50.5069 371.272 50.7029 371.468C50.8989 371.664 50.9969 371.907 50.9969 372.196C50.9969 372.485 50.8989 372.728 50.7029 372.924C50.5069 373.12 50.2689 373.218 49.9889 373.218ZM52.5666 373.764C52.5666 372.149 52.8372 370.889 53.3786 369.984C53.9292 369.069 54.8719 368.612 56.2066 368.612C57.5412 368.612 58.4792 369.069 59.0206 369.984C59.5712 370.889 59.8466 372.149 59.8466 373.764C59.8466 375.397 59.5712 376.676 59.0206 377.6C58.4792 378.515 57.5412 378.972 56.2066 378.972C54.8719 378.972 53.9292 378.515 53.3786 377.6C52.8372 376.676 52.5666 375.397 52.5666 373.764ZM58.2786 373.764C58.2786 373.008 58.2272 372.369 58.1246 371.846C58.0312 371.323 57.8352 370.899 57.5366 370.572C57.2379 370.236 56.7946 370.068 56.2066 370.068C55.6186 370.068 55.1752 370.236 54.8766 370.572C54.5779 370.899 54.3772 371.323 54.2746 371.846C54.1812 372.369 54.1346 373.008 54.1346 373.764C54.1346 374.548 54.1812 375.206 54.2746 375.738C54.3679 376.27 54.5639 376.699 54.8626 377.026C55.1706 377.353 55.6186 377.516 56.2066 377.516C56.7946 377.516 57.2379 377.353 57.5366 377.026C57.8446 376.699 58.0452 376.27 58.1386 375.738C58.2319 375.206 58.2786 374.548 58.2786 373.764ZM61.5353 373.764C61.5353 372.149 61.806 370.889 62.3473 369.984C62.898 369.069 63.8406 368.612 65.1753 368.612C66.51 368.612 67.448 369.069 67.9893 369.984C68.54 370.889 68.8153 372.149 68.8153 373.764C68.8153 375.397 68.54 376.676 67.9893 377.6C67.448 378.515 66.51 378.972 65.1753 378.972C63.8406 378.972 62.898 378.515 62.3473 377.6C61.806 376.676 61.5353 375.397 61.5353 373.764ZM67.2473 373.764C67.2473 373.008 67.196 372.369 67.0933 371.846C67 371.323 66.804 370.899 66.5053 370.572C66.2066 370.236 65.7633 370.068 65.1753 370.068C64.5873 370.068 64.144 370.236 63.8453 370.572C63.5466 370.899 63.346 371.323 63.2433 371.846C63.15 372.369 63.1033 373.008 63.1033 373.764C63.1033 374.548 63.15 375.206 63.2433 375.738C63.3366 376.27 63.5326 376.699 63.8313 377.026C64.1393 377.353 64.5873 377.516 65.1753 377.516C65.7633 377.516 66.2066 377.353 66.5053 377.026C66.8133 376.699 67.014 376.27 67.1073 375.738C67.2006 375.206 67.2473 374.548 67.2473 373.764Z" fill="white"/>
<path d="M35.0275 412.25V410.794H37.9395V421H36.3295V412.25H35.0275ZM46.712 412.166H42.022V414.952C42.218 414.691 42.5073 414.471 42.89 414.294C43.282 414.117 43.6973 414.028 44.136 414.028C44.92 414.028 45.5547 414.196 46.04 414.532C46.5347 414.868 46.8847 415.293 47.09 415.806C47.3047 416.319 47.412 416.861 47.412 417.43C47.412 418.121 47.2767 418.737 47.006 419.278C46.7447 419.81 46.348 420.23 45.816 420.538C45.2933 420.846 44.6493 421 43.884 421C42.8667 421 42.05 420.748 41.434 420.244C40.818 419.74 40.4493 419.073 40.328 418.242H41.882C41.9847 418.681 42.2133 419.031 42.568 419.292C42.9227 419.544 43.366 419.67 43.898 419.67C44.5607 419.67 45.0553 419.469 45.382 419.068C45.718 418.667 45.886 418.135 45.886 417.472C45.886 416.8 45.718 416.287 45.382 415.932C45.046 415.568 44.5513 415.386 43.898 415.386C43.4407 415.386 43.0533 415.503 42.736 415.736C42.428 415.96 42.204 416.268 42.064 416.66H40.552V410.766H46.712V412.166ZM49.9274 421.098C49.6381 421.098 49.3954 421 49.1994 420.804C49.0034 420.608 48.9054 420.365 48.9054 420.076C48.9054 419.787 49.0034 419.544 49.1994 419.348C49.3954 419.152 49.6381 419.054 49.9274 419.054C50.2074 419.054 50.4454 419.152 50.6414 419.348C50.8374 419.544 50.9354 419.787 50.9354 420.076C50.9354 420.365 50.8374 420.608 50.6414 420.804C50.4454 421 50.2074 421.098 49.9274 421.098ZM49.9274 415.218C49.6381 415.218 49.3954 415.12 49.1994 414.924C49.0034 414.728 48.9054 414.485 48.9054 414.196C48.9054 413.907 49.0034 413.664 49.1994 413.468C49.3954 413.272 49.6381 413.174 49.9274 413.174C50.2074 413.174 50.4454 413.272 50.6414 413.468C50.8374 413.664 50.9354 413.907 50.9354 414.196C50.9354 414.485 50.8374 414.728 50.6414 414.924C50.4454 415.12 50.2074 415.218 49.9274 415.218ZM52.505 415.764C52.505 414.149 52.7757 412.889 53.317 411.984C53.8677 411.069 54.8104 410.612 56.145 410.612C57.4797 410.612 58.4177 411.069 58.959 411.984C59.5097 412.889 59.785 414.149 59.785 415.764C59.785 417.397 59.5097 418.676 58.959 419.6C58.4177 420.515 57.4797 420.972 56.145 420.972C54.8104 420.972 53.8677 420.515 53.317 419.6C52.7757 418.676 52.505 417.397 52.505 415.764ZM58.217 415.764C58.217 415.008 58.1657 414.369 58.063 413.846C57.9697 413.323 57.7737 412.899 57.475 412.572C57.1764 412.236 56.733 412.068 56.145 412.068C55.557 412.068 55.1137 412.236 54.815 412.572C54.5164 412.899 54.3157 413.323 54.213 413.846C54.1197 414.369 54.073 415.008 54.073 415.764C54.073 416.548 54.1197 417.206 54.213 417.738C54.3064 418.27 54.5024 418.699 54.801 419.026C55.109 419.353 55.557 419.516 56.145 419.516C56.733 419.516 57.1764 419.353 57.475 419.026C57.783 418.699 57.9837 418.27 58.077 417.738C58.1704 417.206 58.217 416.548 58.217 415.764ZM61.4738 415.764C61.4738 414.149 61.7445 412.889 62.2858 411.984C62.8365 411.069 63.7791 410.612 65.1138 410.612C66.4485 410.612 67.3865 411.069 67.9278 411.984C68.4785 412.889 68.7538 414.149 68.7538 415.764C68.7538 417.397 68.4785 418.676 67.9278 419.6C67.3865 420.515 66.4485 420.972 65.1138 420.972C63.7791 420.972 62.8365 420.515 62.2858 419.6C61.7445 418.676 61.4738 417.397 61.4738 415.764ZM67.1858 415.764C67.1858 415.008 67.1345 414.369 67.0318 413.846C66.9385 413.323 66.7425 412.899 66.4438 412.572C66.1451 412.236 65.7018 412.068 65.1138 412.068C64.5258 412.068 64.0825 412.236 63.7838 412.572C63.4851 412.899 63.2845 413.323 63.1818 413.846C63.0885 414.369 63.0418 415.008 63.0418 415.764C63.0418 416.548 63.0885 417.206 63.1818 417.738C63.2751 418.27 63.4711 418.699 63.7698 419.026C64.0778 419.353 64.5258 419.516 65.1138 419.516C65.7018 419.516 66.1451 419.353 66.4438 419.026C66.7518 418.699 66.9525 418.27 67.0458 417.738C67.1391 417.206 67.1858 416.548 67.1858 415.764Z" fill="white"/>
<path d="M35.007 454.25V452.794H37.919V463H36.309V454.25H35.007ZM45.5995 455.16C45.4968 454.731 45.3102 454.409 45.0395 454.194C44.7688 453.979 44.3908 453.872 43.9055 453.872C43.1682 453.872 42.6175 454.157 42.2535 454.726C41.8895 455.286 41.6982 456.219 41.6795 457.526C41.9222 457.115 42.2768 456.798 42.7435 456.574C43.2102 456.35 43.7142 456.238 44.2555 456.238C44.8715 456.238 45.4128 456.373 45.8795 456.644C46.3555 456.905 46.7242 457.288 46.9855 457.792C47.2562 458.296 47.3915 458.898 47.3915 459.598C47.3915 460.251 47.2608 460.835 46.9995 461.348C46.7475 461.861 46.3695 462.267 45.8655 462.566C45.3615 462.855 44.7548 463 44.0455 463C43.0842 463 42.3282 462.79 41.7775 462.37C41.2362 461.941 40.8535 461.339 40.6295 460.564C40.4148 459.789 40.3075 458.823 40.3075 457.666C40.3075 454.25 41.5115 452.542 43.9195 452.542C44.8528 452.542 45.5855 452.794 46.1175 453.298C46.6588 453.802 46.9762 454.423 47.0695 455.16H45.5995ZM43.9055 457.582C43.3362 457.582 42.8508 457.755 42.4495 458.1C42.0575 458.436 41.8615 458.926 41.8615 459.57C41.8615 460.214 42.0435 460.727 42.4075 461.11C42.7808 461.483 43.2988 461.67 43.9615 461.67C44.5495 461.67 45.0115 461.488 45.3475 461.124C45.6928 460.76 45.8655 460.275 45.8655 459.668C45.8655 459.033 45.6975 458.529 45.3615 458.156C45.0348 457.773 44.5495 457.582 43.9055 457.582ZM49.9479 463.098C49.6586 463.098 49.4159 463 49.2199 462.804C49.0239 462.608 48.9259 462.365 48.9259 462.076C48.9259 461.787 49.0239 461.544 49.2199 461.348C49.4159 461.152 49.6586 461.054 49.9479 461.054C50.2279 461.054 50.4659 461.152 50.6619 461.348C50.8579 461.544 50.9559 461.787 50.9559 462.076C50.9559 462.365 50.8579 462.608 50.6619 462.804C50.4659 463 50.2279 463.098 49.9479 463.098ZM49.9479 457.218C49.6586 457.218 49.4159 457.12 49.2199 456.924C49.0239 456.728 48.9259 456.485 48.9259 456.196C48.9259 455.907 49.0239 455.664 49.2199 455.468C49.4159 455.272 49.6586 455.174 49.9479 455.174C50.2279 455.174 50.4659 455.272 50.6619 455.468C50.8579 455.664 50.9559 455.907 50.9559 456.196C50.9559 456.485 50.8579 456.728 50.6619 456.924C50.4659 457.12 50.2279 457.218 49.9479 457.218ZM52.5255 457.764C52.5255 456.149 52.7962 454.889 53.3375 453.984C53.8882 453.069 54.8309 452.612 56.1655 452.612C57.5002 452.612 58.4382 453.069 58.9795 453.984C59.5302 454.889 59.8055 456.149 59.8055 457.764C59.8055 459.397 59.5302 460.676 58.9795 461.6C58.4382 462.515 57.5002 462.972 56.1655 462.972C54.8309 462.972 53.8882 462.515 53.3375 461.6C52.7962 460.676 52.5255 459.397 52.5255 457.764ZM58.2375 457.764C58.2375 457.008 58.1862 456.369 58.0835 455.846C57.9902 455.323 57.7942 454.899 57.4955 454.572C57.1969 454.236 56.7535 454.068 56.1655 454.068C55.5775 454.068 55.1342 454.236 54.8355 454.572C54.5369 454.899 54.3362 455.323 54.2335 455.846C54.1402 456.369 54.0935 457.008 54.0935 457.764C54.0935 458.548 54.1402 459.206 54.2335 459.738C54.3269 460.27 54.5229 460.699 54.8215 461.026C55.1295 461.353 55.5775 461.516 56.1655 461.516C56.7535 461.516 57.1969 461.353 57.4955 461.026C57.8035 460.699 58.0042 460.27 58.0975 459.738C58.1909 459.206 58.2375 458.548 58.2375 457.764ZM61.4943 457.764C61.4943 456.149 61.765 454.889 62.3063 453.984C62.857 453.069 63.7996 452.612 65.1343 452.612C66.469 452.612 67.407 453.069 67.9483 453.984C68.499 454.889 68.7743 456.149 68.7743 457.764C68.7743 459.397 68.499 460.676 67.9483 461.6C67.407 462.515 66.469 462.972 65.1343 462.972C63.7996 462.972 62.857 462.515 62.3063 461.6C61.765 460.676 61.4943 459.397 61.4943 457.764ZM67.2063 457.764C67.2063 457.008 67.155 456.369 67.0523 455.846C66.959 455.323 66.763 454.899 66.4643 454.572C66.1656 454.236 65.7223 454.068 65.1343 454.068C64.5463 454.068 64.103 454.236 63.8043 454.572C63.5056 454.899 63.305 455.323 63.2023 455.846C63.109 456.369 63.0623 457.008 63.0623 457.764C63.0623 458.548 63.109 459.206 63.2023 459.738C63.2956 460.27 63.4916 460.699 63.7903 461.026C64.0983 461.353 64.5463 461.516 65.1343 461.516C65.7223 461.516 66.1656 461.353 66.4643 461.026C66.7723 460.699 66.973 460.27 67.0663 459.738C67.1596 459.206 67.2063 458.548 67.2063 457.764Z" fill="white"/>
<path d="M36.0812 496.25V494.794H38.9932V505H37.3832V496.25H36.0812ZM47.6537 496.026L43.7617 505H42.1517L46.0857 496.194H40.9057V494.836H47.6537V496.026ZM49.8737 505.098C49.5844 505.098 49.3417 505 49.1457 504.804C48.9497 504.608 48.8517 504.365 48.8517 504.076C48.8517 503.787 48.9497 503.544 49.1457 503.348C49.3417 503.152 49.5844 503.054 49.8737 503.054C50.1537 503.054 50.3917 503.152 50.5877 503.348C50.7837 503.544 50.8817 503.787 50.8817 504.076C50.8817 504.365 50.7837 504.608 50.5877 504.804C50.3917 505 50.1537 505.098 49.8737 505.098ZM49.8737 499.218C49.5844 499.218 49.3417 499.12 49.1457 498.924C48.9497 498.728 48.8517 498.485 48.8517 498.196C48.8517 497.907 48.9497 497.664 49.1457 497.468C49.3417 497.272 49.5844 497.174 49.8737 497.174C50.1537 497.174 50.3917 497.272 50.5877 497.468C50.7837 497.664 50.8817 497.907 50.8817 498.196C50.8817 498.485 50.7837 498.728 50.5877 498.924C50.3917 499.12 50.1537 499.218 49.8737 499.218ZM52.4513 499.764C52.4513 498.149 52.722 496.889 53.2633 495.984C53.814 495.069 54.7567 494.612 56.0913 494.612C57.426 494.612 58.364 495.069 58.9053 495.984C59.456 496.889 59.7313 498.149 59.7313 499.764C59.7313 501.397 59.456 502.676 58.9053 503.6C58.364 504.515 57.426 504.972 56.0913 504.972C54.7567 504.972 53.814 504.515 53.2633 503.6C52.722 502.676 52.4513 501.397 52.4513 499.764ZM58.1633 499.764C58.1633 499.008 58.112 498.369 58.0093 497.846C57.916 497.323 57.72 496.899 57.4213 496.572C57.1227 496.236 56.6793 496.068 56.0913 496.068C55.5033 496.068 55.06 496.236 54.7613 496.572C54.4627 496.899 54.262 497.323 54.1593 497.846C54.066 498.369 54.0193 499.008 54.0193 499.764C54.0193 500.548 54.066 501.206 54.1593 501.738C54.2527 502.27 54.4487 502.699 54.7473 503.026C55.0553 503.353 55.5033 503.516 56.0913 503.516C56.6793 503.516 57.1227 503.353 57.4213 503.026C57.7293 502.699 57.93 502.27 58.0233 501.738C58.1167 501.206 58.1633 500.548 58.1633 499.764ZM61.4201 499.764C61.4201 498.149 61.6907 496.889 62.2321 495.984C62.7827 495.069 63.7254 494.612 65.0601 494.612C66.3947 494.612 67.3327 495.069 67.8741 495.984C68.4247 496.889 68.7001 498.149 68.7001 499.764C68.7001 501.397 68.4247 502.676 67.8741 503.6C67.3327 504.515 66.3947 504.972 65.0601 504.972C63.7254 504.972 62.7827 504.515 62.2321 503.6C61.6907 502.676 61.4201 501.397 61.4201 499.764ZM67.1321 499.764C67.1321 499.008 67.0807 498.369 66.9781 497.846C66.8847 497.323 66.6887 496.899 66.3901 496.572C66.0914 496.236 65.6481 496.068 65.0601 496.068C64.4721 496.068 64.0287 496.236 63.7301 496.572C63.4314 496.899 63.2307 497.323 63.1281 497.846C63.0347 498.369 62.9881 499.008 62.9881 499.764C62.9881 500.548 63.0347 501.206 63.1281 501.738C63.2214 502.27 63.4174 502.699 63.7161 503.026C64.0241 503.353 64.4721 503.516 65.0601 503.516C65.6481 503.516 66.0914 503.353 66.3901 503.026C66.6981 502.699 66.8987 502.27 66.9921 501.738C67.0854 501.206 67.1321 500.548 67.1321 499.764Z" fill="white"/>
<path d="M35.0343 538.25V536.794H37.9463V547H36.3363V538.25H35.0343ZM41.8608 541.666C40.8902 541.181 40.4048 540.415 40.4048 539.37C40.4048 538.866 40.5308 538.404 40.7828 537.984C41.0348 537.564 41.4128 537.233 41.9168 536.99C42.4208 536.738 43.0368 536.612 43.7648 536.612C44.4835 536.612 45.0948 536.738 45.5988 536.99C46.1122 537.233 46.4948 537.564 46.7468 537.984C46.9988 538.404 47.1248 538.866 47.1248 539.37C47.1248 539.893 46.9895 540.355 46.7188 540.756C46.4575 541.148 46.1075 541.451 45.6688 541.666C46.2008 541.862 46.6208 542.184 46.9288 542.632C47.2368 543.071 47.3908 543.589 47.3908 544.186C47.3908 544.793 47.2368 545.329 46.9288 545.796C46.6208 546.263 46.1915 546.622 45.6408 546.874C45.0902 547.126 44.4648 547.252 43.7648 547.252C43.0648 547.252 42.4395 547.126 41.8888 546.874C41.3475 546.622 40.9228 546.263 40.6148 545.796C40.3068 545.329 40.1528 544.793 40.1528 544.186C40.1528 543.579 40.3068 543.057 40.6148 542.618C40.9228 542.179 41.3382 541.862 41.8608 541.666ZM45.5988 539.566C45.5988 539.043 45.4355 538.642 45.1088 538.362C44.7822 538.082 44.3342 537.942 43.7648 537.942C43.2048 537.942 42.7615 538.082 42.4348 538.362C42.1082 538.642 41.9448 539.048 41.9448 539.58C41.9448 540.047 42.1128 540.429 42.4488 540.728C42.7942 541.017 43.2328 541.162 43.7648 541.162C44.2968 541.162 44.7355 541.013 45.0808 540.714C45.4262 540.415 45.5988 540.033 45.5988 539.566ZM43.7648 542.366C43.1488 542.366 42.6448 542.52 42.2528 542.828C41.8702 543.127 41.6788 543.561 41.6788 544.13C41.6788 544.662 41.8655 545.096 42.2388 545.432C42.6122 545.759 43.1208 545.922 43.7648 545.922C44.3995 545.922 44.8988 545.754 45.2628 545.418C45.6362 545.082 45.8228 544.653 45.8228 544.13C45.8228 543.57 45.6315 543.136 45.2488 542.828C44.8755 542.52 44.3808 542.366 43.7648 542.366ZM49.9206 547.098C49.6312 547.098 49.3886 547 49.1926 546.804C48.9966 546.608 48.8986 546.365 48.8986 546.076C48.8986 545.787 48.9966 545.544 49.1926 545.348C49.3886 545.152 49.6312 545.054 49.9206 545.054C50.2006 545.054 50.4386 545.152 50.6346 545.348C50.8306 545.544 50.9286 545.787 50.9286 546.076C50.9286 546.365 50.8306 546.608 50.6346 546.804C50.4386 547 50.2006 547.098 49.9206 547.098ZM49.9206 541.218C49.6312 541.218 49.3886 541.12 49.1926 540.924C48.9966 540.728 48.8986 540.485 48.8986 540.196C48.8986 539.907 48.9966 539.664 49.1926 539.468C49.3886 539.272 49.6312 539.174 49.9206 539.174C50.2006 539.174 50.4386 539.272 50.6346 539.468C50.8306 539.664 50.9286 539.907 50.9286 540.196C50.9286 540.485 50.8306 540.728 50.6346 540.924C50.4386 541.12 50.2006 541.218 49.9206 541.218ZM52.4982 541.764C52.4982 540.149 52.7689 538.889 53.3102 537.984C53.8609 537.069 54.8035 536.612 56.1382 536.612C57.4729 536.612 58.4109 537.069 58.9522 537.984C59.5029 538.889 59.7782 540.149 59.7782 541.764C59.7782 543.397 59.5029 544.676 58.9522 545.6C58.4109 546.515 57.4729 546.972 56.1382 546.972C54.8035 546.972 53.8609 546.515 53.3102 545.6C52.7689 544.676 52.4982 543.397 52.4982 541.764ZM58.2102 541.764C58.2102 541.008 58.1589 540.369 58.0562 539.846C57.9629 539.323 57.7669 538.899 57.4682 538.572C57.1695 538.236 56.7262 538.068 56.1382 538.068C55.5502 538.068 55.1069 538.236 54.8082 538.572C54.5095 538.899 54.3089 539.323 54.2062 539.846C54.1129 540.369 54.0662 541.008 54.0662 541.764C54.0662 542.548 54.1129 543.206 54.2062 543.738C54.2995 544.27 54.4955 544.699 54.7942 545.026C55.1022 545.353 55.5502 545.516 56.1382 545.516C56.7262 545.516 57.1695 545.353 57.4682 545.026C57.7762 544.699 57.9769 544.27 58.0702 543.738C58.1635 543.206 58.2102 542.548 58.2102 541.764ZM61.467 541.764C61.467 540.149 61.7376 538.889 62.279 537.984C62.8296 537.069 63.7723 536.612 65.107 536.612C66.4416 536.612 67.3796 537.069 67.921 537.984C68.4716 538.889 68.747 540.149 68.747 541.764C68.747 543.397 68.4716 544.676 67.921 545.6C67.3796 546.515 66.4416 546.972 65.107 546.972C63.7723 546.972 62.8296 546.515 62.279 545.6C61.7376 544.676 61.467 543.397 61.467 541.764ZM67.179 541.764C67.179 541.008 67.1276 540.369 67.025 539.846C66.9316 539.323 66.7356 538.899 66.437 538.572C66.1383 538.236 65.695 538.068 65.107 538.068C64.519 538.068 64.0756 538.236 63.777 538.572C63.4783 538.899 63.2776 539.323 63.175 539.846C63.0816 540.369 63.035 541.008 63.035 541.764C63.035 542.548 63.0816 543.206 63.175 543.738C63.2683 544.27 63.4643 544.699 63.763 545.026C64.071 545.353 64.519 545.516 65.107 545.516C65.695 545.516 66.1383 545.353 66.437 545.026C66.745 544.699 66.9456 544.27 67.039 543.738C67.1323 543.206 67.179 542.548 67.179 541.764Z" fill="white"/>
<path d="M35.0548 580.25V578.794H37.9668V589H36.3568V580.25H35.0548ZM42.1473 586.228C42.2407 586.695 42.4413 587.049 42.7493 587.292C43.0573 587.535 43.4727 587.656 43.9953 587.656C44.658 587.656 45.1433 587.395 45.4513 586.872C45.7593 586.349 45.9133 585.458 45.9133 584.198C45.6893 584.515 45.372 584.763 44.9613 584.94C44.56 585.108 44.1213 585.192 43.6453 585.192C43.0387 585.192 42.488 585.071 41.9933 584.828C41.4987 584.576 41.1067 584.207 40.8173 583.722C40.5373 583.227 40.3973 582.63 40.3973 581.93C40.3973 580.903 40.696 580.087 41.2933 579.48C41.9 578.864 42.7307 578.556 43.7853 578.556C45.0547 578.556 45.9553 578.981 46.4873 579.83C47.0287 580.67 47.2993 581.963 47.2993 583.708C47.2993 584.912 47.1967 585.897 46.9913 586.662C46.7953 587.427 46.45 588.006 45.9553 588.398C45.4607 588.79 44.7747 588.986 43.8973 588.986C42.8987 588.986 42.1287 588.725 41.5873 588.202C41.046 587.679 40.7427 587.021 40.6773 586.228H42.1473ZM43.9253 583.848C44.4853 583.848 44.924 583.675 45.2413 583.33C45.568 582.975 45.7313 582.509 45.7313 581.93C45.7313 581.286 45.5587 580.787 45.2133 580.432C44.8773 580.068 44.4153 579.886 43.8273 579.886C43.2393 579.886 42.7727 580.073 42.4273 580.446C42.0913 580.81 41.9233 581.291 41.9233 581.888C41.9233 582.457 42.0867 582.929 42.4133 583.302C42.7493 583.666 43.2533 583.848 43.9253 583.848ZM49.9001 589.098C49.6107 589.098 49.3681 589 49.1721 588.804C48.9761 588.608 48.8781 588.365 48.8781 588.076C48.8781 587.787 48.9761 587.544 49.1721 587.348C49.3681 587.152 49.6107 587.054 49.9001 587.054C50.1801 587.054 50.4181 587.152 50.6141 587.348C50.8101 587.544 50.9081 587.787 50.9081 588.076C50.9081 588.365 50.8101 588.608 50.6141 588.804C50.4181 589 50.1801 589.098 49.9001 589.098ZM49.9001 583.218C49.6107 583.218 49.3681 583.12 49.1721 582.924C48.9761 582.728 48.8781 582.485 48.8781 582.196C48.8781 581.907 48.9761 581.664 49.1721 581.468C49.3681 581.272 49.6107 581.174 49.9001 581.174C50.1801 581.174 50.4181 581.272 50.6141 581.468C50.8101 581.664 50.9081 581.907 50.9081 582.196C50.9081 582.485 50.8101 582.728 50.6141 582.924C50.4181 583.12 50.1801 583.218 49.9001 583.218ZM52.4777 583.764C52.4777 582.149 52.7484 580.889 53.2897 579.984C53.8404 579.069 54.783 578.612 56.1177 578.612C57.4524 578.612 58.3904 579.069 58.9317 579.984C59.4824 580.889 59.7577 582.149 59.7577 583.764C59.7577 585.397 59.4824 586.676 58.9317 587.6C58.3904 588.515 57.4524 588.972 56.1177 588.972C54.783 588.972 53.8404 588.515 53.2897 587.6C52.7484 586.676 52.4777 585.397 52.4777 583.764ZM58.1897 583.764C58.1897 583.008 58.1384 582.369 58.0357 581.846C57.9424 581.323 57.7464 580.899 57.4477 580.572C57.149 580.236 56.7057 580.068 56.1177 580.068C55.5297 580.068 55.0864 580.236 54.7877 580.572C54.489 580.899 54.2884 581.323 54.1857 581.846C54.0924 582.369 54.0457 583.008 54.0457 583.764C54.0457 584.548 54.0924 585.206 54.1857 585.738C54.279 586.27 54.475 586.699 54.7737 587.026C55.0817 587.353 55.5297 587.516 56.1177 587.516C56.7057 587.516 57.149 587.353 57.4477 587.026C57.7557 586.699 57.9564 586.27 58.0497 585.738C58.143 585.206 58.1897 584.548 58.1897 583.764ZM61.4464 583.764C61.4464 582.149 61.7171 580.889 62.2584 579.984C62.8091 579.069 63.7518 578.612 65.0864 578.612C66.4211 578.612 67.3591 579.069 67.9004 579.984C68.4511 580.889 68.7264 582.149 68.7264 583.764C68.7264 585.397 68.4511 586.676 67.9004 587.6C67.3591 588.515 66.4211 588.972 65.0864 588.972C63.7518 588.972 62.8091 588.515 62.2584 587.6C61.7171 586.676 61.4464 585.397 61.4464 583.764ZM67.1584 583.764C67.1584 583.008 67.1071 582.369 67.0044 581.846C66.9111 581.323 66.7151 580.899 66.4164 580.572C66.1178 580.236 65.6744 580.068 65.0864 580.068C64.4984 580.068 64.0551 580.236 63.7564 580.572C63.4578 580.899 63.2571 581.323 63.1544 581.846C63.0611 582.369 63.0144 583.008 63.0144 583.764C63.0144 584.548 63.0611 585.206 63.1544 585.738C63.2478 586.27 63.4438 586.699 63.7424 587.026C64.0504 587.353 64.4984 587.516 65.0864 587.516C65.6744 587.516 66.1178 587.353 66.4164 587.026C66.7244 586.699 66.9251 586.27 67.0184 585.738C67.1118 585.206 67.1584 584.548 67.1584 583.764Z" fill="white"/>
<path d="M35.013 628.83C35.909 628.055 36.6137 627.421 37.127 626.926C37.6497 626.422 38.0837 625.899 38.429 625.358C38.7743 624.817 38.947 624.275 38.947 623.734C38.947 623.174 38.8117 622.735 38.541 622.418C38.2797 622.101 37.8643 621.942 37.295 621.942C36.7443 621.942 36.315 622.119 36.007 622.474C35.7083 622.819 35.5497 623.286 35.531 623.874H33.991C34.019 622.81 34.3363 621.998 34.943 621.438C35.559 620.869 36.3383 620.584 37.281 620.584C38.2983 620.584 39.0917 620.864 39.661 621.424C40.2397 621.984 40.529 622.731 40.529 623.664C40.529 624.336 40.3563 624.985 40.011 625.61C39.675 626.226 39.269 626.781 38.793 627.276C38.3263 627.761 37.729 628.326 37.001 628.97L36.371 629.53H40.809V630.86H34.005V629.698L35.013 628.83ZM42.2111 625.764C42.2111 624.149 42.4818 622.889 43.0231 621.984C43.5738 621.069 44.5164 620.612 45.8511 620.612C47.1858 620.612 48.1238 621.069 48.6651 621.984C49.2158 622.889 49.4911 624.149 49.4911 625.764C49.4911 627.397 49.2158 628.676 48.6651 629.6C48.1238 630.515 47.1858 630.972 45.8511 630.972C44.5164 630.972 43.5738 630.515 43.0231 629.6C42.4818 628.676 42.2111 627.397 42.2111 625.764ZM47.9231 625.764C47.9231 625.008 47.8718 624.369 47.7691 623.846C47.6758 623.323 47.4798 622.899 47.1811 622.572C46.8824 622.236 46.4391 622.068 45.8511 622.068C45.2631 622.068 44.8198 622.236 44.5211 622.572C44.2224 622.899 44.0218 623.323 43.9191 623.846C43.8258 624.369 43.7791 625.008 43.7791 625.764C43.7791 626.548 43.8258 627.206 43.9191 627.738C44.0124 628.27 44.2084 628.699 44.5071 629.026C44.8151 629.353 45.2631 629.516 45.8511 629.516C46.4391 629.516 46.8824 629.353 47.1811 629.026C47.4891 628.699 47.6898 628.27 47.7831 627.738C47.8764 627.206 47.9231 626.548 47.9231 625.764ZM52.0338 631.098C51.7445 631.098 51.5018 631 51.3058 630.804C51.1098 630.608 51.0118 630.365 51.0118 630.076C51.0118 629.787 51.1098 629.544 51.3058 629.348C51.5018 629.152 51.7445 629.054 52.0338 629.054C52.3138 629.054 52.5518 629.152 52.7478 629.348C52.9438 629.544 53.0418 629.787 53.0418 630.076C53.0418 630.365 52.9438 630.608 52.7478 630.804C52.5518 631 52.3138 631.098 52.0338 631.098ZM52.0338 625.218C51.7445 625.218 51.5018 625.12 51.3058 624.924C51.1098 624.728 51.0118 624.485 51.0118 624.196C51.0118 623.907 51.1098 623.664 51.3058 623.468C51.5018 623.272 51.7445 623.174 52.0338 623.174C52.3138 623.174 52.5518 623.272 52.7478 623.468C52.9438 623.664 53.0418 623.907 53.0418 624.196C53.0418 624.485 52.9438 624.728 52.7478 624.924C52.5518 625.12 52.3138 625.218 52.0338 625.218ZM54.6115 625.764C54.6115 624.149 54.8822 622.889 55.4235 621.984C55.9742 621.069 56.9168 620.612 58.2515 620.612C59.5862 620.612 60.5242 621.069 61.0655 621.984C61.6162 622.889 61.8915 624.149 61.8915 625.764C61.8915 627.397 61.6162 628.676 61.0655 629.6C60.5242 630.515 59.5862 630.972 58.2515 630.972C56.9168 630.972 55.9742 630.515 55.4235 629.6C54.8822 628.676 54.6115 627.397 54.6115 625.764ZM60.3235 625.764C60.3235 625.008 60.2722 624.369 60.1695 623.846C60.0762 623.323 59.8802 622.899 59.5815 622.572C59.2828 622.236 58.8395 622.068 58.2515 622.068C57.6635 622.068 57.2202 622.236 56.9215 622.572C56.6228 622.899 56.4222 623.323 56.3195 623.846C56.2262 624.369 56.1795 625.008 56.1795 625.764C56.1795 626.548 56.2262 627.206 56.3195 627.738C56.4128 628.27 56.6088 628.699 56.9075 629.026C57.2155 629.353 57.6635 629.516 58.2515 629.516C58.8395 629.516 59.2828 629.353 59.5815 629.026C59.8895 628.699 60.0902 628.27 60.1835 627.738C60.2768 627.206 60.3235 626.548 60.3235 625.764ZM63.5802 625.764C63.5802 624.149 63.8509 622.889 64.3922 621.984C64.9429 621.069 65.8856 620.612 67.2202 620.612C68.5549 620.612 69.4929 621.069 70.0342 621.984C70.5849 622.889 70.8602 624.149 70.8602 625.764C70.8602 627.397 70.5849 628.676 70.0342 629.6C69.4929 630.515 68.5549 630.972 67.2202 630.972C65.8856 630.972 64.9429 630.515 64.3922 629.6C63.8509 628.676 63.5802 627.397 63.5802 625.764ZM69.2922 625.764C69.2922 625.008 69.2409 624.369 69.1382 623.846C69.0449 623.323 68.8489 622.899 68.5502 622.572C68.2516 622.236 67.8082 622.068 67.2202 622.068C66.6322 622.068 66.1889 622.236 65.8902 622.572C65.5916 622.899 65.3909 623.323 65.2882 623.846C65.1949 624.369 65.1482 625.008 65.1482 625.764C65.1482 626.548 65.1949 627.206 65.2882 627.738C65.3816 628.27 65.5776 628.699 65.8762 629.026C66.1842 629.353 66.6322 629.516 67.2202 629.516C67.8082 629.516 68.2516 629.353 68.5502 629.026C68.8582 628.699 69.0589 628.27 69.1522 627.738C69.2456 627.206 69.2922 626.548 69.2922 625.764Z" fill="white"/>
<path d="M37.0501 670.83C37.9461 670.055 38.6508 669.421 39.1641 668.926C39.6868 668.422 40.1208 667.899 40.4661 667.358C40.8115 666.817 40.9841 666.275 40.9841 665.734C40.9841 665.174 40.8488 664.735 40.5781 664.418C40.3168 664.101 39.9015 663.942 39.3321 663.942C38.7815 663.942 38.3521 664.119 38.0441 664.474C37.7455 664.819 37.5868 665.286 37.5681 665.874H36.0281C36.0561 664.81 36.3735 663.998 36.9801 663.438C37.5961 662.869 38.3755 662.584 39.3181 662.584C40.3355 662.584 41.1288 662.864 41.6981 663.424C42.2768 663.984 42.5661 664.731 42.5661 665.664C42.5661 666.336 42.3935 666.985 42.0481 667.61C41.7121 668.226 41.3061 668.781 40.8301 669.276C40.3635 669.761 39.7661 670.326 39.0381 670.97L38.4081 671.53H42.8461V672.86H36.0421V671.698L37.0501 670.83ZM44.0382 664.25V662.794H46.9502V673H45.3402V664.25H44.0382ZM49.9967 673.098C49.7074 673.098 49.4647 673 49.2687 672.804C49.0727 672.608 48.9747 672.365 48.9747 672.076C48.9747 671.787 49.0727 671.544 49.2687 671.348C49.4647 671.152 49.7074 671.054 49.9967 671.054C50.2767 671.054 50.5147 671.152 50.7107 671.348C50.9067 671.544 51.0047 671.787 51.0047 672.076C51.0047 672.365 50.9067 672.608 50.7107 672.804C50.5147 673 50.2767 673.098 49.9967 673.098ZM49.9967 667.218C49.7074 667.218 49.4647 667.12 49.2687 666.924C49.0727 666.728 48.9747 666.485 48.9747 666.196C48.9747 665.907 49.0727 665.664 49.2687 665.468C49.4647 665.272 49.7074 665.174 49.9967 665.174C50.2767 665.174 50.5147 665.272 50.7107 665.468C50.9067 665.664 51.0047 665.907 51.0047 666.196C51.0047 666.485 50.9067 666.728 50.7107 666.924C50.5147 667.12 50.2767 667.218 49.9967 667.218ZM52.5744 667.764C52.5744 666.149 52.845 664.889 53.3864 663.984C53.937 663.069 54.8797 662.612 56.2144 662.612C57.549 662.612 58.487 663.069 59.0284 663.984C59.579 664.889 59.8544 666.149 59.8544 667.764C59.8544 669.397 59.579 670.676 59.0284 671.6C58.487 672.515 57.549 672.972 56.2144 672.972C54.8797 672.972 53.937 672.515 53.3864 671.6C52.845 670.676 52.5744 669.397 52.5744 667.764ZM58.2864 667.764C58.2864 667.008 58.235 666.369 58.1324 665.846C58.039 665.323 57.843 664.899 57.5444 664.572C57.2457 664.236 56.8024 664.068 56.2144 664.068C55.6264 664.068 55.183 664.236 54.8844 664.572C54.5857 664.899 54.385 665.323 54.2824 665.846C54.189 666.369 54.1424 667.008 54.1424 667.764C54.1424 668.548 54.189 669.206 54.2824 669.738C54.3757 670.27 54.5717 670.699 54.8704 671.026C55.1784 671.353 55.6264 671.516 56.2144 671.516C56.8024 671.516 57.2457 671.353 57.5444 671.026C57.8524 670.699 58.053 670.27 58.1464 669.738C58.2397 669.206 58.2864 668.548 58.2864 667.764ZM61.5431 667.764C61.5431 666.149 61.8138 664.889 62.3551 663.984C62.9058 663.069 63.8485 662.612 65.1831 662.612C66.5178 662.612 67.4558 663.069 67.9971 663.984C68.5478 664.889 68.8231 666.149 68.8231 667.764C68.8231 669.397 68.5478 670.676 67.9971 671.6C67.4558 672.515 66.5178 672.972 65.1831 672.972C63.8485 672.972 62.9058 672.515 62.3551 671.6C61.8138 670.676 61.5431 669.397 61.5431 667.764ZM67.2551 667.764C67.2551 667.008 67.2038 666.369 67.1011 665.846C67.0078 665.323 66.8118 664.899 66.5131 664.572C66.2145 664.236 65.7711 664.068 65.1831 664.068C64.5951 664.068 64.1518 664.236 63.8531 664.572C63.5545 664.899 63.3538 665.323 63.2511 665.846C63.1578 666.369 63.1111 667.008 63.1111 667.764C63.1111 668.548 63.1578 669.206 63.2511 669.738C63.3445 670.27 63.5405 670.699 63.8391 671.026C64.1471 671.353 64.5951 671.516 65.1831 671.516C65.7711 671.516 66.2145 671.353 66.5131 671.026C66.8211 670.699 67.0218 670.27 67.1151 669.738C67.2085 669.206 67.2551 668.548 67.2551 667.764Z" fill="white"/>
<path d="M34.9574 712.83C35.8534 712.055 36.558 711.421 37.0714 710.926C37.594 710.422 38.028 709.899 38.3734 709.358C38.7187 708.817 38.8914 708.275 38.8914 707.734C38.8914 707.174 38.756 706.735 38.4854 706.418C38.224 706.101 37.8087 705.942 37.2394 705.942C36.6887 705.942 36.2594 706.119 35.9514 706.474C35.6527 706.819 35.494 707.286 35.4754 707.874H33.9354C33.9634 706.81 34.2807 705.998 34.8874 705.438C35.5034 704.869 36.2827 704.584 37.2254 704.584C38.2427 704.584 39.036 704.864 39.6054 705.424C40.184 705.984 40.4734 706.731 40.4734 707.664C40.4734 708.336 40.3007 708.985 39.9554 709.61C39.6194 710.226 39.2134 710.781 38.7374 711.276C38.2707 711.761 37.6734 712.326 36.9454 712.97L36.3154 713.53H40.7534V714.86H33.9494V713.698L34.9574 712.83ZM43.0374 712.83C43.9334 712.055 44.6381 711.421 45.1514 710.926C45.6741 710.422 46.1081 709.899 46.4534 709.358C46.7988 708.817 46.9714 708.275 46.9714 707.734C46.9714 707.174 46.8361 706.735 46.5654 706.418C46.3041 706.101 45.8888 705.942 45.3194 705.942C44.7688 705.942 44.3394 706.119 44.0314 706.474C43.7328 706.819 43.5741 707.286 43.5554 707.874H42.0154C42.0434 706.81 42.3608 705.998 42.9674 705.438C43.5834 704.869 44.3628 704.584 45.3054 704.584C46.3228 704.584 47.1161 704.864 47.6854 705.424C48.2641 705.984 48.5534 706.731 48.5534 707.664C48.5534 708.336 48.3808 708.985 48.0354 709.61C47.6994 710.226 47.2934 710.781 46.8174 711.276C46.3508 711.761 45.7534 712.326 45.0254 712.97L44.3954 713.53H48.8334V714.86H42.0294V713.698L43.0374 712.83ZM51.0895 715.098C50.8002 715.098 50.5575 715 50.3615 714.804C50.1655 714.608 50.0675 714.365 50.0675 714.076C50.0675 713.787 50.1655 713.544 50.3615 713.348C50.5575 713.152 50.8002 713.054 51.0895 713.054C51.3695 713.054 51.6075 713.152 51.8035 713.348C51.9995 713.544 52.0975 713.787 52.0975 714.076C52.0975 714.365 51.9995 714.608 51.8035 714.804C51.6075 715 51.3695 715.098 51.0895 715.098ZM51.0895 709.218C50.8002 709.218 50.5575 709.12 50.3615 708.924C50.1655 708.728 50.0675 708.485 50.0675 708.196C50.0675 707.907 50.1655 707.664 50.3615 707.468C50.5575 707.272 50.8002 707.174 51.0895 707.174C51.3695 707.174 51.6075 707.272 51.8035 707.468C51.9995 707.664 52.0975 707.907 52.0975 708.196C52.0975 708.485 51.9995 708.728 51.8035 708.924C51.6075 709.12 51.3695 709.218 51.0895 709.218ZM53.6671 709.764C53.6671 708.149 53.9378 706.889 54.4791 705.984C55.0298 705.069 55.9725 704.612 57.3071 704.612C58.6418 704.612 59.5798 705.069 60.1211 705.984C60.6718 706.889 60.9471 708.149 60.9471 709.764C60.9471 711.397 60.6718 712.676 60.1211 713.6C59.5798 714.515 58.6418 714.972 57.3071 714.972C55.9725 714.972 55.0298 714.515 54.4791 713.6C53.9378 712.676 53.6671 711.397 53.6671 709.764ZM59.3791 709.764C59.3791 709.008 59.3278 708.369 59.2251 707.846C59.1318 707.323 58.9358 706.899 58.6371 706.572C58.3385 706.236 57.8951 706.068 57.3071 706.068C56.7191 706.068 56.2758 706.236 55.9771 706.572C55.6785 706.899 55.4778 707.323 55.3751 707.846C55.2818 708.369 55.2351 709.008 55.2351 709.764C55.2351 710.548 55.2818 711.206 55.3751 711.738C55.4685 712.27 55.6645 712.699 55.9631 713.026C56.2711 713.353 56.7191 713.516 57.3071 713.516C57.8951 713.516 58.3385 713.353 58.6371 713.026C58.9451 712.699 59.1458 712.27 59.2391 711.738C59.3325 711.206 59.3791 710.548 59.3791 709.764ZM62.6359 709.764C62.6359 708.149 62.9066 706.889 63.4479 705.984C63.9986 705.069 64.9412 704.612 66.2759 704.612C67.6106 704.612 68.5486 705.069 69.0899 705.984C69.6406 706.889 69.9159 708.149 69.9159 709.764C69.9159 711.397 69.6406 712.676 69.0899 713.6C68.5486 714.515 67.6106 714.972 66.2759 714.972C64.9412 714.972 63.9986 714.515 63.4479 713.6C62.9066 712.676 62.6359 711.397 62.6359 709.764ZM68.3479 709.764C68.3479 709.008 68.2966 708.369 68.1939 707.846C68.1006 707.323 67.9046 706.899 67.6059 706.572C67.3072 706.236 66.8639 706.068 66.2759 706.068C65.6879 706.068 65.2446 706.236 64.9459 706.572C64.6472 706.899 64.4466 707.323 64.3439 707.846C64.2506 708.369 64.2039 709.008 64.2039 709.764C64.2039 710.548 64.2506 711.206 64.3439 711.738C64.4372 712.27 64.6332 712.699 64.9319 713.026C65.2399 713.353 65.6879 713.516 66.2759 713.516C66.8639 713.516 67.3072 713.353 67.6059 713.026C67.9139 712.699 68.1146 712.27 68.2079 711.738C68.3012 711.206 68.3479 710.548 68.3479 709.764Z" fill="white"/>
</svg>
