<svg width="20" height="20" viewBox="0 0 20 20" fill="none" xmlns="http://www.w3.org/2000/svg">
<path fill-rule="evenodd" clip-rule="evenodd" d="M17.8445 3.82078C18.1574 4.13335 18.3332 4.55705 18.3332 4.99882C18.3332 5.44058 18.1574 5.86429 17.8445 6.17686L7.8186 16.1791C7.50529 16.4912 7.08058 16.6666 6.63777 16.6666C6.19496 16.6666 5.77025 16.4912 5.45694 16.1791L2.11498 12.845C1.81981 12.529 1.65913 12.111 1.66676 11.6791C1.6744 11.2473 1.84977 10.8352 2.15592 10.5298C2.46208 10.2243 2.87511 10.0494 3.30801 10.0418C3.74091 10.0341 4.15987 10.1944 4.47663 10.4889L6.63777 12.6449L15.4828 3.82078C15.7961 3.5086 16.2208 3.33325 16.6637 3.33325C17.1065 3.33325 17.5312 3.5086 17.8445 3.82078Z" fill="white"/>
</svg>
