<svg width="20" height="20" viewBox="0 0 20 20" fill="none" xmlns="http://www.w3.org/2000/svg">
<g clip-path="url(#clip0_972_4478)">
<path d="M8.89 1.16137C9.19414 0.963415 9.54811 0.850565 9.91342 0.83509C10.2787 0.819615 10.6414 0.902106 10.962 1.0736L11.109 1.16137L19.109 6.36242C19.3596 6.5253 19.5693 6.74129 19.7224 6.99426C19.8754 7.24723 19.968 7.53064 19.993 7.82336L20 7.98525V17.2161C20.0002 17.7082 19.8096 18.1821 19.4665 18.543C19.1234 18.9038 18.6532 19.1248 18.15 19.1617L18 19.1666H2C1.49542 19.1667 1.00943 18.9809 0.639452 18.6463C0.269471 18.3117 0.0428433 17.8531 0.00500011 17.3624L0 17.2161V7.98525C5.19133e-06 7.6916 0.0679945 7.40174 0.198897 7.1373C0.329799 6.87285 0.520235 6.64064 0.756 6.458L0.891 6.36242L8.89 1.16137ZM10 2.7842L2.803 7.46349L10 12.1428L17.197 7.46349L10 2.7842Z" fill="white"/>
</g>
<defs>
<clipPath id="clip0_972_4478">
<rect width="20" height="20" fill="white"/>
</clipPath>
</defs>
</svg>
