<svg width="20" height="20" viewBox="0 0 20 20" fill="none" xmlns="http://www.w3.org/2000/svg">
<path d="M6.48729 1.68403C6.61586 1.62014 6.75484 1.74391 6.71735 1.88341C6.51309 2.64356 6.40963 3.42909 6.41023 4.21874C6.41023 9.05716 10.2332 12.9796 14.9489 12.9796C15.9902 12.9814 17.0219 12.7867 17.9927 12.4062C18.1263 12.3539 18.2635 12.4801 18.2144 12.6159C17.0093 15.9548 13.8781 18.3334 10.2052 18.3334C5.48948 18.3334 1.6665 14.411 1.6665 9.57258C1.6665 6.10126 3.63384 3.10197 6.48729 1.68403Z" fill="white"/>
<path fill-rule="evenodd" clip-rule="evenodd" d="M12.7748 4.04815C12.7748 3.58406 13.1479 3.20784 13.6081 3.20784H17.4998C17.8537 3.20784 18.169 3.43325 18.2861 3.77C18.4033 4.10675 18.2967 4.48139 18.0204 4.70432L15.7088 6.56908H17.4998C17.96 6.56908 18.3331 6.9453 18.3331 7.40939C18.3331 7.87348 17.96 8.2497 17.4998 8.2497H13.3331C12.9792 8.2497 12.6639 8.02429 12.5468 7.68754C12.4296 7.35078 12.5362 6.97615 12.8126 6.75322L15.1241 4.88846H13.6081C13.1479 4.88846 12.7748 4.51224 12.7748 4.04815Z" fill="white"/>
</svg>
