<svg width="20" height="20" viewBox="0 0 20 20" fill="none" xmlns="http://www.w3.org/2000/svg">
<path d="M0.0122331 5.34052C0.00242695 5.41766 0.0482521 5.49044 0.121928 5.52383L9.91407 9.96098C9.96844 9.98562 10.0316 9.98562 10.0859 9.96098L19.8781 5.52383C19.9517 5.49044 19.9976 5.41766 19.9878 5.34052C19.9205 4.81122 19.6493 4.31871 19.2195 3.95121C18.7552 3.55423 18.1411 3.33315 17.5028 3.33325H2.49719C1.85893 3.33315 1.24478 3.55423 0.780515 3.95121C0.350735 4.31871 0.0795176 4.81122 0.0122331 5.34052Z" fill="white"/>
<path d="M20 8.39156C20 8.25288 19.8494 8.16068 19.7169 8.2183L10.0831 12.4089C10.0303 12.4318 9.96968 12.4318 9.91691 12.4089L0.283091 8.2183C0.150638 8.16068 0 8.25288 0 8.39156V14.4916C0 15.0685 0.263392 15.6217 0.732233 16.0296C1.20107 16.4374 1.83696 16.6666 2.5 16.6666H17.5C18.163 16.6666 18.7989 16.4374 19.2678 16.0296C19.7366 15.6217 20 15.0685 20 14.4916V8.39156Z" fill="white"/>
</svg>
