<svg width="34" height="34" viewBox="0 0 34 34" fill="none" xmlns="http://www.w3.org/2000/svg">
<path d="M19.6842 17.405C19.6741 17.933 19.5075 18.4461 19.2055 18.8793C18.9035 19.3125 18.4797 19.6462 17.9878 19.8383C17.4959 20.0303 16.958 20.072 16.4424 19.958C15.9268 19.844 15.4566 19.5795 15.0915 19.198C14.7264 18.8165 14.4827 18.3352 14.3915 17.815C14.3002 17.2949 14.3654 16.7594 14.5789 16.2764C14.7923 15.7934 15.1443 15.3846 15.5904 15.1019C16.0364 14.8192 16.5563 14.6752 17.0842 14.6883C17.7857 14.7143 18.4495 15.0125 18.9349 15.5196C19.4202 16.0268 19.689 16.703 19.6842 17.405Z" fill="white"/>
<path d="M21.6059 9.05501H12.5642C11.6695 9.05501 10.8115 9.41041 10.1789 10.043C9.54626 10.6757 9.19086 11.5337 9.19086 12.4283V21.6733C9.19086 22.1163 9.27811 22.555 9.44764 22.9643C9.61717 23.3735 9.86564 23.7454 10.1789 24.0586C10.4921 24.3719 10.864 24.6204 11.2733 24.7899C11.6825 24.9594 12.1212 25.0467 12.5642 25.0467H21.6059C22.0489 25.0467 22.4875 24.9594 22.8968 24.7899C23.306 24.6204 23.6779 24.3719 23.9912 24.0586C24.3044 23.7454 24.5529 23.3735 24.7224 22.9643C24.8919 22.555 24.9792 22.1163 24.9792 21.6733V12.445C24.9809 12.0007 24.895 11.5605 24.7263 11.1495C24.5576 10.7385 24.3095 10.3648 23.9961 10.0499C23.6827 9.73498 23.3103 9.48499 22.9001 9.31427C22.49 9.14354 22.0501 9.05544 21.6059 9.05501ZM17.0842 21.9267C16.1891 21.9469 15.3084 21.6999 14.5543 21.2174C13.8002 20.7348 13.207 20.0385 12.8503 19.2173C12.4937 18.3961 12.3899 17.4872 12.5521 16.6068C12.7142 15.7263 13.1351 14.9141 13.7609 14.2739C14.3867 13.6336 15.189 13.1944 16.0656 13.0121C16.9421 12.8299 17.8531 12.913 18.6822 13.2508C19.5113 13.5885 20.221 14.1657 20.7207 14.9086C21.2203 15.6515 21.4873 16.5264 21.4875 17.4217C21.4948 18.0068 21.3866 18.5875 21.1691 19.1308C20.9517 19.674 20.6292 20.169 20.2202 20.5874C19.8112 21.0059 19.3237 21.3395 18.7856 21.5694C18.2474 21.7992 17.6693 21.9206 17.0842 21.9267ZM21.9775 12.9183C21.8675 12.9184 21.7587 12.8964 21.6573 12.8539C21.5559 12.8113 21.464 12.7489 21.387 12.6704C21.31 12.5918 21.2495 12.4987 21.2089 12.3965C21.1684 12.2943 21.1486 12.185 21.1509 12.075C21.1509 11.8513 21.2397 11.6368 21.3979 11.4787C21.556 11.3205 21.7705 11.2317 21.9942 11.2317C22.2179 11.2317 22.4324 11.3205 22.5905 11.4787C22.7487 11.6368 22.8375 11.8513 22.8375 12.075C22.8408 12.1941 22.8184 12.3124 22.7717 12.422C22.725 12.5316 22.6552 12.6298 22.567 12.7099C22.4789 12.79 22.3744 12.85 22.2609 12.886C22.1474 12.922 22.0274 12.933 21.9092 12.9183H21.9775Z" fill="white"/>
<path d="M17.0842 0.333339C12.6639 0.311237 8.41591 2.04599 5.27467 5.15597C2.13344 8.26594 0.356294 12.4964 0.334193 16.9167C0.312092 21.3369 2.04684 25.585 5.15682 28.7262C8.2668 31.8674 12.4973 33.6446 16.9175 33.6667C19.1062 33.6776 21.2756 33.2574 23.3019 32.4299C25.3282 31.6024 27.1717 30.3839 28.727 28.844C30.2824 27.3041 31.5193 25.473 32.367 23.4551C33.2147 21.4371 33.6566 19.272 33.6675 17.0833C33.6785 14.8946 33.2582 12.7252 32.4307 10.6989C31.6033 8.67266 30.3848 6.8292 28.8449 5.27382C27.305 3.71844 25.4738 2.48159 23.4559 1.6339C21.438 0.786214 19.2729 0.344282 17.0842 0.333339ZM27.2059 21.5033C27.2105 22.2511 27.0667 22.9923 26.7827 23.684C26.4988 24.3757 26.0804 25.0042 25.5517 25.533C25.0231 26.0618 24.3947 26.4804 23.7031 26.7646C23.0114 27.0487 22.2702 27.1928 21.5225 27.1883H12.6492C11.9015 27.193 11.1603 27.0492 10.4685 26.7652C9.77682 26.4813 9.14833 26.0628 8.61953 25.5342C8.09072 25.0055 7.67211 24.3772 7.38796 23.6855C7.10381 22.9939 6.95977 22.2527 6.96419 21.505V12.63C6.95955 11.8823 7.10337 11.1411 7.38732 10.4494C7.67127 9.75763 8.08969 9.12915 8.61835 8.60034C9.147 8.07153 9.77536 7.65292 10.467 7.36877C11.1586 7.08462 11.8998 6.94058 12.6475 6.945H21.5225C22.2701 6.94058 23.0111 7.08457 23.7027 7.36861C24.3942 7.65266 25.0225 8.07112 25.5511 8.59975C26.0797 9.12838 26.4982 9.75667 26.7823 10.4482C27.0663 11.1397 27.2103 11.8808 27.2059 12.6283V21.5033Z" fill="white"/>
</svg>
