<svg width="397" height="122" viewBox="0 0 397 122" fill="none" xmlns="http://www.w3.org/2000/svg">
<path d="M171.141 92.3225L145.118 50.9656V92.3225H131.127V29.3996H148.237L171.943 67.6504V29.3996H186.023V92.3225H171.141Z" fill="white"/>
<path d="M219.137 81.2289C220.444 81.2289 221.692 81.0219 222.88 80.6077C224.068 80.1344 225.108 79.454 225.999 78.5665C226.95 77.6198 227.693 76.4661 228.227 75.1053C228.821 73.7444 229.118 72.1174 229.118 70.2241C229.118 68.3899 228.821 66.7924 228.227 65.4316C227.693 64.0117 226.95 62.8579 225.999 61.9704C225.108 61.0829 224.068 60.4321 222.88 60.018C221.692 59.5446 220.444 59.308 219.137 59.308C217.89 59.308 216.642 59.5446 215.394 60.018C214.206 60.4321 213.137 61.0829 212.186 61.9704C211.295 62.8579 210.552 64.0117 209.958 65.4316C209.424 66.7924 209.156 68.3899 209.156 70.2241C209.156 72.0582 209.424 73.6853 209.958 75.1053C210.552 76.4661 211.295 77.6198 212.186 78.5665C213.137 79.454 214.206 80.1344 215.394 80.6077C216.642 81.0219 217.89 81.2289 219.137 81.2289ZM219.137 46.8831C222.464 46.8831 225.554 47.4748 228.406 48.6581C231.257 49.7823 233.723 51.3797 235.802 53.4505C237.941 55.5213 239.605 57.9767 240.793 60.8167C242.041 63.6567 242.664 66.7925 242.664 70.2241C242.664 73.6557 242.041 76.8211 240.793 79.7202C239.605 82.5602 237.941 85.0156 235.802 87.0864C233.723 89.1572 231.257 90.7842 228.406 91.9675C225.554 93.0917 222.464 93.6538 219.137 93.6538C215.81 93.6538 212.721 93.0917 209.869 91.9675C207.017 90.7842 204.522 89.1572 202.383 87.0864C200.304 85.0156 198.64 82.5602 197.393 79.7202C196.204 76.8211 195.61 73.6557 195.61 70.2241C195.61 66.7925 196.204 63.6567 197.393 60.8167C198.64 57.9767 200.304 55.5213 202.383 53.4505C204.522 51.3797 207.017 49.7823 209.869 48.6581C212.721 47.4748 215.81 46.8831 219.137 46.8831Z" fill="white"/>
<path d="M268.221 48.2144H276.865V60.018H268.221V76.5252C268.221 78.3594 268.666 79.6019 269.558 80.2527C270.449 80.8444 271.637 81.1402 273.122 81.1402C273.835 81.1402 274.489 81.1106 275.083 81.0514C275.736 80.9331 276.271 80.8148 276.687 80.6964V91.8788C276.39 91.9971 275.677 92.2338 274.548 92.5888C273.419 92.9438 271.786 93.1213 269.647 93.1213C265.013 93.1213 261.388 91.8788 258.774 89.3938C256.16 86.8497 254.853 83.3589 254.853 78.9215V60.018H247.011V48.2144H249.239C251.556 48.2144 253.279 47.5339 254.408 46.1731C255.536 44.8123 256.101 43.0965 256.101 41.0257V35.3458H268.221V48.2144Z" fill="white"/>
<path d="M314.265 64.9879C314.206 64.1596 313.998 63.3017 313.641 62.4142C313.344 61.5267 312.839 60.7279 312.126 60.018C311.414 59.308 310.493 58.7163 309.364 58.243C308.294 57.7696 306.958 57.533 305.354 57.533C303.928 57.533 302.68 57.7696 301.611 58.243C300.541 58.7163 299.62 59.308 298.848 60.018C298.135 60.7279 297.571 61.5267 297.155 62.4142C296.798 63.3017 296.59 64.1596 296.531 64.9879H314.265ZM326.563 79.6315C326.029 81.5248 325.197 83.3293 324.068 85.0451C322.939 86.7609 321.513 88.2697 319.791 89.5713C318.068 90.8138 316.048 91.79 313.731 92.5C311.473 93.2692 308.948 93.6538 306.156 93.6538C303.126 93.6538 300.214 93.1213 297.422 92.0563C294.63 90.9913 292.164 89.453 290.025 87.4414C287.887 85.4297 286.193 82.9743 284.946 80.0752C283.698 77.1761 283.074 73.8628 283.074 70.1353C283.074 66.5854 283.668 63.3904 284.857 60.5504C286.104 57.6513 287.738 55.1959 289.758 53.1843C291.837 51.1726 294.214 49.6343 296.887 48.5693C299.561 47.4452 302.324 46.8831 305.175 46.8831C312.067 46.8831 317.473 48.8652 321.395 52.8293C325.375 56.7934 327.366 62.355 327.366 69.5141C327.366 70.4607 327.336 71.3778 327.276 72.2653C327.217 73.0936 327.158 73.567 327.098 73.6853H296.264C296.323 74.9278 296.62 76.0815 297.155 77.1465C297.749 78.1523 298.491 79.0398 299.383 79.809C300.333 80.5781 301.403 81.1698 302.591 81.5839C303.779 81.9981 305.027 82.2052 306.334 82.2052C308.829 82.2052 310.76 81.6727 312.126 80.6077C313.552 79.5427 314.592 78.1523 315.246 76.4365L326.563 79.6315Z" fill="white"/>
<path d="M380.775 84.4239C380.775 86.4355 380.804 88.1513 380.864 89.5713C380.983 90.9321 381.072 91.8492 381.131 92.3225H368.12C368.061 92.0267 367.971 91.4646 367.853 90.6363C367.793 89.808 367.764 88.9501 367.764 88.0626C366.754 89.6009 365.179 90.873 363.04 91.8788C360.961 92.8255 358.584 93.2988 355.911 93.2988C352.762 93.2988 349.851 92.7367 347.177 91.6125C344.504 90.4292 342.187 88.8318 340.226 86.8201C338.266 84.7493 336.721 82.2939 335.592 79.454C334.523 76.614 333.988 73.5078 333.988 70.1353C333.988 66.8812 334.523 63.8637 335.592 61.0829C336.662 58.243 338.147 55.7876 340.048 53.7168C341.949 51.646 344.207 50.0485 346.821 48.9243C349.435 47.741 352.317 47.1494 355.465 47.1494C357.367 47.1494 359 47.3269 360.367 47.6819C361.733 47.9777 362.892 48.3623 363.842 48.8356C364.793 49.2498 365.536 49.7231 366.07 50.2556C366.664 50.7881 367.11 51.2614 367.407 51.6756V28.0684L374.31 35.3458L380.775 28.0684V84.4239ZM347.623 70.2241C347.623 72.0582 347.89 73.6557 348.425 75.0165C348.96 76.3773 349.673 77.5311 350.564 78.4777C351.514 79.3652 352.584 80.0456 353.772 80.5189C355.02 80.9923 356.297 81.2289 357.604 81.2289C358.911 81.2289 360.159 80.9923 361.347 80.5189C362.595 80.0456 363.664 79.3652 364.555 78.4777C365.506 77.5311 366.249 76.3773 366.783 75.0165C367.318 73.6557 367.585 72.0582 367.585 70.2241C367.585 68.3899 367.318 66.7924 366.783 65.4316C366.249 64.0708 365.506 62.9467 364.555 62.0592C363.664 61.1125 362.595 60.4321 361.347 60.018C360.159 59.5446 358.911 59.308 357.604 59.308C356.297 59.308 355.02 59.5446 353.772 60.018C352.584 60.4321 351.514 61.1125 350.564 62.0592C349.673 62.9467 348.96 64.0708 348.425 65.4316C347.89 66.7924 347.623 68.3899 347.623 70.2241Z" fill="white"/>
<path d="M68.165 87.9283C81.8143 87.9283 85.7303 89.6201 85.9807 90.3626C86.3155 91.3573 78.9705 92.8875 65.0269 92.8875C53.5663 92.8875 46.3644 92.0035 43.2873 91.4912C42.6795 91.3894 42.7258 90.9722 43.3527 90.9014C49.3412 90.2232 60.0555 87.9294 68.1661 87.9294L68.165 87.9283ZM47.9577 23.2758C48.0051 23.2061 48.0795 23.1596 48.164 23.1453C54.722 22.0487 58.3833 21.5586 65.6088 21.6305C65.9515 21.6338 66.0339 22.103 65.7125 22.2191L62.8473 23.2592C57.9063 25.0528 57.9063 31.9108 62.8473 33.7044L73.5751 37.5992C73.6596 37.6301 73.7262 37.6954 73.7577 37.7784L77.7268 48.3054C79.5546 53.154 86.5433 53.154 88.3711 48.3054L91.2216 40.746C91.3332 40.4505 91.773 40.4959 91.8181 40.8079C93.6211 53.3852 94.4183 69.0441 91.4483 81.1025C90.7525 83.9251 87.8175 85.6545 84.9568 84.9065C71.922 81.4986 56.7517 83.8465 43.3459 86.4888C43.2016 86.5176 43.0584 86.3671 43.0009 86.2343C36.5061 71.1342 37.761 38.2055 47.9566 23.2758H47.9577ZM51.7475 54.5415L55.5948 55.939L57.0189 59.7143C58.1194 62.6332 62.3264 62.6332 63.428 59.7143L64.8522 55.939L68.6994 54.5415C71.674 53.4616 71.674 49.3333 68.6994 48.2523L64.8522 46.8548L63.428 43.0795C62.3275 40.1606 58.1205 40.1606 57.0189 43.0795L55.5948 46.8548L51.7475 48.2523C48.7729 49.3322 48.7729 53.4605 51.7475 54.5415ZM23.407 43.531C25.5889 41.3899 29.3426 39.6838 34.0299 38.4113C34.2971 38.3394 34.5024 38.1292 34.5632 37.8636C35.6705 33.1102 37.0969 28.9697 38.7984 25.938C39.1243 25.3571 38.5684 24.6866 37.9234 24.8813C33.8709 26.1051 30.6269 27.6829 28.6604 29.6126C26.0083 32.215 24.0103 37.0968 22.6662 43.1315C22.5726 43.5542 23.0958 43.8375 23.407 43.531ZM57.0922 96.6396C53.6305 96.4272 50.8037 96.0222 48.6049 95.5918C48.5057 95.5719 48.4076 95.563 48.3106 95.563C47.5101 95.563 46.8279 96.2003 46.8279 97.0213V110.824C46.8279 111.292 47.2947 111.601 47.7818 111.601C48.0152 111.601 48.252 111.531 48.4448 111.372L50.9706 109.303C51.4171 108.938 52.0046 108.754 52.5932 108.754C53.1818 108.754 53.7692 108.937 54.2157 109.303L56.8825 111.489C57.0753 111.647 57.3132 111.718 57.5455 111.718C58.0281 111.718 58.4915 111.413 58.4994 110.951L58.7227 98.3746C58.7384 97.4617 58.0202 96.696 57.0922 96.6385V96.6396ZM35.1135 86.0075C30.3529 76.4342 30.8411 62.8622 33.3703 47.2775C33.5518 46.1622 32.4569 45.2604 31.3677 45.6266C27.9218 46.7851 25.1581 48.2235 23.407 49.9419C22.8489 50.4896 22.32 51.1391 21.8194 51.8782C21.6942 52.063 21.6153 52.2743 21.5849 52.4934C19.4177 67.9985 19.7852 82.0883 24.7206 92.0566C25.1908 93.007 26.5011 93.1951 27.2171 92.4051C27.358 92.2491 27.5012 92.1008 27.6456 91.9581C29.5343 90.1048 30.8546 89.1288 34.2002 88.0788C35.0819 87.8022 35.5194 86.823 35.1124 86.0064L35.1135 86.0075ZM102.276 34.3561C102.209 34.2122 102.04 34.1458 101.888 34.2001L96.6024 36.1198C96.4558 36.1729 96.3724 36.3245 96.4096 36.4739C100.995 55.0605 100.199 86.9491 93.2264 92.9982C88.4388 97.1519 75.8438 99.3637 63.3773 99.4025C63.207 99.4025 63.0728 99.5386 63.0695 99.7057C63.0695 99.7057 63.0695 99.7079 63.0695 99.709L62.9511 106.357C62.9477 106.526 63.0864 106.665 63.2589 106.666C78.3921 106.742 93.6628 104.104 99.1169 98.7519C108.691 89.3568 109.743 50.2805 102.275 34.3572L102.276 34.3561ZM42.984 97.1287C40.0579 96.3232 37.5874 95.2997 35.8058 94.0516C35.595 93.9033 35.3187 93.8823 35.0819 93.9852C33.2519 94.784 31.8289 95.6593 30.8896 96.581C30.4465 97.0158 30.0022 97.5735 29.5692 98.2385L29.3617 98.5582C29.1622 98.8636 29.2242 99.2697 29.5106 99.4987C32.3555 101.774 37.0653 103.507 42.7506 104.699C42.9434 104.739 43.1249 104.595 43.1249 104.402V98.3192C43.1249 98.0304 43.1531 97.7472 43.2061 97.4728C43.2354 97.319 43.1384 97.1707 42.9851 97.1287H42.984ZM81.8549 11.0991L77.393 22.9317L65.3348 27.31C64.2252 27.7128 64.2252 29.2519 65.3348 29.6547L77.393 34.033L81.8549 45.8656C82.2653 46.9544 83.8337 46.9544 84.2442 45.8656L88.706 34.033L100.764 29.6547C101.874 29.2519 101.874 27.7128 100.764 27.31L88.706 22.9317L84.2442 11.0991C83.8337 10.0103 82.2653 10.0103 81.8549 11.0991ZM59.583 45.2914L58.0754 49.2902L54.0004 50.7695C53.4061 50.9853 53.4061 51.8096 54.0004 52.0265L58.0754 53.5058L59.583 57.5047C59.8029 58.0878 60.6429 58.0878 60.8639 57.5047L62.3715 53.5058L66.4465 52.0265C67.0408 51.8107 67.0408 50.9864 66.4465 50.7695L62.3715 49.2902L60.8639 45.2914C60.644 44.7083 59.804 44.7083 59.583 45.2914Z" fill="white"/>
</svg>
