<svg width="24" height="24" viewBox="0 0 24 24" fill="none" xmlns="http://www.w3.org/2000/svg">
<path d="M5.27273 3C4.39128 3 3.55454 3.36794 2.94417 4.00862C2.33515 4.64789 2 5.50626 2 6.39286V18.6071C2 19.4937 2.33515 20.3521 2.94417 20.9914C3.55454 21.6321 4.39128 22 5.27273 22H12.0606C12.9421 22 13.7788 21.6321 14.3892 20.9914C14.9982 20.3521 15.3333 19.4937 15.3333 18.6071V16.5714C15.3333 15.8219 14.7364 15.2143 14 15.2143C13.2636 15.2143 12.6667 15.8219 12.6667 16.5714V18.6071C12.6667 18.8004 12.5932 18.9776 12.4748 19.1018C12.3577 19.2247 12.2079 19.2857 12.0606 19.2857H5.27273C5.12546 19.2857 4.97561 19.2247 4.85857 19.1018C4.74017 18.9776 4.66667 18.8004 4.66667 18.6071V6.39286C4.66667 6.19964 4.74017 6.02243 4.85857 5.89816C4.97561 5.7753 5.12546 5.71429 5.27273 5.71429H12.0606C12.2079 5.71429 12.3577 5.7753 12.4748 5.89816C12.5932 6.02244 12.6667 6.19964 12.6667 6.39286V8.42857C12.6667 9.1781 13.2636 9.78571 14 9.78571C14.7364 9.78571 15.3333 9.1781 15.3333 8.42857V6.39286C15.3333 5.50626 14.9982 4.64789 14.3892 4.00862C13.7788 3.36794 12.9421 3 12.0606 3H5.27273Z" fill="#FE8686"/>
<path d="M18.5525 8.77139C18.0021 8.27343 17.1593 8.32389 16.6701 8.88409C16.1809 9.4443 16.2305 10.3021 16.7808 10.8001L17.1597 11.1429H8.66667C7.93029 11.1429 7.33333 11.7505 7.33333 12.5C7.33333 13.2495 7.93029 13.8572 8.66667 13.8572H17.1597L16.7808 14.2C16.2305 14.6979 16.1809 15.5557 16.6701 16.1159C17.1593 16.6761 18.0021 16.7266 18.5525 16.2286L21.5525 13.5144C21.8371 13.2568 22 12.8877 22 12.5C22 12.1124 21.8371 11.7432 21.5525 11.4857L18.5525 8.77139Z" fill="#FE8686"/>
</svg>
