<svg width="20" height="20" viewBox="0 0 20 20" fill="none" xmlns="http://www.w3.org/2000/svg">
<path d="M8.20941 2.28639C7.893 1.89445 7.4163 1.66663 6.91258 1.66663H1.66667C0.746191 1.66663 0 2.41282 0 3.33329V16.6666C0 17.5871 0.746192 18.3333 1.66667 18.3333H18.3333C19.2538 18.3333 20 17.5871 20 16.6666V5.58554C20 4.66507 19.2538 3.91888 18.3333 3.91888H10.3238C9.82006 3.91888 9.34336 3.69106 9.02695 3.29911L8.20941 2.28639ZM10.5973 10.2243L9.61532 9.2087C9.42212 9.00888 9.42897 8.68984 9.63056 8.49849L10.2188 7.94016C10.4178 7.75128 10.7319 7.75804 10.9225 7.95533L13.6505 10.7776C13.8378 10.9715 13.8378 11.2789 13.6504 11.4727L10.9217 14.295C10.731 14.4923 10.4169 14.499 10.2179 14.31L9.63044 13.752C9.42891 13.5606 9.42217 13.2415 9.61543 13.0418L10.5973 12.027H6.86364C6.58749 12.027 6.36364 11.8031 6.36364 11.527V10.7251C6.36364 10.449 6.58743 10.2251 6.86353 10.2251L10.5973 10.2243Z" fill="white"/>
</svg>
