<svg width="20" height="20" viewBox="0 0 20 20" fill="none" xmlns="http://www.w3.org/2000/svg">
<g clip-path="url(#clip0_972_4672)">
<path d="M7.15307 3.40802C8.42004 1.13601 9.05302 0 10 0C10.947 0 11.58 1.13601 12.8469 3.40802L13.1749 3.99603C13.5349 4.64203 13.7149 4.96503 13.9949 5.17803C14.2749 5.39103 14.6249 5.47003 15.3249 5.62804L15.9609 5.77204C18.4208 6.32904 19.6498 6.60704 19.9428 7.54805C20.2348 8.48805 19.3968 9.46906 17.7198 11.4301L17.2858 11.9371C16.8098 12.4941 16.5708 12.7731 16.4638 13.1171C16.3569 13.4621 16.3928 13.8341 16.4648 14.5771L16.5308 15.2541C16.7838 17.8711 16.9108 19.1791 16.1449 19.7601C15.3789 20.3411 14.2269 19.8111 11.925 18.7511L11.328 18.4771C10.674 18.1751 10.347 18.0251 10 18.0251C9.65301 18.0251 9.32601 18.1751 8.67203 18.4771L8.07604 18.7511C5.7731 19.8111 4.62113 20.3411 3.85614 19.7611C3.08916 19.1791 3.21616 17.8711 3.46915 15.2541L3.53515 14.5781C3.60715 13.8341 3.64315 13.4621 3.53515 13.1181C3.42915 12.7731 3.19016 12.4941 2.71417 11.9381L2.28018 11.4301C0.603221 9.47006 -0.234759 8.48905 0.0572336 7.54805C0.349227 6.60704 1.5802 6.32804 4.04014 5.77204L4.67613 5.62804C5.37511 5.47003 5.7241 5.39103 6.00509 5.17803C6.28609 4.96503 6.46508 4.64203 6.82507 3.99603L7.15307 3.40802Z" fill="white"/>
</g>
<defs>
<clipPath id="clip0_972_4672">
<rect width="20" height="20" fill="white"/>
</clipPath>
</defs>
</svg>
