<svg width="30" height="30" viewBox="0 0 30 30" fill="none" xmlns="http://www.w3.org/2000/svg">
<path d="M25.786 19.9986C25.6888 19.8814 25.5933 19.7643 25.4995 19.6512C24.2105 18.092 23.4306 17.151 23.4306 12.7371C23.4306 10.452 22.8839 8.57695 21.8064 7.1707C21.0118 6.13184 19.9378 5.34375 18.5222 4.76133C18.504 4.75119 18.4877 4.7379 18.4741 4.72207C17.965 3.01699 16.5716 1.875 15.0001 1.875C13.4286 1.875 12.0359 3.01699 11.5267 4.72031C11.5131 4.73559 11.4971 4.74846 11.4792 4.7584C8.1757 6.11836 6.57023 8.72754 6.57023 12.7354C6.57023 17.151 5.79152 18.092 4.50129 19.6494C4.40754 19.7625 4.31203 19.8773 4.21476 19.9969C3.96351 20.2999 3.80433 20.6685 3.75604 21.0592C3.70775 21.4498 3.77239 21.8461 3.9423 22.2012C4.30382 22.9629 5.07433 23.4357 5.95382 23.4357H24.0528C24.9282 23.4357 25.6935 22.9635 26.0562 22.2053C26.2268 21.8501 26.2921 21.4535 26.2442 21.0624C26.1963 20.6713 26.0373 20.3021 25.786 19.9986ZM15.0001 28.125C15.8468 28.1243 16.6775 27.8945 17.4042 27.4599C18.1308 27.0253 18.7263 26.4021 19.1275 25.6564C19.1464 25.6207 19.1557 25.5807 19.1546 25.5403C19.1534 25.4999 19.1418 25.4605 19.121 25.4258C19.1001 25.3912 19.0706 25.3626 19.0354 25.3427C19.0002 25.3229 18.9605 25.3125 18.92 25.3125H11.0814C11.0409 25.3124 11.0011 25.3227 10.9658 25.3425C10.9305 25.3623 10.9009 25.391 10.88 25.4256C10.859 25.4602 10.8474 25.4997 10.8463 25.5401C10.8451 25.5806 10.8544 25.6207 10.8734 25.6564C11.2744 26.402 11.8698 27.0251 12.5964 27.4597C13.3229 27.8943 14.1535 28.1242 15.0001 28.125Z" fill="white"/>
</svg>
