<svg width="30" height="30" viewBox="0 0 30 30" fill="none" xmlns="http://www.w3.org/2000/svg">
<path d="M25.7858 19.9986C25.6885 19.8814 25.593 19.7643 25.4993 19.6512C24.2102 18.092 23.4303 17.151 23.4303 12.7371C23.4303 10.452 22.8837 8.57695 21.8061 7.1707C21.0116 6.13184 19.9376 5.34375 18.5219 4.76133C18.5037 4.75119 18.4875 4.7379 18.4739 4.72207C17.9647 3.01699 16.5714 1.875 14.9999 1.875C13.4284 1.875 12.0356 3.01699 11.5264 4.72031C11.5129 4.73559 11.4968 4.74846 11.479 4.7584C8.17546 6.11836 6.56999 8.72754 6.56999 12.7354C6.56999 17.151 5.79128 18.092 4.50104 19.6494C4.40729 19.7625 4.31178 19.8773 4.21452 19.9969C3.96327 20.2999 3.80408 20.6685 3.7558 21.0592C3.70751 21.4498 3.77215 21.8461 3.94206 22.2012C4.30358 22.9629 5.07409 23.4357 5.95358 23.4357H24.0526C24.928 23.4357 25.6932 22.9635 26.0559 22.2053C26.2266 21.8501 26.2918 21.4535 26.2439 21.0624C26.1961 20.6713 26.0371 20.3021 25.7858 19.9986ZM14.9999 28.125C15.8466 28.1243 16.6773 27.8945 17.4039 27.4599C18.1306 27.0253 18.7261 26.4021 19.1272 25.6564C19.1461 25.6207 19.1554 25.5807 19.1543 25.5403C19.1532 25.4999 19.1416 25.4605 19.1207 25.4258C19.0999 25.3912 19.0704 25.3626 19.0352 25.3427C19 25.3229 18.9602 25.3125 18.9198 25.3125H11.0811C11.0406 25.3124 11.0008 25.3227 10.9655 25.3425C10.9302 25.3623 10.9007 25.391 10.8797 25.4256C10.8588 25.4602 10.8472 25.4997 10.846 25.5401C10.8449 25.5806 10.8542 25.6207 10.8731 25.6564C11.2742 26.402 11.8696 27.0251 12.5961 27.4597C13.3227 27.8943 14.1533 28.1242 14.9999 28.125Z" fill="#FFAB35"/>
</svg>
