<svg width="24" height="19" viewBox="0 0 24 19" fill="none" xmlns="http://www.w3.org/2000/svg">
<path d="M7.872 9.53257C7.872 9.80762 7.848 10.0718 7.8 10.3251C7.712 10.5712 7.592 10.7956 7.44 10.9983C7.28 11.1937 7.084 11.3493 6.852 11.4651C6.612 11.581 6.328 11.6389 6 11.6389C5.664 11.6389 5.38 11.5773 5.148 11.4543C4.916 11.3312 4.724 11.1684 4.572 10.9657C4.42 10.763 4.312 10.535 4.248 10.2817C4.176 10.0284 4.14 9.76781 4.14 9.5C4.14 9.23943 4.176 8.97886 4.248 8.71829C4.312 8.46495 4.42 8.23695 4.572 8.03429C4.724 7.83162 4.924 7.66876 5.172 7.54571C5.412 7.42267 5.7 7.36114 6.036 7.36114C6.38 7.36114 6.668 7.42267 6.9 7.54571C7.14 7.676 7.332 7.84248 7.476 8.04514C7.62 8.25505 7.728 8.48667 7.8 8.74C7.848 9.00057 7.872 9.26476 7.872 9.53257ZM24 9.5V17.9794C24 18.2617 23.892 18.5114 23.676 18.7286C23.452 18.9095 23.184 19 22.872 19H7.128C6.816 19 6.548 18.9095 6.324 18.7286C6.108 18.5114 6 18.2617 6 17.9794V14.9286H0.996C0.732 14.9286 0.496 14.8417 0.288 14.668C0.096 14.4798 0 14.2663 0 14.0274V4.97257C0 4.73371 0.096 4.52019 0.288 4.332C0.496 4.15829 0.732 4.07143 0.996 4.07143H7.5V0.955429C7.5 0.687619 7.6 0.459619 7.8 0.271429C8.008 0.0904762 8.26 0 8.556 0H21.444C21.74 0 21.992 0.0904762 22.2 0.271429C22.4 0.459619 22.5 0.687619 22.5 0.955429V8.45771L23.748 9.10914H23.76C23.824 9.15257 23.88 9.21048 23.928 9.28286C23.976 9.348 24 9.42038 24 9.5ZM18 2.04114V4.75543H21V2.04114M18 6.11257V8.82686H21V6.11257M18 10.184V11.8343L21.048 10.184M12.756 2.04114V4.75543H16.5V2.04114M12.756 6.11257V8.82686H16.5V6.11257M12.756 10.184V12.0189L15.168 13.3651L16.5 12.6486V10.184M9 2.04114V4.07143H11.124C11.172 4.07143 11.216 4.0859 11.256 4.11486V2.03029M6 13.1046C6.584 13.1046 7.112 13.0105 7.584 12.8223C8.048 12.6341 8.444 12.3771 8.772 12.0514C9.092 11.7257 9.332 11.3385 9.492 10.8897C9.66 10.441 9.748 9.956 9.756 9.43486C9.756 8.93543 9.672 8.46857 9.504 8.03429C9.344 7.60724 9.104 7.23448 8.784 6.916C8.472 6.59752 8.092 6.34781 7.644 6.16686C7.188 5.98591 6.672 5.89543 6.096 5.89543C5.48 5.89543 4.932 5.98591 4.452 6.16686C3.98 6.34781 3.58 6.60114 3.252 6.92686C2.924 7.25981 2.676 7.65067 2.508 8.09943C2.34 8.55543 2.256 9.05124 2.256 9.58686C2.256 10.0935 2.34 10.564 2.508 10.9983C2.684 11.4253 2.932 11.7945 3.252 12.1057C3.572 12.417 3.96 12.663 4.416 12.844C4.88 13.0177 5.408 13.1046 6 13.1046ZM7.5 17.6429H19.884L12 13.1914V14.0274C12 14.2663 11.904 14.4798 11.712 14.668C11.504 14.8417 11.268 14.9286 11.004 14.9286H7.5M22.5 17.5234V10.9766L16.596 14.1794L22.5 17.5234Z" fill="white"/>
</svg>
