<svg width="24" height="24" viewBox="0 0 24 24" fill="none" xmlns="http://www.w3.org/2000/svg">
<path d="M17.2687 0.857812L16.0694 2.05923C15.2896 2.84048 15.2901 4.10583 16.0707 4.88638L19.1123 7.92797C19.8933 8.70902 21.1596 8.70902 21.9407 7.92797L23.1374 6.73125C24.164 5.70469 24.164 4.04531 23.1374 3.01875L20.9812 0.857812C19.9546 -0.16875 18.2952 -0.16875 17.2687 0.857812ZM13.8185 4.75325C13.6224 4.55699 13.3341 4.48484 13.0687 4.56563L6.31398 6.59063C5.38116 6.87188 4.64054 7.58438 4.33116 8.5125L0.178039 20.8969C-0.109202 21.751 1.04091 21.8953 1.67835 21.2583L7.01056 15.9295C7.43595 15.5044 7.49991 14.8514 7.49991 14.25C7.49991 13.0078 8.50773 12 9.74991 12C10.9921 12 11.9999 13.0078 11.9999 14.25C11.9999 15.4922 10.9921 16.5 9.74991 16.5C9.14849 16.5 8.49544 16.5638 8.07017 16.9891L2.73793 22.3214C2.10156 22.9577 2.24762 24.1155 3.09835 23.8219L15.4874 19.6688C16.4109 19.3594 17.128 18.6187 17.4093 17.6859L19.4343 10.9312C19.5123 10.6654 19.439 10.3781 19.2432 10.1821L13.8185 4.75325Z" fill="#383838"/>
</svg>
