<svg width="24" height="21" viewBox="0 0 24 21" fill="none" xmlns="http://www.w3.org/2000/svg">
<path d="M14.2857 5.83331H12.5714V11.6666L17.4629 14.6299L18.2857 13.2183L14.2857 10.7916V5.83331ZM13.7143 0C10.9863 0 8.37013 1.10624 6.44119 3.07537C4.51224 5.04449 3.42857 7.7152 3.42857 10.5H0L4.52571 15.2016L9.14286 10.5H5.71429C5.71429 8.33404 6.55714 6.25682 8.05743 4.72528C9.55772 3.19374 11.5926 2.33333 13.7143 2.33333C15.836 2.33333 17.8708 3.19374 19.3711 4.72528C20.8714 6.25682 21.7143 8.33404 21.7143 10.5C21.7143 12.6659 20.8714 14.7431 19.3711 16.2746C17.8708 17.8062 15.836 18.6666 13.7143 18.6666C11.5086 18.6666 9.50857 17.7449 8.06857 16.2633L6.44571 17.9199C7.39612 18.9004 8.52839 19.6778 9.77637 20.2066C11.0244 20.7355 12.3631 21.0051 13.7143 20.9999C16.4422 20.9999 19.0584 19.8937 20.9874 17.9246C22.9163 15.9554 24 13.2847 24 10.5C24 7.7152 22.9163 5.04449 20.9874 3.07537C19.0584 1.10624 16.4422 0 13.7143 0Z" fill="white"/>
</svg>
