<svg width="21" height="20" viewBox="0 0 21 20" fill="none" xmlns="http://www.w3.org/2000/svg">
<path d="M10.5 18.3333C8.05729 18.3333 5.98828 17.526 4.29297 15.9114C2.59766 14.2968 1.75 12.3263 1.75 9.99996C1.75 7.67357 2.59766 5.70309 4.29297 4.0885C5.98828 2.47392 8.05729 1.66663 10.5 1.66663C11.7578 1.66663 12.9609 1.91385 14.1094 2.4083C15.2578 2.90274 16.2422 3.61038 17.0625 4.53121V2.7083C17.0625 2.41316 17.1675 2.16594 17.3775 1.96663C17.5875 1.76732 17.8471 1.66732 18.1562 1.66663C18.4654 1.66594 18.7253 1.76594 18.9361 1.96663C19.1468 2.16732 19.2514 2.41455 19.25 2.7083V7.91663C19.25 8.21177 19.145 8.45934 18.935 8.65934C18.725 8.85934 18.4654 8.95899 18.1562 8.95829L12.6875 8.95829C12.3776 8.95829 12.118 8.85829 11.9087 8.65829C11.6995 8.45829 11.5945 8.21107 11.5937 7.91663C11.593 7.62218 11.698 7.37496 11.9087 7.17496C12.1195 6.97496 12.3791 6.87496 12.6875 6.87496H16.1875C15.6042 5.90274 14.8068 5.13885 13.7955 4.5833C12.7841 4.02774 11.6856 3.74996 10.5 3.74996C8.67708 3.74996 7.1276 4.3576 5.85156 5.57288C4.57552 6.78816 3.9375 8.26385 3.9375 9.99996C3.9375 11.7361 4.57552 13.2118 5.85156 14.427C7.1276 15.6423 8.67708 16.25 10.5 16.25C11.7396 16.25 12.8745 15.9507 13.9048 15.352C14.9351 14.7534 15.7325 13.9503 16.2969 12.9427C16.4427 12.6996 16.648 12.5305 16.9126 12.4354C17.1773 12.3402 17.446 12.3357 17.7187 12.4218C18.0104 12.5086 18.22 12.6909 18.3476 12.9687C18.4752 13.2465 18.4661 13.5069 18.3203 13.75C17.5729 15.1388 16.5065 16.25 15.1211 17.0833C13.7357 17.9166 12.1953 18.3333 10.5 18.3333Z" fill="white"/>
</svg>
