<svg width="24" height="24" viewBox="0 0 24 24" fill="none" xmlns="http://www.w3.org/2000/svg">
<g clip-path="url(#clip0_77_1282)">
<path fill-rule="evenodd" clip-rule="evenodd" d="M23.0701 10.3484C23.8152 7.67162 24.1877 6.33353 23.9064 5.17468C23.6849 4.25928 23.1862 3.42768 22.4734 2.78508C21.5717 1.97316 20.1805 1.61443 17.4015 0.897865L17.397 0.896684C14.6125 0.178143 13.2203 -0.180534 12.0157 0.0902553C11.0654 0.30349 10.2021 0.782904 9.53486 1.46795C8.81036 2.21262 8.43268 3.30172 7.8711 5.28038L7.56995 6.35522L6.93184 8.6498C6.18513 11.328 5.81239 12.6665 6.09379 13.8257C6.31551 14.7406 6.81417 15.5718 7.52675 16.2141C8.42781 17.0266 9.81759 17.3854 12.5936 18.1021L12.6044 18.1049C15.1124 18.7509 16.491 19.1061 17.6204 18.9719C17.7438 18.9576 17.8652 18.937 17.9845 18.9101C18.9349 18.6965 19.7982 18.2167 20.4653 17.5312C21.3097 16.6641 21.6825 15.3268 22.4273 12.6555L23.0701 10.3484ZM11.1598 8.95803C11.0857 9.05083 11.0314 9.15676 10.9999 9.26977C10.9366 9.49782 10.9699 9.74192 11.0925 9.94635C11.2152 10.1508 11.4171 10.3 11.654 10.3612L17.6154 11.8981C17.7341 11.9324 17.8586 11.9435 17.9818 11.9306C18.1049 11.9178 18.2241 11.8813 18.3324 11.8233C18.4406 11.7653 18.5356 11.687 18.6118 11.593C18.688 11.499 18.7438 11.3913 18.776 11.2762C18.8081 11.161 18.8159 11.0409 18.7989 10.9228C18.7819 10.8048 18.7404 10.6912 18.677 10.5888C18.6136 10.4864 18.5294 10.3973 18.4295 10.3268C18.3296 10.2563 18.2161 10.2058 18.0955 10.1783L12.1342 8.6403C12.0167 8.60994 11.8942 8.60214 11.7737 8.61735C11.6531 8.63255 11.5368 8.67046 11.4315 8.72892C11.3262 8.78737 11.2339 8.86522 11.1598 8.95803ZM10.4733 12.1725C10.2608 12.2905 10.1058 12.4849 10.0421 12.7128C10.0106 12.8258 10.0025 12.9437 10.0183 13.0597C10.0341 13.1757 10.0735 13.2876 10.1342 13.389C10.195 13.4903 10.2759 13.5792 10.3723 13.6504C10.4687 13.7217 10.5788 13.774 10.6963 13.8043L14.2731 14.7259C14.392 14.7609 14.5169 14.7725 14.6405 14.76C14.7641 14.7475 14.8839 14.7112 14.9926 14.6532C15.1013 14.5952 15.1967 14.5168 15.2733 14.4225C15.3498 14.3283 15.4058 14.2202 15.438 14.1047C15.4701 13.9891 15.4778 13.8686 15.4605 13.7501C15.4432 13.6317 15.4013 13.5178 15.3373 13.4153C15.2733 13.3128 15.1884 13.2238 15.0879 13.1535C14.9873 13.0832 14.8731 13.0331 14.752 13.0062L11.1752 12.0834C10.9382 12.0224 10.6857 12.0545 10.4733 12.1725Z" fill="white"/>
<path d="M1.50498 17.625L0.893286 15.3229C0.177468 12.6359 -0.17985 11.2918 0.0899132 10.13C0.302235 9.21161 0.780284 8.37726 1.46357 7.73256C2.26103 6.98067 3.45721 6.61605 5.7289 6L5.7076 6.08341L5.07461 8.45942C4.73386 9.74037 4.44989 10.8104 4.29135 11.7029C4.12571 12.6335 4.06418 13.532 4.27715 14.4483C4.5693 15.7104 5.22643 16.857 6.16549 17.743C6.84818 18.3865 7.65037 18.7833 8.5342 19.105C9.36219 19.4057 10.3959 19.6855 11.6309 20.0198L11.685 20.0344L11.7146 20.0416L11.8412 20.0761L11.873 20.0847C13.0162 20.3932 13.9843 20.6544 14.8003 20.8173C15.1965 20.8998 15.597 20.9594 16 20.996C15.933 21.0675 15.8635 21.1374 15.7918 21.2057C14.9273 22.0215 13.5937 22.3814 10.9298 23.1004L10.9254 23.1015C8.25615 23.8213 6.92154 24.1811 5.76676 23.9094C4.85583 23.6955 4.02827 23.2145 3.38859 22.5272C2.57812 21.6562 2.21962 20.3121 1.50498 17.625Z" fill="white"/>
</g>
<defs>
<clipPath id="clip0_77_1282">
<rect width="24" height="24" fill="white"/>
</clipPath>
</defs>
</svg>
