<svg width="60" height="60" viewBox="0 0 60 60" fill="none" xmlns="http://www.w3.org/2000/svg">
<path fill-rule="evenodd" clip-rule="evenodd" d="M57.7164 41.4805C59.224 37.8407 60 33.9397 60 30C60 21.5872 56.5323 13.9599 50.9307 8.57143H51.4286C53.7955 8.57143 55.7143 6.65265 55.7143 4.28571C55.7143 1.91878 53.7955 1.81545e-07 51.4286 1.53319e-07L38.5714 0C36.2045 -2.82254e-08 34.2857 1.91878 34.2857 4.28571V17.1429C34.2857 19.5098 36.2045 21.4286 38.5714 21.4286C40.9384 21.4286 42.8571 19.5098 42.8571 17.1429V12.9588C48.0397 16.7428 51.4286 22.9579 51.4286 30C51.4286 32.814 50.8743 35.6005 49.7974 38.2004C48.7205 40.8002 47.1421 43.1625 45.1523 45.1523C43.1625 47.1421 40.8002 48.7205 38.2004 49.7974C35.6005 50.8743 32.814 51.4286 30 51.4286C27.186 51.4286 24.3995 50.8743 21.7996 49.7974C19.1998 48.7205 16.8375 47.1421 14.8477 45.1523C12.8579 43.1625 11.2795 40.8002 10.2026 38.2004C9.1257 35.6005 8.57143 32.814 8.57143 30C8.57143 24.3168 10.8291 18.8664 14.8477 14.8477C17.8477 11.8477 21.6456 9.82911 25.7427 8.99852C28.0624 8.52823 30 6.65265 30 4.28571C30 1.91878 28.0715 -0.0314625 25.7286 0.305509C19.3513 1.22277 13.3963 4.17734 8.7868 8.7868C3.16071 14.4129 9.48803e-08 22.0435 0 30C-4.69799e-08 33.9397 0.775969 37.8407 2.28361 41.4805C3.79125 45.1203 6.00104 48.4275 8.7868 51.2132C11.5726 53.999 14.8797 56.2087 18.5195 57.7164C22.1593 59.224 26.0603 60 30 60C33.9397 60 37.8407 59.224 41.4805 57.7164C45.1203 56.2087 48.4274 53.999 51.2132 51.2132C53.999 48.4274 56.2087 45.1203 57.7164 41.4805Z" fill="white"/>
</svg>
