<svg width="16" height="16" viewBox="0 0 16 16" fill="none" xmlns="http://www.w3.org/2000/svg">
<path d="M6.386 4.2058e-07C5.38651 0.000534529 4.40108 0.235492 3.50892 0.685988C2.61677 1.13648 1.84276 1.78995 1.24911 2.59387C0.655466 3.3978 0.25874 4.32974 0.0908199 5.31482C-0.0771004 6.29989 -0.0115313 7.31061 0.282258 8.26574C0.576046 9.22088 1.08986 10.0938 1.7824 10.8143C2.47494 11.5348 3.3269 12.0828 4.26979 12.4143C5.21268 12.7458 6.2202 12.8516 7.21139 12.723C8.20257 12.5945 9.14977 12.2352 9.97685 11.6742L13.9255 15.6188C14.0352 15.7365 14.1674 15.8308 14.3144 15.8963C14.4614 15.9618 14.62 15.997 14.7808 15.9998C14.9417 16.0027 15.1015 15.9731 15.2507 15.9128C15.3998 15.8526 15.5353 15.7629 15.6491 15.6492C15.7629 15.5354 15.8526 15.4 15.9128 15.2508C15.9731 15.1017 16.0027 14.9419 15.9998 14.7811C15.997 14.6203 15.9618 14.4617 15.8963 14.3148C15.8308 14.1678 15.7364 14.0356 15.6187 13.9259L11.6732 9.97813C12.326 9.01766 12.7045 7.89747 12.7681 6.73801C12.8318 5.57855 12.5781 4.42369 12.0344 3.39758C11.4906 2.37148 10.6775 1.51295 9.68226 0.914316C8.68704 0.31568 7.54745 -0.000420879 6.386 4.2058e-07ZM2.39261 6.38805C2.39261 5.32916 2.81334 4.31365 3.56225 3.5649C4.31115 2.81616 5.32689 2.39552 6.386 2.39552C7.44511 2.39552 8.46084 2.81616 9.20975 3.5649C9.95865 4.31365 10.3794 5.32916 10.3794 6.38805C10.3794 7.44693 9.95865 8.46245 9.20975 9.21119C8.46084 9.95994 7.44511 10.3806 6.386 10.3806C5.32689 10.3806 4.31115 9.95994 3.56225 9.21119C2.81334 8.46245 2.39261 7.44693 2.39261 6.38805Z" fill="#A3A3A3"/>
</svg>
