<svg width="24" height="24" viewBox="0 0 24 24" fill="none" xmlns="http://www.w3.org/2000/svg">
<path d="M14.3084 1.98093C13.554 1.81264 12.7842 1.7233 12.0113 1.71436C11.2204 1.7235 10.4479 1.81236 9.69358 1.98093C9.53237 2.01659 9.38643 2.10195 9.27632 2.22498C9.16622 2.348 9.0975 2.50248 9.07986 2.66664L8.90072 4.2755C8.87504 4.50242 8.7966 4.72019 8.67167 4.91136C8.54674 5.10254 8.37879 5.26182 8.18127 5.37645C7.98375 5.49108 7.76213 5.55788 7.53417 5.57151C7.3062 5.58514 7.0782 5.54521 6.86843 5.45493L5.39415 4.80607C5.2445 4.74019 5.07808 4.72245 4.91792 4.75532C4.75775 4.78818 4.61176 4.87002 4.50015 4.9895C3.43393 6.13042 2.64006 7.49809 2.17815 8.98978C2.12896 9.14679 2.13012 9.31525 2.18146 9.47156C2.2328 9.62788 2.33174 9.76422 2.46443 9.8615L3.77329 10.8258C3.95755 10.9612 4.10737 11.138 4.21063 11.342C4.31389 11.546 4.36769 11.7714 4.36769 12.0001C4.36769 12.2287 4.31389 12.4541 4.21063 12.6581C4.10737 12.8621 3.95755 13.039 3.77329 13.1744L2.46443 14.1412C2.33191 14.2384 2.23308 14.3746 2.18175 14.5308C2.13042 14.6869 2.12916 14.8552 2.17815 15.0121C2.64006 16.5047 3.43324 17.8736 4.49843 19.0166C4.60994 19.1363 4.75589 19.2183 4.91606 19.2513C5.07623 19.2843 5.24271 19.2667 5.39243 19.2009L6.87358 18.5504C7.08222 18.4597 7.30919 18.4191 7.53633 18.4319C7.76346 18.4447 7.98444 18.5105 8.18158 18.6241C8.581 18.8555 8.84758 19.2626 8.89986 19.7221L9.07815 21.3309C9.09569 21.4929 9.16296 21.6454 9.2707 21.7676C9.37845 21.8898 9.52138 21.9756 9.67986 22.0132C11.2052 22.3759 12.7943 22.3759 14.3196 22.0132C14.4781 21.9756 14.621 21.8898 14.7287 21.7676C14.8365 21.6454 14.9037 21.4929 14.9213 21.3309L15.0996 19.7195C15.1238 19.4924 15.2012 19.2743 15.3256 19.0828C15.45 18.8913 15.6178 18.7318 15.8154 18.6174C16.013 18.503 16.2348 18.4368 16.4628 18.4243C16.6909 18.4117 16.9186 18.4532 17.1276 18.5452L18.6079 19.1958C18.7576 19.2616 18.9241 19.2792 19.0842 19.2461C19.2444 19.2131 19.3904 19.1311 19.5019 19.0115C20.5665 17.8697 21.3596 16.5023 21.8221 15.0112C21.8713 14.8542 21.8702 14.6857 21.8188 14.5294C21.7675 14.3731 21.6686 14.2368 21.5359 14.1395L20.2287 13.1744C20.0444 13.039 19.8945 12.8623 19.7912 12.6583C19.6879 12.4543 19.634 12.2289 19.6339 12.0003C19.6338 11.7716 19.6875 11.5462 19.7907 11.3422C19.8939 11.1381 20.0437 10.9612 20.2279 10.8258L21.535 9.85978C21.6674 9.76245 21.766 9.6262 21.8172 9.47007C21.8684 9.31394 21.8695 9.14573 21.8204 8.98893C21.3588 7.49731 20.5652 6.12965 19.4993 4.98864C19.3877 4.86916 19.2417 4.78732 19.0815 4.75446C18.9214 4.7216 18.7549 4.73933 18.6053 4.80521L17.131 5.45407C16.9473 5.53492 16.7489 5.57694 16.5481 5.5775C16.189 5.57703 15.8427 5.44396 15.5757 5.20383C15.3087 4.96369 15.1397 4.63341 15.1013 4.27636L14.9213 2.66578C14.9036 2.50201 14.835 2.34789 14.7253 2.22506C14.6155 2.10223 14.4692 2.01686 14.3084 1.98093ZM12.0001 15.4286C11.0908 15.4286 10.2188 15.0674 9.57578 14.4244C8.9328 13.7815 8.57158 12.9094 8.57158 12.0001C8.57158 11.0908 8.9328 10.2187 9.57578 9.5757C10.2188 8.93272 11.0908 8.5715 12.0001 8.5715C12.9095 8.5715 13.7815 8.93272 14.4245 9.5757C15.0675 10.2187 15.4287 11.0908 15.4287 12.0001C15.4287 12.9094 15.0675 13.7815 14.4245 14.4244C13.7815 15.0674 12.9095 15.4286 12.0001 15.4286Z" fill="white"/>
</svg>
