<svg width="24" height="24" viewBox="0 0 24 24" fill="none" xmlns="http://www.w3.org/2000/svg">
<path d="M20 8H4V6H20V8ZM18 2H6V4H18V2ZM22 12V20C22 20.5304 21.7893 21.0391 21.4142 21.4142C21.0391 21.7893 20.5304 22 20 22H4C3.47005 21.9984 2.96227 21.7872 2.58753 21.4125C2.2128 21.0377 2.00158 20.5299 2 20V12C2.00158 11.4701 2.2128 10.9623 2.58753 10.5875C2.96227 10.2128 3.47005 10.0016 4 10H20C20.5299 10.0016 21.0377 10.2128 21.4125 10.5875C21.7872 10.9623 21.9984 11.4701 22 12ZM13.927 17.042L16.25 15.056L13.191 14.8L12 12L10.809 14.8L7.75 15.056L10.073 17.042L9.373 20L12 18.428L14.627 20L13.927 17.042Z" fill="white"/>
</svg>
