<svg width="24" height="24" viewBox="0 0 24 24" fill="none" xmlns="http://www.w3.org/2000/svg">
<path fill-rule="evenodd" clip-rule="evenodd" d="M7.82707 0.702944C8.28549 0.252856 8.90725 0 9.55556 0H14.4444C15.0928 0 15.7145 0.252856 16.1729 0.702944C16.6313 1.15303 16.8889 1.76348 16.8889 2.4V4.8H20.5413C20.5499 4.79991 20.5585 4.79991 20.5671 4.8H21.7778C22.4528 4.8 23 5.33726 23 6C23 6.66274 22.4528 7.2 21.7778 7.2H21.6802L20.5551 20.4549C20.5406 21.3898 20.156 22.2834 19.4816 22.9456C18.794 23.6207 17.8614 24 16.8889 24H7.11111C6.13865 24 5.20602 23.6207 4.51839 22.9456C3.84395 22.2834 3.45939 21.3898 3.44487 20.4549L2.31984 7.2H2.22222C1.54721 7.2 1 6.66274 1 6C1 5.33726 1.54721 4.8 2.22222 4.8H3.43288C3.44152 4.79991 3.45014 4.79991 3.45874 4.8H7.11111V2.4C7.11111 1.76348 7.36865 1.15303 7.82707 0.702944ZM4.77276 7.2L5.88467 20.3003C5.88748 20.3335 5.88889 20.3667 5.88889 20.4C5.88889 20.7183 6.01766 21.0235 6.24687 21.2485C6.47608 21.4736 6.78696 21.6 7.11111 21.6H16.8889C17.213 21.6 17.5239 21.4736 17.7531 21.2485C17.9823 21.0235 18.1111 20.7183 18.1111 20.4C18.1111 20.3667 18.1125 20.3335 18.1153 20.3003L19.2272 7.2H4.77276ZM14.4444 4.8H9.55556V2.4H14.4444V4.8ZM8.69131 12.8485C8.21401 12.3799 8.21401 11.6201 8.69131 11.1515C9.16862 10.6828 9.94249 10.6828 10.4198 11.1515L12 12.7029L13.5802 11.1515C14.0575 10.6828 14.8314 10.6828 15.3087 11.1515C15.786 11.6201 15.786 12.3799 15.3087 12.8485L13.7285 14.4L15.3087 15.9515C15.786 16.4201 15.786 17.1799 15.3087 17.6485C14.8314 18.1172 14.0575 18.1172 13.5802 17.6485L12 16.0971L10.4198 17.6485C9.94249 18.1172 9.16862 18.1172 8.69131 17.6485C8.21401 17.1799 8.21401 16.4201 8.69131 15.9515L10.2715 14.4L8.69131 12.8485Z" fill="white"/>
</svg>
