<svg width="16" height="22" viewBox="0 0 16 22" fill="none" xmlns="http://www.w3.org/2000/svg">
<path fill-rule="evenodd" clip-rule="evenodd" d="M4.12714 0C4.04824 0 3.98428 0.0655193 3.98428 0.146341V6.44717C3.23598 6.74071 2.47903 7.02274 1.72079 7.30525L1.72053 7.30535C1.17773 7.50759 0.634278 7.71007 0.0928766 7.9172C0.037025 7.93857 0 7.99322 0 8.05429V9.78147C0 9.82895 0.022489 9.87349 0.0603225 9.90092C0.098156 9.92835 0.146631 9.93527 0.190347 9.91949C0.73331 9.72344 1.27391 9.52207 1.81341 9.3211C2.53795 9.05121 3.26067 8.78199 3.98428 8.52748V9.14338C2.91849 9.55762 1.83971 9.95802 0.759472 10.359C0.537747 10.4412 0.315858 10.5236 0.0941087 10.6061C0.0376157 10.6271 0 10.6821 0 10.7436V12.4799C0 12.5274 0.0225751 12.572 0.0605289 12.5994C0.0984826 12.6269 0.147078 12.6337 0.190823 12.6177C0.730689 12.4206 1.2674 12.2215 1.8038 12.0225L1.8043 12.0223C2.52915 11.7534 3.25353 11.4847 3.98428 11.2213V21.794C3.98428 21.8576 4.02446 21.914 4.08365 21.9334C4.1945 21.9696 4.33645 21.9849 4.51742 21.9924C4.6997 22 4.93546 22 5.23993 22H5.24369C7.91636 22.0048 10.4931 20.9853 12.462 19.1438L12.4628 19.1431L12.4691 19.1374L12.4707 19.1359C13.4357 18.2353 14.236 17.1675 14.8345 15.9824C14.84 15.9751 14.8449 15.9673 14.8491 15.9588C15.5611 14.5199 15.954 12.9392 15.9999 11.3285L16 11.3242V10.9805C16 10.8997 15.936 10.8342 15.8571 10.8342H13.636C13.5571 10.8342 13.4931 10.8997 13.4931 10.9805L13.4931 10.9878L13.4931 10.9883C13.4969 12.1125 13.2755 13.2256 12.8424 14.2596C12.842 14.2606 12.8416 14.2616 12.8412 14.2625C12.841 14.2631 12.8408 14.2637 12.8406 14.2643L12.8202 14.3177C12.2492 15.6668 11.3435 16.8415 10.192 17.7265C9.08299 18.5787 7.78278 19.134 6.41039 19.3426V10.32C7.10203 10.064 7.79519 9.80909 8.48852 9.55416L8.49016 9.55355C9.94151 9.01989 11.3936 8.48596 12.8342 7.94016C12.8902 7.91891 12.9275 7.86414 12.9275 7.8029V6.01423C12.9275 5.96659 12.9048 5.92193 12.8668 5.89452C12.8287 5.86712 12.78 5.8604 12.7363 5.87652C11.6553 6.2746 10.5696 6.68282 9.48248 7.09176L9.40468 7.12103C8.40704 7.49631 7.40827 7.87202 6.41039 8.24111V7.62391C7.45376 7.24223 8.48673 6.86013 9.51958 6.47807L9.51983 6.47798C10.6201 6.07098 11.7202 5.66405 12.8326 5.25774C12.8895 5.23696 12.9275 5.18177 12.9275 5.11989V3.31766C12.9275 3.27 12.9048 3.22532 12.8667 3.19792C12.8287 3.17052 12.7799 3.16383 12.7362 3.17998C11.6737 3.57206 10.6103 3.9721 9.54911 4.3713L9.47116 4.40062C8.44807 4.78547 7.4271 5.16936 6.41039 5.54469V0.146341C6.41039 0.0655193 6.34643 0 6.26753 0H4.12714ZM13.636 10.9878C13.636 11.0073 13.636 11.0268 13.636 11.0463C13.6321 12.1706 13.407 13.2829 12.9737 14.3174L12.9524 14.3734C12.3715 15.7469 11.4498 16.9428 10.2777 17.8436C9.14402 18.7148 7.81394 19.2808 6.41039 19.4906C6.36286 19.4977 6.31525 19.5044 6.26756 19.5106C7.72364 19.3188 9.10563 18.7443 10.2777 17.8436C11.4498 16.9428 12.3715 15.7469 12.9524 14.3734L12.9737 14.3174C13.4145 13.2649 13.6399 12.132 13.636 10.9878ZM12.7846 6.01426L12.6417 6.06689C11.5827 6.4576 10.5191 6.8577 9.45381 7.25844C8.44013 7.63976 7.4248 8.0217 6.41039 8.3967L6.26756 8.44946C7.3295 8.05755 8.39254 7.65766 9.45381 7.25844C10.5671 6.83967 11.6784 6.42166 12.7846 6.01426ZM12.7846 3.31769L12.6417 3.37043C11.6274 3.74541 10.6121 4.12731 9.59849 4.50862C8.53317 4.90936 7.46941 5.30952 6.41039 5.70023L6.26756 5.75288C7.37379 5.34549 8.48523 4.92739 9.59849 4.50862C10.6598 4.1094 11.7227 3.70959 12.7846 3.31769Z" fill="white"/>
</svg>
