<svg width="20" height="19" viewBox="0 0 20 19" fill="none" xmlns="http://www.w3.org/2000/svg">
<path d="M3.27273 0C2.39128 0 1.55454 0.367935 0.944168 1.00862C0.33515 1.64789 0 2.50626 0 3.39286V15.6071C0 16.4937 0.33515 17.3521 0.944168 17.9914C1.55454 18.6321 2.39128 19 3.27273 19H10.0606C10.9421 19 11.7788 18.6321 12.3892 17.9914C12.9982 17.3521 13.3333 16.4937 13.3333 15.6071V13.5714C13.3333 12.8219 12.7364 12.2143 12 12.2143C11.2636 12.2143 10.6667 12.8219 10.6667 13.5714V15.6071C10.6667 15.8004 10.5932 15.9776 10.4748 16.1018C10.3577 16.2247 10.2079 16.2857 10.0606 16.2857H3.27273C3.12546 16.2857 2.97561 16.2247 2.85857 16.1018C2.74017 15.9776 2.66667 15.8004 2.66667 15.6071V3.39286C2.66667 3.19964 2.74017 3.02243 2.85857 2.89816C2.97561 2.7753 3.12546 2.71429 3.27273 2.71429H10.0606C10.2079 2.71429 10.3577 2.7753 10.4748 2.89816C10.5932 3.02243 10.6667 3.19964 10.6667 3.39286V5.42857C10.6667 6.1781 11.2636 6.78571 12 6.78571C12.7364 6.78571 13.3333 6.1781 13.3333 5.42857V3.39286C13.3333 2.50626 12.9982 1.64789 12.3892 1.00862C11.7788 0.367935 10.9421 0 10.0606 0H3.27273Z" fill="white"/>
<path d="M16.5525 5.77139C16.0021 5.27343 15.1593 5.32389 14.6701 5.88409C14.1809 6.4443 14.2305 7.30211 14.7808 7.80007L15.1597 8.14287H6.66667C5.93029 8.14287 5.33333 8.75049 5.33333 9.50001C5.33333 10.2495 5.93029 10.8572 6.66667 10.8572H15.1597L14.7808 11.2C14.2305 11.6979 14.1809 12.5557 14.6701 13.1159C15.1593 13.6761 16.0021 13.7266 16.5525 13.2286L19.5525 10.5144C19.8371 10.2568 20 9.88766 20 9.50001C20 9.11236 19.8371 8.74321 19.5525 8.48567L16.5525 5.77139Z" fill="white"/>
</svg>
