<svg width="24" height="24" viewBox="0 0 24 24" fill="none" xmlns="http://www.w3.org/2000/svg">
<path d="M10.2216 7.73565C10.4168 7.57114 10.7143 7.71066 10.7143 7.96672V15.6441C10.7143 15.8107 10.8486 15.9457 11.0143 15.9457H12.9857C13.1514 15.9457 13.2857 15.8107 13.2857 15.6441V7.96672C13.2857 7.71066 13.5832 7.57114 13.7784 7.73565L16.414 9.95641C16.539 10.0617 16.7248 10.0474 16.8323 9.92418L18.1106 8.45953C18.2215 8.33235 18.2067 8.13831 18.0778 8.02962L12.1927 3.07046C12.0812 2.97651 11.9188 2.97651 11.8073 3.07046L5.92223 8.02962C5.79326 8.13831 5.77846 8.33235 5.88945 8.45953L7.16769 9.92418C7.27523 10.0474 7.46099 10.0617 7.58595 9.95641L10.2216 7.73565Z" fill="#413B44"/>
<path d="M5.87143 18.4728C5.70574 18.4728 5.57143 18.3378 5.57143 18.1713V14.9836C5.57143 14.8171 5.43711 14.6821 5.27143 14.6821H3.3C3.13431 14.6821 3 14.8171 3 14.9836V18.4728C3 19.1431 3.27092 19.7859 3.75315 20.2598C4.23539 20.7337 4.88944 21 5.57143 21H18.4286C19.1106 21 19.7646 20.7337 20.2468 20.2598C20.7291 19.7859 21 19.1431 21 18.4728V14.9836C21 14.8171 20.8657 14.6821 20.7 14.6821H18.7286C18.5629 14.6821 18.4286 14.8171 18.4286 14.9836V18.1713C18.4286 18.3378 18.2943 18.4728 18.1286 18.4728H5.87143Z" fill="#413B44"/>
</svg>
