<svg width="24" height="24" viewBox="0 0 24 24" fill="none" xmlns="http://www.w3.org/2000/svg">
<g clip-path="url(#clip0_32_931)">
<path d="M15.9 0H8.1C5.95272 0.00317411 3.8943 0.857584 2.37594 2.37594C0.857584 3.8943 0.00317411 5.95272 0 8.1V15.9C0.00317411 18.0473 0.857584 20.1057 2.37594 21.6241C3.8943 23.1424 5.95272 23.9968 8.1 24H15.9C18.0473 23.9968 20.1057 23.1424 21.6241 21.6241C23.1424 20.1057 23.9968 18.0473 24 15.9V8.1C23.9968 5.95272 23.1424 3.8943 21.6241 2.37594C20.1057 0.857584 18.0473 0.00317411 15.9 0ZM10.752 6.672C10.752 6.35374 10.8784 6.04852 11.1035 5.82347C11.3285 5.59843 11.6337 5.472 11.952 5.472C12.2703 5.472 12.5755 5.59843 12.8005 5.82347C13.0256 6.04852 13.152 6.35374 13.152 6.672V14.076C13.152 14.3943 13.0256 14.6995 12.8005 14.9245C12.5755 15.1496 12.2703 15.276 11.952 15.276C11.6337 15.276 11.3285 15.1496 11.1035 14.9245C10.8784 14.6995 10.752 14.3943 10.752 14.076V6.672ZM11.952 19.368C11.6353 19.3632 11.3334 19.2335 11.112 19.0071C10.8906 18.7806 10.7677 18.4758 10.77 18.1591C10.7724 17.8424 10.8999 17.5395 11.1247 17.3164C11.3494 17.0933 11.6533 16.9681 11.97 16.9681C12.2867 16.9681 12.5906 17.0933 12.8153 17.3164C13.0401 17.5395 13.1676 17.8424 13.17 18.1591C13.1723 18.4758 13.0494 18.7806 12.828 19.0071C12.6066 19.2335 12.3047 19.3632 11.988 19.368H11.952Z" fill="#FFAB35"/>
</g>
<defs>
<clipPath id="clip0_32_931">
<rect width="24" height="24" fill="white"/>
</clipPath>
</defs>
</svg>
